<svg width="48" height="48" viewBox="0 0 48 48" fill="none" xmlns="http://www.w3.org/2000/svg">
<rect width="48" height="48" rx="24" fill="#F2F2F2"/>
<path fill-rule="evenodd" clip-rule="evenodd" d="M24.009 26.1221L29.312 31.4251C29.5934 31.7065 29.9751 31.8646 30.373 31.8646C30.771 31.8646 31.1526 31.7065 31.434 31.4251C31.7154 31.1437 31.8735 30.7621 31.8735 30.3641C31.8735 29.9662 31.7154 29.5845 31.434 29.3031L26.129 24.0001L31.433 18.6971C31.5723 18.5578 31.6827 18.3924 31.7581 18.2104C31.8334 18.0283 31.8722 17.8333 31.8721 17.6363C31.8721 17.4393 31.8332 17.2442 31.7578 17.0622C31.6824 16.8802 31.5718 16.7149 31.4325 16.5756C31.2932 16.4363 31.1278 16.3259 30.9458 16.2505C30.7637 16.1752 30.5686 16.1364 30.3716 16.1365C30.1747 16.1365 29.9796 16.1754 29.7976 16.2508C29.6156 16.3262 29.4503 16.4368 29.311 16.5761L24.009 21.8791L18.706 16.5761C18.5677 16.4328 18.4022 16.3184 18.2193 16.2397C18.0363 16.161 17.8395 16.1196 17.6403 16.1177C17.4412 16.1159 17.2436 16.1538 17.0592 16.2291C16.8749 16.3044 16.7073 16.4157 16.5664 16.5565C16.4255 16.6973 16.3141 16.8647 16.2386 17.049C16.163 17.2333 16.125 17.4308 16.1266 17.63C16.1283 17.8292 16.1696 18.026 16.2481 18.2091C16.3266 18.3921 16.4408 18.5577 16.584 18.6961L21.889 24.0001L16.585 29.3041C16.4418 29.4425 16.3276 29.6081 16.2491 29.7912C16.1706 29.9742 16.1293 30.1711 16.1276 30.3702C16.126 30.5694 16.164 30.7669 16.2396 30.9512C16.3151 31.1355 16.4265 31.3029 16.5674 31.4437C16.7083 31.5845 16.8759 31.6958 17.0602 31.7711C17.2446 31.8464 17.4422 31.8843 17.6413 31.8825C17.8405 31.8807 18.0373 31.8392 18.2203 31.7605C18.4032 31.6818 18.5687 31.5674 18.707 31.4241L24.009 26.1221Z" fill="#4F4F4F"/>
</svg>
