<svg width="24" height="24" viewBox="0 0 24 24" fill="none" xmlns="http://www.w3.org/2000/svg">
<path d="M12 17.4001C10.932 17.4001 9.88795 17.0834 8.99992 16.49C8.1119 15.8967 7.41976 15.0533 7.01105 14.0666C6.60234 13.0799 6.4954 11.9941 6.70376 10.9466C6.91212 9.89911 7.42642 8.93692 8.18162 8.18172C8.93683 7.42652 9.89901 6.91222 10.9465 6.70386C11.994 6.4955 13.0798 6.60243 14.0665 7.01115C15.0532 7.41986 15.8966 8.11199 16.4899 9.00002C17.0833 9.88804 17.4 10.9321 17.4 12.0001C17.4 13.4323 16.8311 14.8058 15.8184 15.8185C14.8057 16.8312 13.4322 17.4001 12 17.4001ZM12 3.6001C3.6 3.6001 0 12.0001 0 12.0001C0 12.0001 3.6 20.4001 12 20.4001C20.4 20.4001 24 12.0001 24 12.0001C24 12.0001 20.4 3.6001 12 3.6001Z" fill="#CD4D3C"/>
<path d="M12 15C13.6569 15 15 13.6569 15 12C15 10.3431 13.6569 9 12 9C10.3431 9 9 10.3431 9 12C9 13.6569 10.3431 15 12 15Z" fill="#CD4D3C"/>
</svg>
