<svg width="424" height="424" viewBox="0 0 424 424" fill="none" xmlns="http://www.w3.org/2000/svg">
<path opacity="0.3" d="M355.437 271.569C323.485 344.36 239.142 375.626 173.059 370.295C155.015 368.839 118.711 365.911 90.3645 339.784C35.927 289.609 44.3109 184.728 96.4231 122.981C103.134 115.029 149.587 61.7526 221.974 62.4656C274.972 62.9878 312.171 92.167 316.694 95.8022C322.408 100.394 335.011 111.307 346.37 128.619C373.058 169.296 375.403 226.082 355.437 271.569Z" fill="url(#paint0_linear_7518_14666)"/>
<path d="M186.879 274.316C186.879 274.316 193.91 143.834 153.637 59.6563C150.929 53.9978 143.047 53.5495 139.749 58.8851C117.694 94.5637 62.6353 206.273 186.879 274.316Z" fill="url(#paint1_linear_7518_14666)"/>
<path opacity="0.5" d="M177.044 262.872C177.256 263.251 176.727 263.595 176.466 263.248C166.845 250.458 132.478 191.416 141.316 96.5292C141.345 96.2244 141.801 96.2394 141.799 96.5455C141.654 119.101 143.516 202.978 177.044 262.872Z" fill="white"/>
<path d="M122.944 286.375C122.944 286.375 168.822 231.514 124.722 172.458C97.1639 135.553 89.7524 111.963 88.0697 99.459C87.5179 95.3585 82.8046 93.3425 80.3906 96.1542C62.3659 117.149 26.0348 180.924 122.944 286.375Z" fill="url(#paint2_linear_7518_14666)"/>
<path opacity="0.5" d="M83.7142 139.956C83.7072 139.629 83.2694 139.552 83.236 139.872C82.0022 151.644 82.3043 202.938 121.051 265.899C121.175 266.101 121.442 265.952 121.333 265.741C113.291 250.18 84.8176 191.584 83.7142 139.956Z" fill="white"/>
<path d="M358.651 248.584C355.622 317.587 292.787 370.874 218.306 367.604C143.824 364.334 85.9003 305.746 88.9295 236.743C91.9587 167.741 154.794 114.454 229.275 117.723C303.757 120.993 361.681 179.582 358.651 248.584Z" fill="url(#paint3_linear_7518_14666)"/>
<path opacity="0.13" d="M216.484 333.707C274.986 333.707 322.41 288.906 322.41 233.641C322.41 178.376 274.986 133.575 216.484 133.575C157.983 133.575 110.559 178.376 110.559 233.641C110.559 288.906 157.983 333.707 216.484 333.707Z" fill="white"/>
<g opacity="0.68">
<path d="M258.802 243.268C258.783 254.313 258.382 265.36 257.518 276.375C256.625 287.388 255.255 298.367 253.286 309.249C251.267 320.115 248.706 330.923 244.836 341.334C242.871 346.519 240.594 351.631 237.505 356.319C235.938 358.64 234.183 360.881 231.983 362.725C230.885 363.64 229.679 364.459 228.344 365.058C227.012 365.654 225.549 366.017 224.068 366.049C222.588 366.099 221.104 365.809 219.748 365.262C218.386 364.719 217.145 363.946 216.021 363.057C213.78 361.263 211.955 359.066 210.38 356.75C207.228 352.099 204.927 346.993 202.942 341.817C199.021 331.424 196.449 320.618 194.41 309.756C190.425 287.996 188.782 265.879 188.582 243.787C188.591 232.74 189.083 221.697 189.92 210.683C190.776 199.671 192.035 188.686 193.886 177.79C195.765 166.907 198.159 156.071 201.862 145.622C203.749 140.421 205.944 135.283 208.996 130.604C210.527 128.279 212.304 126.068 214.502 124.285C215.604 123.402 216.823 122.64 218.155 122.116C219.481 121.583 220.926 121.317 222.359 121.382C223.792 121.431 225.209 121.766 226.513 122.337C227.818 122.91 229.014 123.689 230.113 124.568C232.311 126.34 234.117 128.509 235.731 130.775C238.929 135.347 241.34 140.382 243.436 145.504C247.568 155.792 250.369 166.538 252.588 177.36C254.76 188.2 256.288 199.16 257.301 210.164C258.282 221.171 258.756 232.219 258.802 243.268ZM256.117 243.268C256.146 232.292 255.752 221.312 254.852 210.373C253.977 199.434 252.654 188.524 250.657 177.734C248.649 166.956 246.06 156.246 242.159 146.008C240.181 140.913 237.888 135.907 234.846 131.388C233.312 129.149 231.593 127.014 229.525 125.287C227.48 123.569 224.997 122.259 222.334 122.177C219.669 122.072 217.133 123.306 215.095 125.011C213.041 126.738 211.357 128.902 209.908 131.194C207.016 135.804 204.938 140.907 203.169 146.077C199.694 156.467 197.508 167.266 195.838 178.105C192.569 199.822 191.556 221.835 191.664 243.783C191.582 265.724 192.94 287.727 196.619 309.361C198.504 320.156 200.922 330.9 204.653 341.178C206.539 346.295 208.741 351.33 211.72 355.845C213.207 358.094 214.924 360.2 216.966 361.876C218.996 363.53 221.461 364.725 224.029 364.628C225.302 364.581 226.559 364.256 227.731 363.715C228.905 363.17 229.991 362.416 230.993 361.557C233.003 359.83 234.658 357.673 236.135 355.419C239.055 350.862 241.23 345.818 243.094 340.693C246.77 330.395 249.171 319.65 251.032 308.851C252.88 298.039 254.096 287.119 254.909 276.174C255.745 265.229 256.121 254.247 256.117 243.268Z" fill="white"/>
<path d="M314.523 243.268C314.432 257.524 312.585 271.785 308.754 285.53C304.842 299.24 298.941 312.417 290.962 324.241C282.995 336.042 272.851 346.499 260.745 354.084C254.699 357.863 248.168 360.888 241.332 362.937C234.501 364.992 227.37 366.06 220.235 366.06C213.1 366.07 205.965 365.013 199.128 362.968C192.286 360.928 185.746 357.911 179.69 354.138C167.563 346.567 157.39 336.118 149.393 324.317C141.388 312.49 135.467 299.304 131.525 285.583C129.592 278.708 128.145 271.697 127.193 264.621C126.248 257.544 125.772 250.407 125.735 243.268C125.779 236.129 126.263 228.993 127.215 221.917C128.174 214.843 129.63 207.836 131.571 200.966C135.528 187.253 141.464 174.082 149.478 162.275C157.481 150.493 167.651 140.062 179.769 132.523C191.856 125.007 205.968 120.602 220.235 120.632C234.501 120.621 248.602 125.045 260.666 132.576C272.763 140.131 282.904 150.569 290.878 162.351C298.865 174.155 304.781 187.317 308.708 201.018C312.553 214.755 314.416 229.012 314.523 243.268ZM311.445 243.268C311.446 229.277 309.724 215.267 306.053 201.755C302.376 188.261 296.841 175.217 289.182 163.479C281.535 151.774 271.759 141.309 259.951 133.709C254.036 129.956 247.648 126.926 240.944 124.883C234.242 122.84 227.245 121.765 220.235 121.738C213.223 121.775 206.23 122.86 199.534 124.911C192.835 126.963 186.457 130.003 180.552 133.763C168.766 141.378 159.019 151.85 151.401 163.555C143.769 175.291 138.253 188.325 134.607 201.808C132.783 208.556 131.474 215.436 130.581 222.364C129.683 229.293 129.244 236.279 129.235 243.268C129.251 250.257 129.698 257.243 130.603 264.169C131.503 271.095 132.82 277.972 134.652 284.715C138.314 298.19 143.845 311.209 151.486 322.925C159.109 334.61 168.853 345.065 180.631 352.648C186.533 356.391 192.909 359.395 199.588 361.446C206.264 363.501 213.239 364.594 220.235 364.641C227.23 364.605 234.208 363.523 240.89 361.476C247.575 359.434 253.96 356.439 259.872 352.702C271.671 345.133 281.444 334.687 289.097 323.001C296.764 311.283 302.315 298.254 306.007 284.768C309.693 271.265 311.43 257.259 311.445 243.268Z" fill="white"/>
<path d="M110.911 194.71C120.289 194.536 129.668 194.462 139.046 194.336L167.181 194.124C176.559 194.034 185.937 194.044 195.316 194.016L223.45 193.953L251.585 194.024C260.964 194.067 270.342 194.044 279.72 194.141L307.855 194.373C317.233 194.51 326.612 194.59 335.99 194.776C336.065 194.778 336.125 194.84 336.123 194.915C336.122 194.988 336.062 195.046 335.99 195.048C326.612 195.234 317.233 195.314 307.855 195.452L279.72 195.683C270.342 195.78 260.964 195.757 251.585 195.8L223.45 195.871L195.316 195.809C185.937 195.781 176.559 195.79 167.181 195.7L139.046 195.488C129.668 195.362 120.289 195.288 110.911 195.114C110.799 195.112 110.71 195.02 110.712 194.908C110.714 194.799 110.803 194.712 110.911 194.71Z" fill="white"/>
<path d="M143.551 147.586C150.209 147.413 156.868 147.338 163.526 147.212L183.501 147.001C196.818 146.859 210.134 146.842 223.451 146.827C236.767 146.841 250.084 146.872 263.401 147.018L283.376 147.249C290.034 147.386 296.692 147.467 303.351 147.653C303.425 147.655 303.485 147.717 303.483 147.793C303.481 147.865 303.422 147.922 303.351 147.925C296.692 148.111 290.034 148.191 283.376 148.328L263.401 148.559C250.084 148.705 236.767 148.737 223.451 148.75C210.134 148.735 196.817 148.719 183.501 148.577L163.526 148.365C156.868 148.239 150.209 148.165 143.551 147.991C143.439 147.988 143.351 147.895 143.354 147.784C143.357 147.675 143.444 147.589 143.551 147.586Z" fill="white"/>
<path d="M101.134 241.833C111.327 241.66 121.52 241.585 131.713 241.459L162.292 241.247C172.485 241.157 182.679 241.167 192.872 241.139L223.451 241.077L254.03 241.148C264.223 241.191 274.416 241.167 284.609 241.265L315.188 241.496C325.382 241.633 335.575 241.714 345.768 241.9C345.843 241.901 345.902 241.963 345.901 242.038C345.9 242.111 345.84 242.17 345.768 242.171C335.575 242.357 325.382 242.438 315.188 242.575L284.609 242.806C274.416 242.904 264.223 242.88 254.03 242.923L223.451 242.995L192.872 242.932C182.679 242.904 172.485 242.914 162.292 242.824L131.713 242.612C121.52 242.486 111.327 242.411 101.134 242.238C101.022 242.236 100.933 242.144 100.935 242.032C100.937 241.923 101.026 241.835 101.134 241.833Z" fill="white"/>
<path d="M110.911 288.957C120.289 288.783 129.668 288.709 139.046 288.583L167.181 288.371C176.559 288.281 185.937 288.291 195.316 288.263L223.45 288.2L251.585 288.271C260.964 288.314 270.342 288.291 279.72 288.388L307.855 288.62C317.233 288.757 326.612 288.837 335.99 289.023C336.065 289.025 336.125 289.086 336.123 289.162C336.122 289.235 336.062 289.293 335.99 289.295C326.612 289.481 317.233 289.561 307.855 289.698L279.72 289.93C270.342 290.027 260.964 290.004 251.585 290.047L223.45 290.118L195.316 290.055C185.937 290.027 176.559 290.037 167.181 289.947L139.046 289.735C129.668 289.609 120.289 289.535 110.911 289.361C110.799 289.359 110.71 289.267 110.712 289.155C110.714 289.046 110.803 288.959 110.911 288.957Z" fill="white"/>
<path d="M307.376 336.992H147.577C147.185 336.992 146.867 336.674 146.867 336.282C146.867 335.89 147.185 335.573 147.577 335.573H307.376C307.768 335.573 308.085 335.89 308.085 336.282C308.085 336.674 307.768 336.992 307.376 336.992Z" fill="white"/>
</g>
<g opacity="0.3">
<path d="M339.839 301.467C340.358 301.233 340.981 301.425 341.273 301.928C341.913 303.027 342.515 304.17 343.062 305.326C343.328 305.888 343.088 306.56 342.525 306.826C342.519 306.829 342.512 306.832 342.505 306.835C341.948 307.086 341.289 306.845 341.026 306.289C340.506 305.191 339.935 304.105 339.327 303.061C339.014 302.524 339.196 301.834 339.734 301.521C339.768 301.501 339.804 301.483 339.839 301.467ZM343.798 310.443C343.839 310.424 343.88 310.409 343.924 310.395C344.517 310.208 345.149 310.538 345.336 311.131C345.719 312.349 346.055 313.596 346.332 314.837C346.468 315.444 346.088 316.044 345.48 316.182C344.873 316.318 344.27 315.935 344.135 315.329C343.871 314.15 343.552 312.965 343.188 311.807C343.014 311.257 343.285 310.673 343.798 310.443ZM345.683 320.067C345.797 320.015 345.922 319.982 346.054 319.972C346.674 319.922 347.217 320.384 347.268 321.004C347.37 322.274 347.419 323.565 347.412 324.841C347.408 325.463 346.901 325.963 346.28 325.961C345.658 325.957 345.157 325.45 345.16 324.829C345.166 323.617 345.12 322.392 345.023 321.185C344.983 320.697 345.261 320.257 345.683 320.067ZM345.368 329.873C345.557 329.788 345.771 329.754 345.992 329.786C346.607 329.876 347.033 330.448 346.943 331.063C346.759 332.325 346.518 333.595 346.227 334.836C346.084 335.441 345.479 335.817 344.873 335.675C344.268 335.533 343.892 334.927 344.034 334.322C344.31 333.143 344.54 331.937 344.714 330.738C344.772 330.342 345.029 330.026 345.368 329.873ZM342.874 339.362C343.139 339.243 343.45 339.226 343.742 339.339C344.322 339.563 344.611 340.215 344.386 340.795C343.928 341.982 343.412 343.166 342.853 344.314C342.581 344.873 341.907 345.106 341.348 344.834C340.789 344.561 340.556 343.888 340.828 343.328C341.36 342.237 341.85 341.112 342.286 339.984C342.397 339.696 342.613 339.48 342.874 339.362ZM338.343 348.063C338.687 347.909 339.099 347.929 339.434 348.155C339.951 348.502 340.088 349.201 339.741 349.717C339.03 350.775 338.265 351.816 337.467 352.81C337.077 353.295 336.368 353.372 335.883 352.983C335.399 352.594 335.321 351.885 335.711 351.4C336.469 350.455 337.196 349.467 337.872 348.461C337.993 348.28 338.158 348.146 338.343 348.063ZM301.814 367.44C301.956 367.376 302.114 367.341 302.28 367.341C303.49 367.346 304.716 367.297 305.925 367.197C306.544 367.146 307.088 367.607 307.14 368.227C307.191 368.846 306.73 369.391 306.11 369.442C304.837 369.547 303.546 369.598 302.272 369.593C301.65 369.591 301.148 369.085 301.15 368.463C301.151 368.007 301.424 367.616 301.814 367.44ZM332.001 355.539C332.427 355.347 332.946 355.435 333.284 355.794C333.71 356.247 333.688 356.96 333.235 357.386C332.307 358.259 331.329 359.103 330.329 359.893C329.84 360.277 329.133 360.197 328.748 359.709C328.362 359.221 328.445 358.513 328.933 358.127C329.882 357.376 330.811 356.575 331.692 355.746C331.786 355.658 331.89 355.588 332.001 355.539ZM311.565 366.37C311.633 366.339 311.705 366.315 311.78 366.298C312.961 366.031 314.146 365.71 315.302 365.343C315.895 365.156 316.528 365.484 316.716 366.077C316.903 366.669 316.577 367.305 315.982 367.49C314.766 367.876 313.519 368.214 312.276 368.495C311.67 368.632 311.067 368.251 310.93 367.645C310.81 367.113 311.087 366.585 311.565 366.37ZM324.149 361.41C324.667 361.177 325.288 361.368 325.581 361.869C325.895 362.406 325.715 363.095 325.178 363.41C324.079 364.052 322.937 364.656 321.784 365.204C321.777 365.208 321.77 365.211 321.762 365.214C321.205 365.465 320.547 365.225 320.284 364.671C320.017 364.109 320.255 363.437 320.817 363.17C321.912 362.65 322.997 362.076 324.041 361.465C324.076 361.445 324.112 361.426 324.149 361.41Z" fill="url(#paint4_linear_7518_14666)"/>
<path d="M293.942 366.696C294.144 366.605 294.375 366.572 294.61 366.616C295.181 366.723 295.763 366.819 296.341 366.903C296.956 366.993 297.383 367.564 297.294 368.179C297.205 368.795 296.633 369.222 296.017 369.132C295.409 369.044 294.797 368.942 294.196 368.83C293.585 368.716 293.182 368.127 293.296 367.516C293.367 367.139 293.617 366.842 293.942 366.696Z" fill="url(#paint5_linear_7518_14666)"/>
</g>
<g opacity="0.3">
<path d="M265.338 347.709C265.834 347.486 266.432 347.65 266.74 348.118C267.059 348.603 267.393 349.09 267.734 349.564C268.097 350.069 267.982 350.773 267.477 351.136C266.969 351.5 266.268 351.383 265.905 350.878C265.546 350.379 265.194 349.866 264.858 349.356C264.516 348.836 264.661 348.138 265.18 347.796C265.231 347.762 265.284 347.734 265.338 347.709Z" fill="url(#paint6_linear_7518_14666)"/>
<path d="M283.928 283.607C284.4 283.395 284.878 283.189 285.361 282.991C285.937 282.756 286.594 283.031 286.83 283.606C287.066 284.181 286.789 284.842 286.216 285.075C285.101 285.533 284.007 286.034 282.952 286.572C282.397 286.854 281.72 286.635 281.437 286.081C281.155 285.527 281.375 284.849 281.928 284.566C282.581 284.233 283.253 283.911 283.928 283.607ZM291.003 281.117C291.06 281.091 291.121 281.07 291.184 281.053C292.4 280.738 293.643 280.471 294.879 280.259C295.492 280.154 296.074 280.566 296.179 281.179C296.284 281.792 295.871 282.376 295.259 282.479C294.085 282.68 292.904 282.934 291.749 283.233C291.147 283.389 290.532 283.028 290.376 282.426C290.237 281.887 290.512 281.338 291.003 281.117ZM276.85 287.619C277.334 287.402 277.92 287.551 278.234 288.003C278.59 288.513 278.465 289.215 277.955 289.571C276.979 290.251 276.019 290.982 275.101 291.746C274.622 292.142 273.913 292.078 273.515 291.6C273.118 291.121 273.183 290.411 273.662 290.014C274.628 289.21 275.639 288.44 276.667 287.723C276.725 287.682 276.787 287.648 276.85 287.619ZM300.56 279.739C300.691 279.68 300.834 279.646 300.986 279.641C302.241 279.601 303.512 279.614 304.765 279.68C305.386 279.712 305.863 280.242 305.83 280.863C305.798 281.484 305.268 281.961 304.647 281.928C303.457 281.866 302.25 281.854 301.058 281.892C300.437 281.912 299.917 281.424 299.897 280.803C299.882 280.333 300.157 279.921 300.56 279.739ZM269.596 293.98C269.993 293.802 270.475 293.863 270.818 294.176C271.277 294.595 271.309 295.308 270.89 295.767C270.088 296.645 269.312 297.57 268.585 298.516C268.205 299.008 267.498 299.101 267.005 298.721C266.513 298.342 266.421 297.635 266.8 297.142C267.566 296.146 268.382 295.173 269.227 294.248C269.334 294.131 269.46 294.041 269.596 293.98ZM263.913 301.779C264.23 301.636 264.609 301.642 264.935 301.828C265.475 302.137 265.662 302.825 265.353 303.365C264.761 304.4 264.205 305.472 263.702 306.552C263.44 307.116 262.77 307.36 262.206 307.097C261.642 306.834 261.398 306.164 261.661 305.6C262.19 304.464 262.775 303.336 263.398 302.246C263.521 302.032 263.703 301.873 263.913 301.779ZM260.065 310.631C260.307 310.522 260.587 310.498 260.86 310.583C261.454 310.766 261.787 311.397 261.603 311.991C261.249 313.132 260.941 314.299 260.685 315.462C260.551 316.069 259.951 316.453 259.343 316.319C258.736 316.185 258.352 315.585 258.485 314.977C258.755 313.754 259.08 312.525 259.451 311.325C259.551 311.004 259.781 310.759 260.065 310.631ZM258.24 320.111C258.407 320.036 258.595 320 258.791 320.016C259.411 320.065 259.873 320.608 259.824 321.228C259.729 322.417 259.683 323.624 259.689 324.814C259.692 325.436 259.189 325.943 258.569 325.946C257.947 325.949 257.44 325.447 257.437 324.825C257.431 323.571 257.479 322.3 257.579 321.049C257.613 320.624 257.878 320.274 258.24 320.111ZM258.541 329.764C258.635 329.722 258.736 329.692 258.843 329.676C259.459 329.588 260.03 330.016 260.118 330.631C260.287 331.809 260.508 332.995 260.777 334.158C260.916 334.764 260.537 335.368 259.933 335.508C259.327 335.648 258.722 335.27 258.582 334.664C258.3 333.44 258.066 332.191 257.889 330.951C257.816 330.443 258.095 329.965 258.541 329.764ZM260.953 339.109C260.974 339.099 260.996 339.091 261.017 339.082C261.599 338.862 262.249 339.155 262.469 339.737C262.78 340.558 263.119 341.378 263.479 342.178C263.609 342.467 263.743 342.754 263.878 343.039C264.146 343.601 263.907 344.273 263.346 344.54C262.783 344.822 262.112 344.569 261.845 344.008C261.702 343.708 261.562 343.406 261.425 343.102C261.047 342.261 260.69 341.397 260.363 340.534C260.151 339.974 260.414 339.351 260.953 339.109Z" fill="url(#paint7_linear_7518_14666)"/>
<path d="M310.212 280.505C310.417 280.413 310.65 280.381 310.886 280.426C311.485 280.541 312.092 280.671 312.692 280.812C313.297 280.954 313.673 281.561 313.53 282.166C313.388 282.771 312.782 283.147 312.176 283.004C311.607 282.87 311.03 282.747 310.461 282.638C309.851 282.521 309.451 281.931 309.568 281.32C309.64 280.945 309.89 280.65 310.212 280.505Z" fill="url(#paint8_linear_7518_14666)"/>
</g>
<path d="M314.187 293.039C313.986 292.939 313.743 292.977 313.583 293.134L309.008 297.617C306.097 296.925 303.056 296.692 299.99 296.975L296.096 291.894C295.959 291.715 295.725 291.644 295.512 291.715L288.223 294.145C288.01 294.216 287.865 294.415 287.863 294.639L287.798 301.04C285.177 302.655 282.884 304.666 280.971 306.967L274.621 306.127C274.398 306.098 274.182 306.213 274.081 306.413L270.646 313.286C270.545 313.487 270.584 313.729 270.741 313.89L275.224 318.465C274.532 321.375 274.299 324.417 274.581 327.483L269.5 331.377C269.322 331.513 269.25 331.748 269.321 331.961L271.752 339.25C271.823 339.463 272.021 339.607 272.246 339.609L278.647 339.675C280.261 342.296 282.273 344.589 284.573 346.501L283.733 352.852C283.704 353.074 283.819 353.291 284.02 353.392L290.892 356.827C291.093 356.928 291.336 356.889 291.496 356.732L296.071 352.249C298.982 352.941 302.023 353.174 305.089 352.892L308.983 357.973C309.12 358.151 309.354 358.223 309.567 358.152L316.856 355.721C317.069 355.65 317.214 355.452 317.216 355.227L317.281 348.826C319.902 347.212 322.195 345.2 324.108 342.9L330.458 343.74C330.681 343.769 330.898 343.654 330.998 343.453L334.433 336.58C334.533 336.38 334.495 336.137 334.338 335.977L329.855 331.401C330.547 328.491 330.78 325.449 330.498 322.384L335.579 318.49C335.757 318.353 335.829 318.119 335.758 317.906L333.327 310.617C333.256 310.404 333.058 310.259 332.833 310.257L326.432 310.192C324.818 307.57 322.806 305.277 320.506 303.365L321.346 297.015C321.375 296.792 321.26 296.575 321.059 296.475L314.187 293.039Z" fill="url(#paint9_linear_7518_14666)"/>
<path opacity="0.56" d="M299.375 317.887C302.808 316.343 306.957 317.507 309.045 320.771C311.34 324.358 310.289 329.144 306.702 331.439C304.964 332.551 302.897 332.919 300.883 332.477C298.868 332.034 297.145 330.833 296.034 329.096C293.739 325.508 294.79 320.723 298.377 318.428C298.701 318.221 299.035 318.041 299.375 317.887ZM304.958 330.339C305.224 330.22 305.481 330.081 305.731 329.921C308.481 328.162 309.287 324.492 307.528 321.742C305.768 318.991 302.099 318.184 299.348 319.945C296.598 321.704 295.792 325.374 297.551 328.124C298.404 329.457 299.724 330.377 301.269 330.717C302.525 330.993 303.807 330.857 304.958 330.339Z" fill="white"/>
<path opacity="0.56" d="M294.653 307.78C295.243 307.514 295.849 307.277 296.471 307.07C296.667 307.004 296.864 306.942 297.061 306.883C298.036 306.593 299.033 306.38 300.036 306.249C300.049 306.247 300.063 306.245 300.077 306.243C300.115 306.238 300.154 306.233 300.193 306.229C300.269 306.219 300.344 306.211 300.42 306.202C300.619 306.181 300.802 306.292 300.88 306.465C300.899 306.507 300.912 306.553 300.917 306.601C300.944 306.848 300.765 307.07 300.518 307.098C299.246 307.238 297.98 307.516 296.756 307.924C290.675 309.951 286.384 314.915 284.93 320.715C284.121 323.941 284.19 327.425 285.318 330.807C285.516 331.4 285.742 331.979 285.995 332.541C287.699 336.326 290.628 339.385 294.391 341.265C298.713 343.426 303.617 343.774 308.201 342.245C317.667 339.087 322.794 328.824 319.639 319.362C319.444 318.779 319.221 318.207 318.97 317.65C317.883 315.236 316.28 313.086 314.269 311.361C314.217 311.317 314.178 311.263 314.151 311.204C314.082 311.05 314.103 310.863 314.22 310.726C314.383 310.538 314.666 310.515 314.855 310.678C316.967 312.489 318.651 314.746 319.792 317.28C320.055 317.865 320.289 318.465 320.494 319.077C323.807 329.011 318.417 339.788 308.486 343.1C303.674 344.705 298.525 344.339 293.988 342.071C290.038 340.097 286.963 336.886 285.174 332.913C284.909 332.322 284.671 331.715 284.463 331.092C282.859 326.28 283.224 321.131 285.492 316.594C287.467 312.643 290.679 309.568 294.653 307.78Z" fill="white"/>
<g opacity="0.3">
<path d="M362.705 258.637C362.98 258.514 363.313 258.579 363.519 258.819C363.903 259.268 364.279 259.734 364.636 260.205C364.868 260.511 364.808 260.947 364.501 261.179C364.196 261.413 363.759 261.351 363.527 261.045C363.187 260.596 362.829 260.152 362.462 259.724C362.212 259.432 362.246 258.993 362.538 258.743C362.59 258.699 362.646 258.664 362.705 258.637Z" fill="url(#paint10_linear_7518_14666)"/>
<path d="M365.798 263.002C366.12 262.858 366.505 262.977 366.685 263.289C367.194 264.169 367.664 265.085 368.081 266.011C368.169 266.207 368.254 266.403 368.339 266.601C368.489 266.955 368.299 267.359 367.971 267.514C367.617 267.664 367.209 267.499 367.059 267.146C366.978 266.957 366.896 266.768 366.812 266.582C366.415 265.698 365.967 264.824 365.481 263.985C365.289 263.652 365.403 263.227 365.735 263.035C365.756 263.023 365.777 263.012 365.798 263.002ZM368.622 269.649C368.652 269.636 368.683 269.624 368.716 269.614C369.085 269.508 369.47 269.722 369.576 270.091C369.917 271.275 370.187 272.491 370.379 273.705C370.439 274.084 370.178 274.44 369.801 274.5C369.421 274.56 369.066 274.302 369.005 273.922C368.822 272.765 368.564 271.605 368.24 270.475C368.143 270.139 368.311 269.789 368.622 269.649ZM369.749 276.782C369.829 276.746 369.918 276.725 370.012 276.721C370.395 276.709 370.717 277.01 370.729 277.394C370.769 278.624 370.732 279.87 370.619 281.097C370.584 281.48 370.246 281.761 369.863 281.726C369.48 281.691 369.199 281.352 369.234 280.97C369.341 279.8 369.377 278.612 369.339 277.439C369.33 277.149 369.5 276.894 369.749 276.782ZM369.088 283.974C369.219 283.915 369.37 283.896 369.521 283.929C369.896 284.011 370.134 284.382 370.052 284.757C369.789 285.962 369.448 287.16 369.04 288.319C368.912 288.681 368.514 288.871 368.152 288.744C367.79 288.616 367.6 288.219 367.728 287.856C368.117 286.752 368.442 285.608 368.693 284.46C368.742 284.236 368.894 284.061 369.088 283.974ZM366.69 290.786C366.874 290.704 367.092 290.701 367.286 290.798C367.63 290.968 367.77 291.386 367.599 291.73C367.051 292.832 366.43 293.912 365.753 294.937C365.541 295.259 365.11 295.346 364.789 295.135C364.468 294.923 364.38 294.491 364.592 294.171C365.238 293.192 365.83 292.163 366.353 291.111C366.428 290.961 366.549 290.85 366.69 290.786ZM362.713 296.809C362.95 296.703 363.239 296.734 363.45 296.915C363.742 297.164 363.777 297.603 363.528 297.895C362.728 298.831 361.863 299.727 360.955 300.555C360.67 300.814 360.231 300.794 359.972 300.51C359.713 300.227 359.733 299.786 360.017 299.528C360.882 298.737 361.707 297.884 362.469 296.992C362.538 296.911 362.622 296.85 362.713 296.809ZM357.385 301.676C357.682 301.542 358.042 301.633 358.237 301.908C358.459 302.222 358.385 302.656 358.071 302.878C357.07 303.587 356.011 304.243 354.923 304.827C354.581 305.003 354.163 304.881 353.981 304.542C353.8 304.204 353.927 303.782 354.265 303.6C355.303 303.044 356.313 302.419 357.268 301.743C357.305 301.716 357.344 301.694 357.385 301.676ZM347.574 306.187C347.61 306.171 347.649 306.157 347.69 306.147C348.673 305.899 349.66 305.593 350.623 305.237C350.769 305.184 350.912 305.13 351.054 305.074C351.412 304.935 351.815 305.112 351.954 305.47C352.094 305.829 351.919 306.243 351.559 306.371C351.407 306.429 351.255 306.487 351.102 306.543C350.095 306.915 349.061 307.236 348.03 307.496C347.657 307.589 347.279 307.364 347.185 306.991C347.102 306.66 347.272 306.323 347.574 306.187Z" fill="url(#paint11_linear_7518_14666)"/>
</g>
<g opacity="0.3">
<path d="M328 251.14C328.346 250.984 328.755 251.136 328.916 251.481C329.078 251.829 328.927 252.243 328.579 252.405C327.531 252.893 326.503 253.449 325.525 254.058C325.199 254.257 324.77 254.162 324.567 253.836C324.364 253.509 324.464 253.081 324.79 252.877C325.816 252.239 326.893 251.656 327.991 251.144C327.994 251.143 327.997 251.141 328 251.14ZM331.31 249.835C331.333 249.824 331.356 249.815 331.381 249.807C332.531 249.431 333.717 249.121 334.904 248.886C335.281 248.811 335.647 249.056 335.721 249.433C335.796 249.81 335.549 250.175 335.175 250.251C334.042 250.475 332.911 250.771 331.813 251.13C331.448 251.249 331.055 251.05 330.936 250.685C330.824 250.343 330.991 249.978 331.31 249.835ZM321.973 254.895C322.254 254.769 322.596 254.841 322.799 255.092C323.04 255.39 322.994 255.828 322.695 256.07C321.795 256.798 320.933 257.586 320.131 258.414C319.862 258.689 319.423 258.697 319.147 258.429C318.872 258.162 318.865 257.721 319.132 257.445C319.973 256.578 320.877 255.751 321.821 254.989C321.868 254.95 321.919 254.919 321.973 254.895ZM338.281 248.457C338.353 248.425 338.432 248.404 338.516 248.398C339.724 248.309 340.95 248.295 342.159 248.354C342.543 248.373 342.839 248.7 342.82 249.083C342.801 249.466 342.474 249.762 342.091 249.744C340.938 249.687 339.769 249.701 338.617 249.785C338.234 249.813 337.901 249.525 337.873 249.142C337.851 248.843 338.022 248.574 338.281 248.457ZM317.032 259.995C317.257 259.894 317.528 259.916 317.738 260.075C318.044 260.307 318.104 260.743 317.873 261.049C317.176 261.969 316.528 262.941 315.948 263.94C315.754 264.273 315.328 264.385 314.996 264.191C314.664 263.998 314.552 263.572 314.745 263.24C315.354 262.194 316.033 261.174 316.763 260.209C316.836 260.113 316.929 260.041 317.032 259.995ZM313.459 266.132C313.631 266.055 313.833 266.047 314.019 266.127C314.372 266.279 314.536 266.688 314.384 267.041C313.926 268.104 313.53 269.204 313.205 270.309C313.096 270.678 312.709 270.889 312.341 270.781C311.973 270.672 311.762 270.286 311.87 269.918C312.211 268.758 312.627 267.605 313.106 266.491C313.177 266.325 313.306 266.201 313.459 266.132ZM311.459 272.949C311.579 272.895 311.717 272.874 311.857 272.898C312.236 272.96 312.493 273.319 312.43 273.698C312.24 274.838 312.119 276.001 312.07 277.153C312.053 277.536 311.729 277.835 311.345 277.818C310.961 277.802 310.664 277.478 310.68 277.093C310.732 275.886 310.858 274.666 311.057 273.469C311.097 273.231 311.254 273.041 311.459 272.949Z" fill="url(#paint12_linear_7518_14666)"/>
<path d="M345.409 248.81C345.532 248.755 345.671 248.735 345.813 248.759C346.4 248.861 346.986 248.981 347.556 249.115C347.929 249.203 348.162 249.577 348.074 249.951C347.985 250.324 347.611 250.556 347.237 250.469C346.694 250.341 346.135 250.227 345.575 250.13C345.196 250.064 344.943 249.704 345.009 249.325C345.05 249.089 345.206 248.902 345.409 248.81Z" fill="url(#paint13_linear_7518_14666)"/>
</g>
<path d="M348.569 257.241C348.435 257.174 348.273 257.199 348.165 257.304L345.104 260.304C343.156 259.841 341.121 259.685 339.07 259.874L336.464 256.474C336.373 256.355 336.216 256.307 336.073 256.355L331.196 257.981C331.053 258.028 330.957 258.161 330.955 258.311L330.911 262.595C329.157 263.675 327.623 265.021 326.343 266.56L322.094 265.999C321.945 265.979 321.8 266.056 321.733 266.19L319.434 270.789C319.367 270.924 319.392 271.086 319.497 271.193L322.497 274.255C322.034 276.202 321.878 278.238 322.067 280.289L318.667 282.895C318.548 282.986 318.5 283.143 318.547 283.286L320.174 288.163C320.221 288.306 320.354 288.402 320.504 288.404L324.788 288.447C325.868 290.201 327.214 291.736 328.753 293.015L328.192 297.265C328.172 297.414 328.249 297.559 328.383 297.626L332.982 299.925C333.117 299.992 333.279 299.966 333.386 299.861L336.448 296.861C338.395 297.324 340.43 297.48 342.482 297.291L345.088 300.691C345.179 300.811 345.336 300.859 345.478 300.811L350.356 299.185C350.498 299.137 350.595 299.004 350.597 298.854L350.64 294.571C352.394 293.491 353.929 292.145 355.208 290.605L359.458 291.167C359.607 291.187 359.752 291.11 359.819 290.975L362.118 286.377C362.185 286.242 362.159 286.08 362.054 285.973L359.054 282.911C359.518 280.964 359.673 278.928 359.485 276.877L362.885 274.271C363.004 274.18 363.052 274.023 363.004 273.88L361.378 269.003C361.33 268.861 361.198 268.764 361.047 268.762L356.764 268.719C355.684 266.965 354.338 265.43 352.798 264.151L353.36 259.901C353.38 259.752 353.303 259.607 353.169 259.54L348.569 257.241Z" fill="url(#paint14_linear_7518_14666)"/>
<path opacity="0.56" d="M338.627 273.78C339.65 273.32 340.789 273.2 341.904 273.445C343.277 273.746 344.45 274.564 345.207 275.748C346.77 278.191 346.054 281.45 343.611 283.014C341.161 284.575 337.907 283.861 336.344 281.418C335.586 280.234 335.335 278.826 335.637 277.454C335.939 276.082 336.756 274.908 337.941 274.151C338.162 274.01 338.391 273.886 338.627 273.78ZM342.362 282.113C342.532 282.036 342.699 281.946 342.862 281.843C344.659 280.692 345.185 278.295 344.035 276.497C343.478 275.627 342.615 275.025 341.606 274.803C340.596 274.581 339.561 274.767 338.69 275.323C337.819 275.88 337.217 276.743 336.996 277.752C336.774 278.762 336.959 279.798 337.516 280.669C338.562 282.304 340.641 282.887 342.362 282.113Z" fill="white"/>
<path opacity="0.56" d="M335.349 266.74C335.751 266.56 336.164 266.398 336.59 266.256C337.436 265.974 338.312 265.777 339.195 265.671C339.235 265.667 339.275 265.663 339.314 265.658C339.622 265.624 339.904 265.796 340.025 266.063C340.054 266.128 340.074 266.199 340.082 266.274C340.124 266.655 339.847 266.997 339.466 267.04C338.641 267.131 337.822 267.311 337.031 267.575L337.031 267.576C336.987 267.59 336.944 267.605 336.901 267.62C335.035 268.262 333.401 269.344 332.103 270.762C331.399 271.532 330.795 272.401 330.308 273.354C330.304 273.362 330.3 273.37 330.296 273.377C330.284 273.401 330.272 273.425 330.26 273.448C328.862 276.247 328.636 279.422 329.626 282.389C329.754 282.773 329.9 283.147 330.064 283.512C331.167 285.962 333.063 287.942 335.499 289.16C338.297 290.558 341.472 290.783 344.439 289.793C347.404 288.803 349.811 286.718 351.21 283.92C352.608 281.122 352.834 277.947 351.844 274.98C351.718 274.602 351.574 274.232 351.411 273.872C350.708 272.308 349.67 270.917 348.368 269.8C348.287 269.731 348.227 269.649 348.186 269.558C348.079 269.32 348.111 269.031 348.292 268.82C348.543 268.529 348.981 268.494 349.274 268.745C350.731 269.994 351.892 271.551 352.679 273.299C352.861 273.703 353.023 274.117 353.164 274.539C354.271 277.859 354.019 281.412 352.454 284.542C350.889 287.672 348.202 290.007 344.879 291.113C341.56 292.22 338.008 291.968 334.877 290.403C332.152 289.041 330.03 286.826 328.796 284.085C328.613 283.678 328.449 283.259 328.306 282.829C326.163 276.402 329.299 269.463 335.349 266.74Z" fill="white"/>
<path d="M327.621 100.806C339.779 100.806 349.635 90.9502 349.635 78.7924C349.635 66.6346 339.779 56.7788 327.621 56.7788C315.463 56.7788 305.607 66.6346 305.607 78.7924C305.607 90.9502 315.463 100.806 327.621 100.806Z" fill="url(#paint15_linear_7518_14666)"/>
<path d="M341.415 86.4378C341.415 88.0464 340.111 89.3504 338.502 89.3504H317.259C315.65 89.3504 314.346 88.0464 314.346 86.4378V70.5312C314.346 68.9227 315.65 67.6187 317.259 67.6187H338.502C340.111 67.6187 341.415 68.9227 341.415 70.5312V86.4378ZM339.128 70.8993C339.128 70.3509 338.683 69.9062 338.134 69.9062H316.864C316.316 69.9062 315.871 70.3509 315.871 70.8993V86.451C315.871 86.9994 316.316 87.4441 316.864 87.4441H338.134C338.683 87.4441 339.128 86.9994 339.128 86.451V70.8993Z" fill="white"/>
<path d="M327.787 78.6995C327.593 78.6995 327.398 78.6407 327.232 78.5226L315.222 70.0059C314.79 69.6993 314.688 69.1001 314.995 68.6679C315.302 68.2352 315.901 68.1336 316.333 68.4403L327.787 76.563L339.091 68.5332C339.524 68.2258 340.123 68.3278 340.43 68.7601C340.737 69.192 340.635 69.7911 340.203 70.0982L328.343 78.5223C328.177 78.6403 327.982 78.6995 327.787 78.6995Z" fill="white"/>
<path d="M315.928 88.4323L315.645 86.5341L315.777 87.4845L314.973 86.9619C315.195 86.605 319.527 79.029 322.384 74.0236C322.647 73.5628 323.232 73.4024 323.693 73.6659C324.154 73.9287 324.314 74.5147 324.051 74.975C324.051 74.975 322.198 78.2205 320.342 81.4665C319.413 83.0898 318.484 84.7136 317.785 85.9312C316.392 88.3588 316.392 88.3588 315.928 88.4323Z" fill="white"/>
<path d="M339.575 88.432C339.111 88.3586 339.111 88.3586 337.717 85.931C337.018 84.7133 336.089 83.0896 335.161 81.4663C333.304 78.2204 331.452 74.9749 331.452 74.9749C331.189 74.5146 331.349 73.9285 331.809 73.6658C332.27 73.4026 332.856 73.5627 333.119 74.0235C335.976 79.0288 340.307 86.6048 340.529 86.9618L339.725 87.4844L339.575 88.432Z" fill="white"/>
<path d="M318.347 179.378C318.29 179.356 287.505 125.445 283.345 120.372C282.645 119.519 281.562 119.084 280.467 119.215L271.874 120.239L261.78 142.076L278.597 132.283C276.933 143.791 298.536 160.894 305.945 167.135C306.697 167.768 306.759 168.903 306.08 169.614L303.122 172.71C307.978 177.632 313.581 180.793 319.906 182.255L318.347 179.378Z" fill="url(#paint16_linear_7518_14666)"/>
<path d="M304.833 171.039C304.833 171.039 302.945 171.649 302.306 173.33C302 174.135 302.33 175.046 303.029 175.547C306.138 177.774 316.392 184.964 321.123 186.372C321.511 186.488 321.88 186.137 321.793 185.742C321.55 184.643 320.765 182.448 318.234 179.234L318.461 179.693C318.748 180.274 318.116 180.879 317.551 180.561C314.386 178.774 307.94 174.864 304.833 171.039Z" fill="url(#paint17_linear_7518_14666)"/>
<path d="M306.356 192.61C306.305 192.577 301.686 181.449 301.634 181.416C297.4 155.633 287.068 133.551 284.021 127.741C283.508 126.764 282.535 126.119 281.436 126.025L272.814 125.289L258.509 144.632L276.96 138.444C273.001 149.378 290.696 170.499 296.689 178.11C297.297 178.883 297.128 180.006 296.319 180.565L292.796 182.998C296.555 188.802 301.403 193.031 307.301 195.742L306.356 192.61Z" fill="url(#paint18_linear_7518_14666)"/>
<path d="M294.809 181.708C294.809 181.708 292.837 181.923 291.871 183.44C291.409 184.166 291.547 185.125 292.131 185.758C294.724 188.568 303.311 197.684 307.66 200.021C308.016 200.213 308.449 199.944 308.443 199.539C308.428 198.413 308.103 196.105 306.275 192.446L306.404 192.941C306.568 193.569 305.826 194.033 305.338 193.607C302.6 191.216 297.078 186.083 294.809 181.708Z" fill="url(#paint19_linear_7518_14666)"/>
<path d="M232.456 121.215C232.456 121.215 224.656 132.816 224.016 138.108C223.376 143.4 226.173 145.23 234.336 145.905C258.63 147.913 270.605 140.632 270.605 140.632C272.267 130.036 273.45 127.341 287.329 121.58C287.329 121.58 269.774 122.973 266.241 121.602C262.708 120.231 232.456 121.215 232.456 121.215Z" fill="url(#paint20_linear_7518_14666)"/>
<path d="M259.786 57.3813C259.786 57.3813 251.617 58.5408 249.634 61.2323C248.042 63.3919 241.968 61.7436 239.815 66.3117C238.704 68.6701 236.238 70.0419 233.666 69.6133C227.26 68.5457 216.822 68.6269 211.841 78.7221C208.04 86.4276 211.154 90.845 215.13 93.3255C218.05 95.1473 219.147 98.9292 217.452 101.925C215.826 104.798 215.577 108.655 219.982 113.215C229.853 123.435 248.745 106.124 248.745 106.124L263.356 69.8659L259.786 57.3813Z" fill="url(#paint21_linear_7518_14666)"/>
<path d="M220.093 100.235C220.121 100.238 220.15 100.233 220.176 100.218C220.782 99.876 221.941 98.5832 222.003 97.0089C222.04 96.1059 221.71 94.7783 219.938 93.5806C219.388 93.2095 218.801 92.9099 218.234 92.6198C217.223 92.1032 216.268 91.6153 215.493 90.7541C214.35 89.4821 213.885 87.8043 213.58 86.3309C213.098 83.9964 213.678 80.2595 214.847 78.171C218.359 71.8926 228.834 72.1206 235.093 72.2567L235.171 72.2584C239.502 72.3524 240.649 70.2899 242.101 67.6785L242.295 67.3303C243.809 64.6251 247.822 64.4203 247.862 64.4187C247.937 64.4155 247.994 64.3528 247.991 64.2788C247.987 64.2047 247.924 64.1487 247.851 64.1504C247.68 64.158 243.647 64.3648 242.061 67.1993L241.867 67.5481C240.403 70.1795 239.346 72.0807 235.177 71.99L235.098 71.9884C228.779 71.8509 218.204 71.6206 214.613 78.0399C213.418 80.1757 212.825 83.9972 213.317 86.3848C213.629 87.8935 214.107 89.6136 215.294 90.9333C216.101 91.8315 217.123 92.3535 218.112 92.8584C218.672 93.1448 219.251 93.4407 219.787 93.8029C221.128 94.7087 221.784 95.7838 221.735 96.998C221.676 98.4668 220.605 99.6679 220.044 99.9845C219.98 100.021 219.957 100.103 219.993 100.167C220.015 100.206 220.053 100.229 220.093 100.235Z" fill="white"/>
<path d="M253.549 119.68C253.549 119.68 262.631 111.031 267.102 105.303C269.519 102.206 270.278 98.13 269.16 94.3644C267.119 87.4875 263.492 80.3649 263.161 79.2563C262.654 77.5571 252.47 77.6279 252.47 77.6279C252.47 77.6279 232.429 90.6343 224.556 112.666L233.399 115.419C233.399 115.419 238.631 106.64 243.801 101.059C243.801 101.059 234.855 112.877 234.54 117.715L253.549 119.68Z" fill="url(#paint22_linear_7518_14666)"/>
<path d="M270.855 123.092L264.03 115.667L256.148 117.789C256.148 117.789 246.959 119.213 241.7 117.789C236.441 116.366 236.441 116.366 236.441 116.366L224.556 112.666L222.69 117.941C222.216 119.28 222.692 120.767 223.85 121.59C224.878 122.321 226.083 123.123 226.852 123.46C228.417 124.144 262.905 123.676 262.905 123.676L270.855 123.092Z" fill="url(#paint23_linear_7518_14666)"/>
<path d="M259.469 65.3833L252.625 78.1113C253.076 80.8897 260.074 80.9681 261.155 79.309C261.265 79.1402 261.328 78.9449 261.37 78.7478L265.464 70.2433C265.64 69.414 263.367 66.6198 262.619 66.2214L259.898 64.7732C258.85 64.2156 263.222 64.1718 259.469 65.3833Z" fill="url(#paint24_linear_7518_14666)"/>
<path d="M273.321 62.3958C273.321 62.3958 274.094 66.696 270.714 72.1634C267.334 77.6309 263.969 77.3841 262.259 75.4342C260.549 73.4844 258.501 70.2368 259.433 64.7836C260.364 59.3305 272.154 56.912 273.321 62.3958Z" fill="url(#paint25_linear_7518_14666)"/>
<path d="M263.524 65.3763C263.524 65.3763 268.997 58.1877 273.199 64.4543L273.128 66.6191C273.128 66.6191 278.592 66.3637 277.999 61.3277C277.407 56.2916 272.946 52.8512 266.762 54.5719C260.578 56.2925 256.964 58.252 256.266 62.5456C255.567 66.8392 259.073 66.1378 259.073 66.1378C259.073 66.1378 260.412 63.1751 262.03 62.9728C263.647 62.7704 263.062 65.1139 263.062 65.1139L263.524 65.3763Z" fill="url(#paint26_linear_7518_14666)"/>
<path d="M262.268 65.1849C262.268 65.1849 265.103 61.506 262.523 60.7426C259.942 59.979 260.039 64.3473 260.207 65.9724L262.268 65.1849Z" fill="url(#paint27_linear_7518_14666)"/>
<path d="M276.822 63.1536C276.853 63.1536 276.884 63.1393 276.904 63.1124C278.058 61.5382 276.196 60.0963 276.177 60.0819C276.133 60.0485 276.07 60.0571 276.036 60.1012C276.002 60.1455 276.011 60.2088 276.055 60.2424C276.126 60.2964 277.778 61.5791 276.741 62.9932C276.708 63.0381 276.718 63.1011 276.763 63.1341C276.781 63.1473 276.801 63.1536 276.822 63.1536Z" fill="white"/>
<path d="M248.264 126.031C248.288 126.032 248.312 126.033 248.336 126.033L279.727 125.999C280.503 125.998 281.131 125.368 281.13 124.592C281.129 123.816 280.497 123.175 279.723 123.189L248.333 123.223C247.557 123.224 246.928 123.853 246.929 124.629C246.93 125.381 247.521 125.995 248.264 126.031Z" fill="url(#paint28_linear_7518_14666)"/>
<path d="M307.946 97.5303H281.803C279.874 97.5303 278.119 98.6432 277.297 100.388L265.211 126.014H297.699C298.942 126.014 300.058 125.255 300.515 124.099L309.887 100.385C310.429 99.0151 309.419 97.5303 307.946 97.5303Z" fill="url(#paint29_linear_7518_14666)"/>
<path d="M289.528 110.67C288.961 112.43 289.38 114.14 290.463 114.488C291.546 114.837 292.883 113.692 293.449 111.932C294.016 110.172 293.597 108.463 292.514 108.114C291.431 107.766 290.094 108.91 289.528 110.67Z" fill="url(#paint30_linear_7518_14666)"/>
<path d="M207.494 239.053C210.061 237.014 220.007 221.266 234.803 239.748C236.432 240.651 240.763 238.347 240.263 236.643C223.072 210.141 200.207 234.016 202.32 236.752C204.433 239.488 204.508 241.426 207.494 239.053Z" fill="white"/>
<path d="M251.228 229.319C254.569 229.014 257.758 226.821 256.896 223.885C256.047 220.991 225.213 183.048 188.741 223.998C188.293 224.501 188.065 225.161 188.106 225.833C188.147 226.505 188.455 227.132 188.961 227.576C190.538 228.959 191.889 229.896 193.675 229.722C227.01 193.818 247.887 229.625 251.228 229.319Z" fill="white"/>
<path d="M268.058 218.65C270.411 219.184 275.293 217.53 274.143 213.611C219.754 151.309 168.298 213.835 170.06 216.455C171.822 219.075 175.525 219.266 177.039 218.436C223.045 162.438 265.704 218.116 268.058 218.65Z" fill="white"/>
<path d="M227.699 257.374C231.301 253.772 231.301 247.933 227.699 244.331C224.098 240.729 218.258 240.729 214.657 244.331C211.055 247.933 211.055 253.772 214.657 257.374C218.258 260.976 224.098 260.976 227.699 257.374Z" fill="white"/>
<path d="M97.9468 252.773C97.8463 252.963 91.5273 257.613 91.5273 257.613C91.5273 257.613 92.9228 267.596 98.5895 271.538C104.82 275.872 113.618 267.968 113.618 267.968C113.618 267.968 120.62 269.633 124.344 255.057C125.199 251.712 120.267 251.43 114.315 252.046C106.64 252.84 97.9468 252.773 97.9468 252.773Z" fill="url(#paint31_linear_7518_14666)"/>
<path d="M86.1353 286.832C88.6073 285.133 91.3406 283.851 94.2383 283.063C95.3266 282.767 101.203 284.475 104.836 284.391C109.823 284.276 114.899 282.007 119.009 283.031C123.092 284.049 126.433 285.378 128.363 286.75C134.139 290.858 137.529 298.518 139.596 306.105C135.683 310.121 130.759 311.906 130.759 311.906L129.849 348.785L108.042 359.942L83.1519 347.446L84.0434 311.407C84.0434 311.407 76.1397 307.726 75.5598 306.387C74.9798 305.048 79.162 291.627 86.1353 286.832Z" fill="url(#paint32_linear_7518_14666)"/>
<path d="M75.9281 306.227C75.9281 306.227 65.3366 335.591 89.4891 347.659C94.5042 346.993 92.5754 338.664 92.5754 338.664C92.5754 338.664 82.081 336.342 85.2326 311.847C82.3309 309.459 75.9281 306.227 75.9281 306.227Z" fill="url(#paint33_linear_7518_14666)"/>
<path d="M139.087 306.227C139.087 306.227 146.375 336.879 125.526 347.659C120.511 346.993 122.44 338.664 122.44 338.664C122.44 338.664 130.898 334.499 129.783 311.847C132.684 309.459 139.087 306.227 139.087 306.227Z" fill="url(#paint34_linear_7518_14666)"/>
<path d="M129.733 349.721H83.8177C83.2938 349.721 82.8652 349.293 82.8652 348.769V318.379C82.8652 317.855 83.2938 317.426 83.8177 317.426H129.733C130.257 317.426 130.685 317.855 130.685 318.379V348.769C130.685 349.292 130.257 349.721 129.733 349.721Z" fill="url(#paint35_linear_7518_14666)"/>
<path d="M151.66 359.295C146.187 358.039 133.539 358.715 133.539 358.715L133.024 360.108L132.172 367.033C132.172 367.033 144.218 369.204 150.155 369.199C150.761 369.198 151.315 369.107 151.821 368.95C152.002 368.787 152.179 368.619 152.347 368.436C154.866 365.685 154.138 361.643 151.66 359.295Z" fill="url(#paint36_linear_7518_14666)"/>
<path d="M152.202 359.432C152.03 359.384 151.849 359.338 151.66 359.295C154.138 361.643 154.865 365.684 152.347 368.435C152.179 368.618 152.002 368.787 151.821 368.949C156.275 367.563 156.803 360.726 152.202 359.432Z" fill="url(#paint37_linear_7518_14666)"/>
<path d="M129.904 358.324L132.046 358.416C133.197 358.465 134.281 359.025 135.055 359.971C135.829 360.917 136.227 362.169 136.159 363.444C136.105 364.46 135.688 365.411 135 366.086C134.312 366.76 133.41 367.103 132.494 367.037L129.217 366.804L129.904 358.324Z" fill="url(#paint38_linear_7518_14666)"/>
<path d="M57.8854 358.63C63.3871 357.542 76.0141 358.605 76.0141 358.605L76.4935 360.014L77.1725 366.962C77.1725 366.962 65.0773 368.763 59.1421 368.575C58.5365 368.556 57.9848 368.448 57.483 368.275C57.3061 368.107 57.1333 367.934 56.9708 367.746C54.5213 364.918 55.3494 360.901 57.8854 358.63Z" fill="url(#paint39_linear_7518_14666)"/>
<path d="M57.3399 358.75C57.5126 358.708 57.6951 358.667 57.8856 358.63C55.3496 360.901 54.5216 364.919 56.971 367.746C57.1336 367.934 57.3063 368.108 57.4832 368.276C53.0654 366.753 52.7088 359.903 57.3399 358.75Z" fill="url(#paint40_linear_7518_14666)"/>
<path d="M79.6569 358.327L77.5136 358.353C76.3621 358.366 75.2641 358.894 74.467 359.816C73.67 360.737 73.2411 361.976 73.277 363.253C73.3056 364.271 73.6988 365.234 74.3696 365.929C75.0405 366.624 75.9334 366.995 76.8512 366.957L80.1329 366.825L79.6569 358.327Z" fill="url(#paint41_linear_7518_14666)"/>
<path d="M153.19 337.586C150.708 331.874 144.638 330.947 139.472 333.618C139.382 333.736 106.662 350.505 77.8076 357.854C78.6337 360.503 79.0584 363.32 79.151 366.09C79.1677 366.707 79.1574 367.316 79.1212 367.916C101.249 366.78 125.263 359.4 145.899 352.915C152.298 350.852 155.941 343.917 153.19 337.586Z" fill="url(#paint42_linear_7518_14666)"/>
<path d="M130.061 366.524C129.975 363.332 130.596 360.359 131.924 357.608C131.962 357.482 132.007 357.361 132.047 357.237C130.399 356.726 128.271 356.035 125.474 355.086C104.985 348.074 89.3535 340.994 74.4351 332.843C68.6395 329.677 62.0499 331.799 60.1948 338.657C58.5386 344.778 62.1755 350.005 67.6954 351.842C84.2092 357.337 75.6109 355.811 81.0044 357.546C95.4887 362.025 113.513 366.105 130.096 367.219C130.084 366.987 130.069 366.755 130.061 366.524Z" fill="url(#paint43_linear_7518_14666)"/>
<path d="M94.2383 283.063C94.2383 283.063 96.4418 292.612 107.14 292.414C118.037 292.216 119.009 283.032 119.009 283.032L111.891 281.508L111.296 273.577L100.588 274.37L100.39 281.905L94.2383 283.063Z" fill="url(#paint44_linear_7518_14666)"/>
<path d="M102.092 251.105C102.092 251.105 89.8214 274.874 104.377 280.64C114.644 284.708 121.081 264.856 119.161 259.479C116.193 251.166 114.237 252.152 114.237 252.152L102.092 251.105Z" fill="url(#paint45_linear_7518_14666)"/>
<path d="M122.114 248.942C128.176 250.609 122.995 263.755 113.869 260.646C104.742 257.537 101.156 257.583 99.7336 260.089C98.3113 262.595 98.0058 271.494 94.9201 267.096C91.537 262.273 89.6507 252.593 93.7985 249.473C97.5056 246.684 98.3708 242.36 102.817 242.51C108.719 242.709 113.283 240.093 115.947 241.98C119.006 244.146 117.653 247.716 122.114 248.942Z" fill="url(#paint46_linear_7518_14666)"/>
<path d="M99.1724 262.132C99.1724 262.132 96.5554 259.317 96.1365 262.71C95.7176 266.104 97.0624 270.475 98.638 268.079C100.214 265.683 99.1724 262.132 99.1724 262.132Z" fill="url(#paint47_linear_7518_14666)"/>
<path d="M109.596 326.173C109.849 327.886 108.931 329.441 107.218 329.695C105.505 329.948 103.91 328.765 103.657 327.052C103.403 325.338 104.187 323.637 105.901 323.383C107.614 323.13 109.342 324.459 109.596 326.173Z" fill="url(#paint48_linear_7518_14666)"/>
<path d="M174.497 284.719H139.825C137.173 284.719 135.023 283.06 135.023 281.013V254.173C135.023 252.242 136.944 250.635 139.437 250.479L176.378 248.171C179.289 247.989 181.734 249.838 181.558 252.088L179.289 281.235C179.137 283.192 177.037 284.719 174.497 284.719Z" fill="url(#paint49_linear_7518_14666)"/>
<path d="M144.762 279.38C143.798 279.38 142.897 279.042 142.267 278.44C141.753 277.949 141.47 277.317 141.47 276.661V259.453C141.47 259.032 141.811 258.691 142.232 258.691C142.653 258.691 142.995 259.032 142.995 259.453V276.661C142.995 276.963 143.172 277.195 143.321 277.338C143.687 277.688 144.272 277.879 144.882 277.852L171.295 276.637C172.208 276.595 172.951 276.061 172.951 275.446V258.552C172.951 258.242 172.765 258.005 172.61 257.86C172.223 257.503 171.618 257.317 170.987 257.366L149.015 259.046C148.122 259.114 147.634 259.576 147.489 259.951C147.368 260.261 147.445 260.575 147.711 260.858L156.092 269.786C156.42 270.137 156.971 270.349 157.565 270.354C158.164 270.344 158.727 270.153 159.067 269.803L168.298 260.308C168.592 260.006 169.075 260 169.377 260.293C169.679 260.587 169.685 261.069 169.392 261.371L160.161 270.866C159.526 271.519 158.58 271.877 157.552 271.879C156.535 271.87 155.597 271.488 154.98 270.83L146.599 261.902C145.933 261.192 145.734 260.256 146.067 259.399C146.476 258.345 147.561 257.627 148.899 257.525L170.871 255.845C171.915 255.765 172.953 256.1 173.646 256.742C174.181 257.238 174.476 257.881 174.476 258.552V275.446C174.476 276.888 173.109 278.08 171.365 278.161L144.952 279.375C144.888 279.378 144.825 279.38 144.762 279.38Z" fill="white"/>
<defs>
<linearGradient id="paint0_linear_7518_14666" x1="300.125" y1="399.475" x2="161.702" y2="90.2039" gradientUnits="userSpaceOnUse">
<stop stop-color="#FF7C7C"/>
<stop offset="1" stop-color="#0F5F62"/>
</linearGradient>
<linearGradient id="paint1_linear_7518_14666" x1="101.795" y1="71.529" x2="248.071" y2="335.42" gradientUnits="userSpaceOnUse">
<stop stop-color="#2E897E"/>
<stop offset="1" stop-color="#FFB184"/>
</linearGradient>
<linearGradient id="paint2_linear_7518_14666" x1="149.266" y1="270.236" x2="52.7749" y2="112.864" gradientUnits="userSpaceOnUse">
<stop stop-color="#D57937"/>
<stop offset="0.716346" stop-color="#2E897E"/>
</linearGradient>
<linearGradient id="paint3_linear_7518_14666" x1="184.465" y1="78.0813" x2="256.379" y2="379.054" gradientUnits="userSpaceOnUse">
<stop stop-color="#46AAFB"/>
<stop offset="1" stop-color="#41588E"/>
</linearGradient>
<linearGradient id="paint4_linear_7518_14666" x1="351.48" y1="324.036" x2="292.907" y2="350.39" gradientUnits="userSpaceOnUse">
<stop stop-color="#B37CFF"/>
<stop offset="1" stop-color="#F895E7"/>
</linearGradient>
<linearGradient id="paint5_linear_7518_14666" x1="297.002" y1="367.101" x2="293.581" y2="368.64" gradientUnits="userSpaceOnUse">
<stop stop-color="#B37CFF"/>
<stop offset="1" stop-color="#F895E7"/>
</linearGradient>
<linearGradient id="paint6_linear_7518_14666" x1="267.483" y1="348.951" x2="265.136" y2="350.007" gradientUnits="userSpaceOnUse">
<stop stop-color="#B37CFF"/>
<stop offset="1" stop-color="#F895E7"/>
</linearGradient>
<linearGradient id="paint7_linear_7518_14666" x1="312.951" y1="296.385" x2="252.619" y2="323.531" gradientUnits="userSpaceOnUse">
<stop stop-color="#B37CFF"/>
<stop offset="1" stop-color="#F895E7"/>
</linearGradient>
<linearGradient id="paint8_linear_7518_14666" x1="313.243" y1="280.961" x2="309.865" y2="282.48" gradientUnits="userSpaceOnUse">
<stop stop-color="#B37CFF"/>
<stop offset="1" stop-color="#F895E7"/>
</linearGradient>
<linearGradient id="paint9_linear_7518_14666" x1="321.636" y1="276.062" x2="216.787" y2="363.672" gradientUnits="userSpaceOnUse">
<stop stop-color="#CD4B3A"/>
<stop offset="1" stop-color="#FAE5B7"/>
</linearGradient>
<linearGradient id="paint10_linear_7518_14666" x1="364.371" y1="259.573" x2="362.701" y2="260.324" gradientUnits="userSpaceOnUse">
<stop stop-color="#B37CFF"/>
<stop offset="1" stop-color="#F895E7"/>
</linearGradient>
<linearGradient id="paint11_linear_7518_14666" x1="373.486" y1="278.025" x2="340.765" y2="292.748" gradientUnits="userSpaceOnUse">
<stop stop-color="#B37CFF"/>
<stop offset="1" stop-color="#F895E7"/>
</linearGradient>
<linearGradient id="paint12_linear_7518_14666" x1="344.768" y1="253.228" x2="307.421" y2="270.032" gradientUnits="userSpaceOnUse">
<stop stop-color="#B37CFF"/>
<stop offset="1" stop-color="#F895E7"/>
</linearGradient>
<linearGradient id="paint13_linear_7518_14666" x1="347.822" y1="249.043" x2="345.268" y2="250.193" gradientUnits="userSpaceOnUse">
<stop stop-color="#B37CFF"/>
<stop offset="1" stop-color="#F895E7"/>
</linearGradient>
<linearGradient id="paint14_linear_7518_14666" x1="353.555" y1="245.881" x2="283.395" y2="304.506" gradientUnits="userSpaceOnUse">
<stop stop-color="#CD4B3A"/>
<stop offset="1" stop-color="#FAE5B7"/>
</linearGradient>
<linearGradient id="paint15_linear_7518_14666" x1="327.621" y1="56.7788" x2="327.621" y2="100.806" gradientUnits="userSpaceOnUse">
<stop offset="0.125" stop-color="#FFB744"/>
<stop offset="1" stop-color="#FFED50"/>
</linearGradient>
<linearGradient id="paint16_linear_7518_14666" x1="325.726" y1="134.217" x2="277.192" y2="161.919" gradientUnits="userSpaceOnUse">
<stop stop-color="#F9B776"/>
<stop offset="1" stop-color="#F47960"/>
</linearGradient>
<linearGradient id="paint17_linear_7518_14666" x1="319.381" y1="161.916" x2="297.52" y2="214.827" gradientUnits="userSpaceOnUse">
<stop stop-color="#4E4262"/>
<stop offset="1" stop-color="#4C246D"/>
</linearGradient>
<linearGradient id="paint18_linear_7518_14666" x1="321.031" y1="141.126" x2="487.089" y2="37.1707" gradientUnits="userSpaceOnUse">
<stop stop-color="#F9B776"/>
<stop offset="1" stop-color="#F47960"/>
</linearGradient>
<linearGradient id="paint19_linear_7518_14666" x1="310.903" y1="175.72" x2="278.787" y2="223.106" gradientUnits="userSpaceOnUse">
<stop stop-color="#574874"/>
<stop offset="1" stop-color="#37302E"/>
</linearGradient>
<linearGradient id="paint20_linear_7518_14666" x1="-706.483" y1="1594.53" x2="-767.683" y2="1687.82" gradientUnits="userSpaceOnUse">
<stop offset="0.211538" stop-color="#A75820"/>
<stop offset="1" stop-color="#76294B"/>
</linearGradient>
<linearGradient id="paint21_linear_7518_14666" x1="358.972" y1="-3.15882" x2="317.196" y2="27.5178" gradientUnits="userSpaceOnUse">
<stop stop-color="#2B3582"/>
<stop offset="1" stop-color="#150E42"/>
</linearGradient>
<linearGradient id="paint22_linear_7518_14666" x1="266.039" y1="75.655" x2="198.698" y2="163.365" gradientUnits="userSpaceOnUse">
<stop stop-color="#3970D5"/>
<stop offset="0.783654" stop-color="#A4F1F4"/>
</linearGradient>
<linearGradient id="paint23_linear_7518_14666" x1="240.721" y1="118.249" x2="192.374" y2="118.249" gradientUnits="userSpaceOnUse">
<stop stop-color="#F9B776"/>
<stop offset="1" stop-color="#F47960"/>
</linearGradient>
<linearGradient id="paint24_linear_7518_14666" x1="260.399" y1="95.1422" x2="259.281" y2="77.7277" gradientUnits="userSpaceOnUse">
<stop stop-color="#F9B776"/>
<stop offset="1" stop-color="#F47960"/>
</linearGradient>
<linearGradient id="paint25_linear_7518_14666" x1="258.753" y1="80.4072" x2="279.79" y2="40.1467" gradientUnits="userSpaceOnUse">
<stop stop-color="#F9B776"/>
<stop offset="1" stop-color="#F47960"/>
</linearGradient>
<linearGradient id="paint26_linear_7518_14666" x1="285.038" y1="57.5745" x2="255.579" y2="63.485" gradientUnits="userSpaceOnUse">
<stop stop-color="#2B3582"/>
<stop offset="1" stop-color="#150E42"/>
</linearGradient>
<linearGradient id="paint27_linear_7518_14666" x1="253.938" y1="77.891" x2="274.975" y2="37.6307" gradientUnits="userSpaceOnUse">
<stop stop-color="#F9B776"/>
<stop offset="1" stop-color="#F47960"/>
</linearGradient>
<linearGradient id="paint28_linear_7518_14666" x1="242.938" y1="117.691" x2="267.857" y2="125.864" gradientUnits="userSpaceOnUse">
<stop stop-color="#2B3582"/>
<stop offset="1" stop-color="#150E42"/>
</linearGradient>
<linearGradient id="paint29_linear_7518_14666" x1="308.58" y1="113.62" x2="81.1078" y2="94.4813" gradientUnits="userSpaceOnUse">
<stop stop-color="#2B3582"/>
<stop offset="1" stop-color="#150E42"/>
</linearGradient>
<linearGradient id="paint30_linear_7518_14666" x1="288.018" y1="106.075" x2="296.161" y2="118.337" gradientUnits="userSpaceOnUse">
<stop stop-color="#53D8FF"/>
<stop offset="1" stop-color="#3840F7"/>
</linearGradient>
<linearGradient id="paint31_linear_7518_14666" x1="135.692" y1="218.69" x2="109.785" y2="255.506" gradientUnits="userSpaceOnUse">
<stop stop-color="#2B3582"/>
<stop offset="1" stop-color="#150E42"/>
</linearGradient>
<linearGradient id="paint32_linear_7518_14666" x1="106.712" y1="280.695" x2="125.121" y2="359.984" gradientUnits="userSpaceOnUse">
<stop stop-color="#42649E"/>
<stop offset="1" stop-color="#ADD95B"/>
</linearGradient>
<linearGradient id="paint33_linear_7518_14666" x1="70.5165" y1="298.331" x2="111.956" y2="398.432" gradientUnits="userSpaceOnUse">
<stop stop-color="#F19479"/>
<stop offset="1" stop-color="#DD5229"/>
</linearGradient>
<linearGradient id="paint34_linear_7518_14666" x1="143.979" y1="298.116" x2="102.54" y2="398.217" gradientUnits="userSpaceOnUse">
<stop stop-color="#F39E85"/>
<stop offset="1" stop-color="#E4542C"/>
</linearGradient>
<linearGradient id="paint35_linear_7518_14666" x1="107.326" y1="311.254" x2="105.171" y2="398.55" gradientUnits="userSpaceOnUse">
<stop stop-color="#2B3582"/>
<stop offset="1" stop-color="#150E42"/>
</linearGradient>
<linearGradient id="paint36_linear_7518_14666" x1="142.996" y1="332.549" x2="148.815" y2="387.004" gradientUnits="userSpaceOnUse">
<stop stop-color="#53D8FF"/>
<stop offset="1" stop-color="#42639D"/>
</linearGradient>
<linearGradient id="paint37_linear_7518_14666" x1="160.464" y1="353.933" x2="122.401" y2="401.326" gradientUnits="userSpaceOnUse">
<stop stop-color="#3A6C93"/>
<stop offset="1" stop-color="#4C246D"/>
</linearGradient>
<linearGradient id="paint38_linear_7518_14666" x1="133.999" y1="354.032" x2="150.011" y2="239.66" gradientUnits="userSpaceOnUse">
<stop stop-color="#FDA88E"/>
<stop offset="1" stop-color="#A64C0D"/>
</linearGradient>
<linearGradient id="paint39_linear_7518_14666" x1="50.7799" y1="123.547" x2="56.4512" y2="211.745" gradientUnits="userSpaceOnUse">
<stop stop-color="#53D8FF"/>
<stop offset="1" stop-color="#4995C7"/>
</linearGradient>
<linearGradient id="paint40_linear_7518_14666" x1="56.0098" y1="358.95" x2="53.8754" y2="428.331" gradientUnits="userSpaceOnUse">
<stop stop-color="#486791"/>
<stop offset="1" stop-color="#4C246D"/>
</linearGradient>
<linearGradient id="paint41_linear_7518_14666" x1="103.806" y1="360.401" x2="234.762" y2="348.964" gradientUnits="userSpaceOnUse">
<stop stop-color="#F59679"/>
<stop offset="1" stop-color="#CF8825"/>
</linearGradient>
<linearGradient id="paint42_linear_7518_14666" x1="124.578" y1="296.942" x2="109.651" y2="389.489" gradientUnits="userSpaceOnUse">
<stop stop-color="#CB236D"/>
<stop offset="1" stop-color="#4C246D"/>
</linearGradient>
<linearGradient id="paint43_linear_7518_14666" x1="77.8438" y1="345.168" x2="136.059" y2="366.065" gradientUnits="userSpaceOnUse">
<stop stop-color="#CB236D"/>
<stop offset="1" stop-color="#4C246D"/>
</linearGradient>
<linearGradient id="paint44_linear_7518_14666" x1="115.56" y1="303.035" x2="106.343" y2="258.623" gradientUnits="userSpaceOnUse">
<stop stop-color="#FF9D80"/>
<stop offset="1" stop-color="#D05733"/>
</linearGradient>
<linearGradient id="paint45_linear_7518_14666" x1="105.296" y1="279.966" x2="113.704" y2="239.04" gradientUnits="userSpaceOnUse">
<stop stop-color="#F68A69"/>
<stop offset="1" stop-color="#D4431B"/>
</linearGradient>
<linearGradient id="paint46_linear_7518_14666" x1="136.751" y1="213.087" x2="107.6" y2="254.513" gradientUnits="userSpaceOnUse">
<stop stop-color="#2B3582"/>
<stop offset="1" stop-color="#150E42"/>
</linearGradient>
<linearGradient id="paint47_linear_7518_14666" x1="99.7235" y1="285.402" x2="93.6971" y2="220.208" gradientUnits="userSpaceOnUse">
<stop stop-color="#C4421B"/>
<stop offset="1" stop-color="#5C0E16"/>
</linearGradient>
<linearGradient id="paint48_linear_7518_14666" x1="107.083" y1="304.593" x2="105.69" y2="371.236" gradientUnits="userSpaceOnUse">
<stop stop-color="#53D8FF"/>
<stop offset="1" stop-color="#3840F7"/>
</linearGradient>
<linearGradient id="paint49_linear_7518_14666" x1="130.671" y1="288.166" x2="205.78" y2="229.833" gradientUnits="userSpaceOnUse">
<stop stop-color="#FDF53F"/>
<stop offset="1" stop-color="#D93C65"/>
</linearGradient>
</defs>
</svg>
