<svg width="512" height="512" viewBox="0 0 512 512" fill="none" xmlns="http://www.w3.org/2000/svg">
<g clip-path="url(#clip0_7773_14642)">
<path d="M447.059 83.3753C447.059 81.5085 445.546 79.9961 443.679 79.9961H377.369C374.202 79.9961 371.635 82.5633 371.635 85.7305C371.635 88.8977 374.202 91.4649 377.369 91.4649H389.99C391.857 91.4649 393.369 92.9773 393.369 94.8441C393.369 96.7098 394.882 98.2233 396.748 98.2233H463.058C466.225 98.2233 468.792 95.6561 468.792 92.4889C468.792 89.3217 466.225 86.7545 463.058 86.7545H450.438C448.571 86.7545 447.059 85.241 447.059 83.3753Z" stroke="white" stroke-width="2" stroke-miterlimit="10"/>
<path d="M70.0253 238.623C70.0253 237.045 71.3043 235.766 72.8822 235.766H128.939C131.616 235.766 133.787 237.935 133.787 240.613C133.787 243.291 131.617 245.461 128.939 245.461H118.269C116.691 245.461 115.412 246.74 115.412 248.318C115.412 249.896 114.133 251.175 112.555 251.175H56.4992C53.8225 251.175 51.6516 249.005 51.6516 246.327C51.6516 243.649 53.8225 241.48 56.4992 241.48H67.1683C68.7463 241.479 70.0253 240.2 70.0253 238.623Z" stroke="white" stroke-width="2" stroke-miterlimit="10"/>
<path d="M120.703 76.1396C120.703 75.0459 119.816 74.1602 118.724 74.1602H79.8792C78.0237 74.1602 76.5205 75.6644 76.5205 77.5189C76.5205 79.3744 78.0248 80.8776 79.8792 80.8776H87.2725C88.3662 80.8776 89.2519 81.7644 89.2519 82.857C89.2519 83.9506 90.1377 84.8364 91.2313 84.8364H130.076C131.931 84.8364 133.435 83.3321 133.435 81.4777C133.435 79.6222 131.93 78.1189 130.076 78.1189H122.683C121.59 78.1189 120.703 77.2332 120.703 76.1396Z" stroke="white" stroke-width="2" stroke-miterlimit="10"/>
<path d="M87.8716 227.268H33.8064C31.1296 227.268 28.9587 225.099 28.9587 222.421C28.9587 219.744 31.1286 217.573 33.8064 217.573H87.8727C90.5504 217.573 92.7203 219.744 92.7203 222.421C92.7193 225.099 90.5494 227.268 87.8716 227.268Z" stroke="white" stroke-width="2" stroke-miterlimit="10"/>
<path d="M105.884 211.656H81.2751C78.5984 211.656 76.4275 209.485 76.4275 206.808C76.4275 204.13 78.5974 201.96 81.2751 201.96H105.884C108.561 201.96 110.732 204.13 110.732 206.808C110.732 209.486 108.561 211.656 105.884 211.656Z" stroke="white" stroke-width="2" stroke-miterlimit="10"/>
<path d="M369.811 293.769H416.068C418.358 293.769 420.215 291.913 420.215 289.622C420.215 287.331 418.358 285.475 416.068 285.475H369.811C367.521 285.475 365.664 287.331 365.664 289.622C365.664 291.911 367.521 293.769 369.811 293.769Z" stroke="white" stroke-width="2" stroke-miterlimit="10"/>
<path d="M54.7175 98.6685H108.028C110.668 98.6685 112.808 96.5283 112.808 93.8884C112.808 91.2486 110.668 89.1084 108.028 89.1084H54.7175C52.0777 89.1084 49.9375 91.2486 49.9375 93.8884C49.9375 96.5283 52.0777 98.6685 54.7175 98.6685Z" stroke="white" stroke-width="2" stroke-miterlimit="10"/>
<path d="M389.945 258.994C389.945 257.022 388.347 255.423 386.374 255.423H375.489C373.199 255.423 371.342 253.567 371.342 251.276C371.342 248.985 373.199 247.129 375.489 247.129H422.322C424.294 247.129 425.893 248.727 425.893 250.7C425.893 252.672 427.491 254.27 429.463 254.27H462.302C464.593 254.27 466.449 256.127 466.449 258.417C466.449 260.708 464.593 262.565 462.302 262.565H460.755C459.471 262.565 458.429 263.605 458.429 264.89C458.429 266.174 459.471 267.216 460.755 267.216H471.931C474.221 267.216 476.078 269.072 476.078 271.363C476.078 273.654 474.221 275.51 471.931 275.51H375.49C373.2 275.51 371.343 273.654 371.343 271.363C371.343 269.072 373.2 267.216 375.49 267.216H401.554C402.838 267.216 403.88 266.174 403.88 264.89C403.88 263.606 402.838 262.565 401.554 262.565H393.517C391.544 262.565 389.945 260.966 389.945 258.994Z" stroke="white" stroke-width="2" stroke-miterlimit="10"/>
<path d="M426.772 217.274C418.716 208.558 404.086 208.996 394.802 218.88C358.347 257.648 329.716 303.092 310.485 352.711C305.577 365.352 311.498 378.739 322.838 382.242C334.198 385.756 346.285 379.35 350.6 368.259C367.831 323.803 393.483 283.087 426.145 248.353C434.286 239.67 434.848 226.004 426.772 217.274Z" fill="url(#paint0_linear_7773_14642)" fill-opacity="0.7"/>
<path d="M347.855 309.081C349.821 307.95 353.467 310.286 358.124 315.665C361.966 320.103 365.801 323.951 369.502 327.146C369.917 326.373 370.335 325.603 370.754 324.833C367.383 321.879 363.796 318.275 360.076 313.977C354.279 307.279 349.858 304.947 346.566 306.844C337.621 311.993 344.2 349.531 349.743 370.193C350.054 369.565 350.342 368.92 350.6 368.258C350.85 367.612 351.108 366.97 351.362 366.326C345.792 344.349 341.569 312.7 347.855 309.081Z" fill="#395384"/>
<path d="M410.795 265.742C411.368 265.051 411.946 264.362 412.524 263.675C409.553 259.202 406.561 254.782 403.667 250.509C397.862 241.936 391.952 233.209 387.918 226.386C387.316 227.06 386.72 227.738 386.122 228.415C389.76 234.505 394.993 242.303 401.53 251.957C404.503 256.348 407.648 260.992 410.795 265.742Z" fill="#395384"/>
<path d="M394.802 218.879C394.69 218.999 394.579 219.121 394.466 219.24C401.017 223.878 411.169 232.349 426.893 247.514C427.461 246.848 427.981 246.155 428.464 245.443C413.319 230.841 403.199 222.281 396.324 217.392C395.805 217.864 395.294 218.356 394.802 218.879Z" fill="#395384"/>
<path d="M385.522 300.084C386.059 299.258 386.599 298.432 387.143 297.61C383.87 291.347 380.193 284.661 376.583 278.102C372.54 270.755 368.158 262.79 364.32 255.287C363.74 256.066 363.159 256.845 362.586 257.628C366.081 264.368 370.117 271.706 374.322 279.347C378.171 286.342 382.102 293.484 385.522 300.084Z" fill="#395384"/>
<path d="M397.074 281.988C397.203 282.268 397.33 282.545 397.458 282.824C398.039 282.034 398.627 281.249 399.214 280.462C392.167 265.113 384.985 249.522 377.697 238.256C377.118 238.955 376.541 239.658 375.966 240.36C383.167 251.704 390.379 267.406 397.074 281.988Z" fill="#395384"/>
<path d="M310.395 406.408L307.97 405.52C308.391 404.371 350.571 290.129 396.45 247.894L398.199 249.794C352.779 291.604 310.812 405.264 310.395 406.408Z" fill="white"/>
<path opacity="0.5" d="M329.2 356.721C323.483 366.101 325.754 377.484 333.555 382.764C341.059 381.237 347.649 375.845 350.601 368.259C365.967 328.613 388.036 291.945 415.797 259.838C381.277 286.565 351.918 319.395 329.2 356.721Z" fill="url(#paint1_linear_7773_14642)" fill-opacity="0.7"/>
<path d="M440.501 266.772C435.711 259.283 424.865 257.676 416.716 263.74C384.724 287.519 357.619 317.25 336.896 351.3C331.61 359.975 334.211 370.625 342.11 374.704C350.023 378.794 359.779 375.663 364.424 368.055C382.992 337.548 407.275 310.909 435.939 289.604C443.087 284.278 445.304 274.274 440.501 266.772Z" fill="url(#paint2_linear_7773_14642)" fill-opacity="0.7"/>
<path d="M421.62 277.256C421.267 277.258 419.638 277.008 415.236 273.169C413.36 271.534 411.557 270.149 409.851 269.007C409.138 269.569 408.435 270.141 407.728 270.708C409.456 271.807 411.398 273.246 413.54 275.115C419.262 280.105 421.456 280.103 422.608 279.665C423.118 279.472 424 278.932 424.186 277.49C424.561 274.585 421.757 268.896 417.306 263.344C417.11 263.479 416.909 263.597 416.717 263.74C416.217 264.112 415.73 264.497 415.232 264.872C419.763 270.55 422.099 275.949 421.62 277.256Z" fill="#395384"/>
<path d="M401.099 276.173C400.431 276.74 399.755 277.296 399.093 277.867C400.796 280.923 403.256 284.426 406.459 288.297C410.138 292.746 414.685 297.708 419.522 302.817C420.173 302.252 420.828 301.693 421.484 301.134C416.647 296.028 412.106 291.074 408.448 286.653C404.951 282.426 402.599 278.942 401.099 276.173Z" fill="#395384"/>
<path d="M409.018 312.43C409.65 311.822 410.28 311.21 410.918 310.608C400.139 302.405 391.312 296.877 386.691 299.245C385.152 300.035 384.67 301.191 384.534 302.02C383.92 305.835 388.921 311.134 397.813 320.172C398.393 320.763 398.983 321.362 399.58 321.97C400.171 321.343 400.757 320.712 401.354 320.091C400.78 319.506 400.212 318.929 399.653 318.36C393.259 311.861 386.647 305.14 387.083 302.431C387.123 302.184 387.248 301.859 387.869 301.542C391.149 299.857 399.824 305.492 409.018 312.43Z" fill="#395384"/>
<path d="M365.578 366.21C366.039 365.466 366.502 364.724 366.969 363.984C359.622 359.608 350.347 352.801 341.055 344.663C340.588 345.389 340.136 346.125 339.674 346.856C345.768 352.179 352.1 357.18 358.078 361.333C360.784 363.213 363.281 364.836 365.578 366.21Z" fill="#395384"/>
<path d="M387.288 319.651C382.517 314.193 377.66 308.643 372.901 303.324C372.317 303.963 371.745 304.612 371.166 305.256C375.856 310.502 380.641 315.971 385.344 321.35C387.938 324.318 390.35 327.068 392.611 329.632C393.18 328.982 393.76 328.34 394.335 327.695C392.042 325.09 389.685 322.395 387.288 319.651Z" fill="#395384"/>
<path d="M359.504 319.014C358.912 319.754 358.315 320.491 357.73 321.238C362.569 330.944 368.354 341.282 374.46 351.061C374.652 351.368 374.832 351.662 375.014 351.959C375.553 351.198 376.102 350.445 376.647 349.691C370.358 339.618 364.41 328.951 359.504 319.014Z" fill="#395384"/>
<path d="M316.29 408.677L314.095 407.319C316.542 403.366 374.479 310.203 413.93 285.078L415.317 287.255C399.239 297.494 377.03 321.715 351.09 357.3C331.444 384.249 316.439 408.435 316.29 408.677Z" fill="white"/>
<path d="M92.5195 420.745C92.5195 420.745 57.5406 329.521 107.672 328.875C157.803 328.229 110.603 283.921 180.825 294.256C239.258 302.855 245.437 388.144 278.556 384.549C311.675 380.954 354.004 396.359 361.8 420.745H92.5195Z" fill="url(#paint3_linear_7773_14642)" fill-opacity="0.4"/>
<path d="M341.654 418.005C324.206 386.519 289.348 402.281 251.384 381.864C213.42 361.448 197.312 396.207 151.778 371.298C111.622 349.331 105.376 383.6 111.437 420.746H343.093C342.646 419.845 342.169 418.933 341.654 418.005Z" fill="url(#paint4_linear_7773_14642)" fill-opacity="0.6"/>
<path d="M159.301 388.471C159.301 386.026 157.319 384.045 154.875 384.045C152.431 384.045 150.449 386.026 150.449 388.471C150.449 390.915 152.431 392.896 154.875 392.896C157.319 392.896 159.301 390.915 159.301 388.471Z" fill="#98CBE8"/>
<path d="M342.659 409.291C342.659 406.847 340.677 404.865 338.233 404.865C335.789 404.865 333.807 406.847 333.807 409.291C333.807 411.735 335.789 413.717 338.233 413.717C340.678 413.717 342.659 411.735 342.659 409.291Z" fill="#C29275"/>
<path d="M110.965 345.802C110.965 343.357 108.984 341.376 106.539 341.376C104.095 341.376 102.114 343.357 102.114 345.802C102.114 348.246 104.095 350.227 106.539 350.227C108.984 350.227 110.965 348.246 110.965 345.802Z" fill="#B1D5D5"/>
<path d="M244.328 396.227C246.773 396.227 248.754 394.245 248.754 391.801C248.754 389.357 246.773 387.375 244.328 387.375C241.884 387.375 239.903 389.357 239.903 391.801C239.903 394.245 241.884 396.227 244.328 396.227Z" fill="#7CB5D5"/>
<path d="M109.446 406.613C113.496 406.613 116.779 403.33 116.779 399.28C116.779 395.23 113.496 391.947 109.446 391.947C105.397 391.947 102.114 395.23 102.114 399.28C102.114 403.33 105.397 406.613 109.446 406.613Z" fill="#B1D4D5"/>
<path d="M180.236 406.612C180.236 402.562 176.953 399.279 172.903 399.279C168.853 399.279 165.57 402.562 165.57 406.612C165.57 410.662 168.853 413.945 172.903 413.945C176.953 413.945 180.236 410.662 180.236 406.612Z" fill="#97CBE8"/>
<path d="M315.716 410.224C315.716 407.929 313.856 406.069 311.562 406.069C309.268 406.069 307.408 407.929 307.408 410.224C307.408 412.518 309.268 414.378 311.562 414.378C313.856 414.378 315.716 412.518 315.716 410.224Z" fill="#7CB5D5"/>
<path d="M255.946 179.907C286.365 179.907 314.176 191.089 335.622 209.543L361.667 180.368C333.318 155.676 296.416 139.546 255.946 139.546C215.533 139.546 178.682 155.638 150.334 180.239L176.347 209.442C197.803 191.067 225.563 179.907 255.946 179.907Z" fill="url(#paint5_linear_7773_14642)"/>
<path d="M255.892 100.361C306.657 100.361 352.923 119.301 388.402 150.357L413.048 122.79C371.025 85.828 316.145 59.9751 255.892 59.9751C195.722 59.9751 140.926 85.7553 98.9524 122.626L123.543 150.221C158.997 119.199 205.179 100.361 255.892 100.361Z" fill="url(#paint6_linear_7773_14642)"/>
<path d="M309.572 238.722C295.061 226.504 276.369 218.058 255.97 218.058C235.578 218.058 216.913 226.479 202.427 238.646L255.97 298.753L309.572 238.722Z" fill="url(#paint7_linear_7773_14642)"/>
<path d="M308.944 456.993C328.987 456.993 345.236 455.19 345.236 452.967C345.236 450.744 328.987 448.942 308.944 448.942C288.9 448.942 272.651 450.744 272.651 452.967C272.651 455.19 288.9 456.993 308.944 456.993Z" fill="white"/>
<path d="M433.512 423.332H78.4888C77.7351 423.332 77.1238 422.721 77.1238 421.967C77.1238 421.213 77.7351 420.602 78.4888 420.602H433.512C434.266 420.602 434.877 421.213 434.877 421.967C434.876 422.721 434.266 423.332 433.512 423.332Z" fill="white"/>
<path d="M290.277 270.123C290.265 270.621 290.245 271.336 290.212 272.206C290.146 273.944 290.027 276.295 289.816 278.746C289.604 281.198 289.302 283.74 288.87 285.864C288.654 286.926 288.406 287.873 288.127 288.648C287.845 289.432 287.544 289.998 287.239 290.333C286.543 291.095 284.777 292.418 282.453 294C280.149 295.569 277.351 297.359 274.642 299.049C271.934 300.739 269.318 302.328 267.378 303.494C266.409 304.076 265.609 304.554 265.051 304.885C264.773 305.051 264.554 305.18 264.406 305.268C264.363 305.293 264.326 305.314 264.295 305.333H231.536C232.354 304.752 233.532 303.918 234.966 302.898C237.841 300.855 241.751 298.068 245.893 295.096C254.171 289.157 263.395 282.463 267.122 279.482C274.353 273.697 282.096 269.943 290.283 269.855C290.281 269.935 290.279 270.025 290.277 270.123Z" fill="#FDFEFF" stroke="#E2ECFC"/>
<path d="M233.49 295.937C233.49 295.937 225.17 289.547 222.397 287.592C219.624 285.637 216.256 289.301 214.176 290.886C212.097 292.471 208.432 295.937 208.432 295.937H233.49Z" fill="#FFC6A8"/>
<path d="M223.957 292.025L230.312 294.477L223.404 295.937H216.496L223.957 292.025Z" fill="#B54A41"/>
<path d="M133.759 371.402H128.847V421.968H133.759V371.402Z" fill="url(#paint8_linear_7773_14642)"/>
<path d="M398.483 371.402H393.571V421.968H398.483V371.402Z" fill="url(#paint9_linear_7773_14642)"/>
<path d="M165.775 293.947H365.044C373.666 293.947 380.654 300.937 380.654 309.558V355.356H150.164V309.558C150.164 300.937 157.153 293.947 165.775 293.947Z" fill="url(#paint10_linear_7773_14642)"/>
<path opacity="0.3" d="M354.698 355.356C338.307 322.651 304.483 300.198 265.41 300.198C226.337 300.198 192.514 322.651 176.122 355.356H354.698Z" fill="url(#paint11_linear_7773_14642)"/>
<path d="M378.278 352.979H149.052C137.893 352.979 128.846 362.025 128.846 373.185H398.483C398.483 362.025 389.437 352.979 378.278 352.979Z" fill="#FFC28D"/>
<path d="M274.237 286.971L281.368 344.925C281.368 344.925 289.841 352.979 307.197 352.979C324.552 352.979 334.06 344.925 334.06 344.925L340.795 286.971C340.795 286.971 338.418 266.779 307.516 266.779C276.614 266.779 274.237 286.971 274.237 286.971Z" fill="url(#paint12_linear_7773_14642)"/>
<path d="M281.368 344.926C281.368 344.926 289.841 352.979 307.197 352.979C324.552 352.979 334.06 344.926 334.06 344.926L340.795 286.971C340.795 286.971 330.595 316.735 276.302 303.753L281.368 344.926Z" fill="#D6DCE6"/>
<path d="M316.663 269.431L315.66 245.068L297.5 246.466L298.504 270.822C298.504 270.822 305.026 274.117 309.54 273.717C314.054 273.318 316.663 269.431 316.663 269.431Z" fill="#FFC6A8"/>
<path d="M297.5 246.465L315.076 251.3C315.076 251.3 314.349 268.519 298.445 269.431L297.5 246.465Z" fill="#D78F62"/>
<path d="M315.961 243.471C315.694 245.878 315.76 256.747 310.543 257.946C305.326 259.144 299.307 259.676 296.998 259.41C294.69 259.144 294.089 254.352 294.39 249.361C294.691 244.37 295.695 235.486 296.998 231.992C298.303 228.498 304.021 228.498 307.081 228.698C310.141 228.898 316.06 230.794 315.96 234.189C315.861 237.582 315.961 243.471 315.961 243.471Z" fill="#FFC6A8"/>
<path d="M304.404 241.695C304.404 241.29 304.734 240.961 305.14 240.961C305.547 240.961 305.877 241.289 305.877 241.695C305.877 242.1 305.547 242.428 305.14 242.428C304.734 242.427 304.404 242.099 304.404 241.695Z" fill="#6B201E"/>
<path d="M298.029 240.962C298.029 240.557 298.358 240.229 298.765 240.229C299.171 240.229 299.501 240.556 299.501 240.962C299.501 241.366 299.171 241.695 298.765 241.695C298.358 241.695 298.029 241.367 298.029 240.962Z" fill="#6B201E"/>
<path d="M300.049 247.271C300.197 247.271 300.342 247.265 300.48 247.254C300.695 247.236 300.854 247.049 300.836 246.835C300.819 246.622 300.633 246.459 300.415 246.481C299.506 246.554 298.822 246.336 298.695 246.156C298.685 246.141 298.674 246.125 298.704 246.062C299.045 245.334 300.737 241.222 300.809 241.047C300.891 240.849 300.794 240.622 300.596 240.541C300.396 240.46 300.168 240.556 300.087 240.753C300.069 240.796 298.331 245.022 297.998 245.733C297.855 246.036 297.877 246.343 298.056 246.599C298.405 247.1 299.272 247.271 300.049 247.271Z" fill="#6B201E"/>
<path d="M299.56 248.592C299.584 248.598 302.064 249.204 304.007 249.165C304.222 249.159 304.4 249.331 304.404 249.545C304.406 249.634 304.372 249.713 304.322 249.779C304.117 250.523 303.356 252.967 302.211 252.902C300.919 252.83 300.678 250.551 300.632 249.608C299.916 249.478 299.417 249.356 299.371 249.345C299.359 249.342 299.346 249.338 299.333 249.334C299.147 249.267 299.037 249.071 299.086 248.875C299.139 248.667 299.35 248.54 299.56 248.592Z" fill="#6B201E"/>
<path d="M315.66 245.069C315.66 245.069 309.399 237.379 312.074 232.352L301.74 234.125C301.74 234.125 297.068 231.316 295.582 230.134C294.096 228.951 299.501 224.369 299.501 224.369C299.501 224.369 299.577 226.142 301.74 225.403C303.902 224.664 320.691 221.711 320.691 234.717C320.69 247.725 315.66 245.069 315.66 245.069Z" fill="#104575"/>
<path d="M314.556 246.765C314.068 244.285 314.255 242.273 317.264 241.774C320.274 241.276 322.281 243.172 322.883 245.967C323.485 248.762 323.284 251.657 320.275 252.355C317.264 253.054 315.459 251.357 314.556 246.765Z" fill="#FFC6A8"/>
<path d="M316.457 249.344C316.583 249.344 316.702 249.276 316.766 249.163C317.064 248.628 318.043 247.207 318.978 247.057C319.289 247.009 319.573 247.106 319.849 247.359L320.328 246.842C319.889 246.438 319.398 246.275 318.864 246.362C318.129 246.48 317.461 247.075 316.972 247.65C317.384 245.319 318.322 244.749 318.9 244.627C319.753 244.449 320.66 245.058 321.013 245.725L321.639 245.398C321.163 244.497 319.991 243.682 318.754 243.939C317.882 244.122 316.378 245.018 316.103 248.968C316.092 249.132 316.198 249.282 316.356 249.33C316.39 249.339 316.424 249.344 316.457 249.344Z" fill="#B54A41"/>
<path d="M324.304 269.867C332.883 263.024 359.313 306.462 362.709 313.905C366.104 321.349 332.235 342.148 332.235 342.148L322.093 332.806L344.746 309.574C344.746 309.574 325.652 290.352 322.093 285.301C318.532 280.249 315.724 276.711 324.304 269.867Z" fill="url(#paint13_linear_7773_14642)"/>
<path d="M341.372 306.151C343.402 308.222 344.745 309.574 344.745 309.574L322.092 332.806L332.235 342.148C332.235 342.148 340.13 337.3 347.913 331.447C348.922 326.161 350.031 319.765 350.651 314.31C351.501 306.867 345.718 305.879 341.372 306.151Z" fill="#DEEAFC"/>
<path d="M218.386 292.025C218.386 292.025 214.597 297.448 213.78 298.563C212.963 299.677 215.043 301.46 216.825 299.305C218.608 297.151 223.957 292.025 223.957 292.025H218.386Z" fill="#FFC6A8"/>
<path d="M342.129 311.479H272.904C269.717 311.479 267.296 314.347 267.832 317.488L272.752 346.394H342.282L347.202 317.488C347.736 314.346 345.315 311.479 342.129 311.479Z" fill="#93D5F5"/>
<path d="M311.79 327.006C311.452 327.1 311.103 327.166 310.736 327.166C308.627 327.166 306.961 325.49 307.015 323.424C307.032 322.793 307.221 322.209 307.516 321.688C305.253 321.822 303.41 323.642 303.35 325.888C303.33 326.656 303.537 327.367 303.886 327.988C302.92 328.916 302.304 330.195 302.267 331.608C302.192 334.448 304.482 336.751 307.381 336.752C310.28 336.753 312.69 334.451 312.764 331.612C312.801 330.198 312.252 328.919 311.335 327.99C311.525 327.682 311.68 327.353 311.79 327.006Z" fill="#5A98B5"/>
<path d="M312.489 316.735C310.118 316.734 308.148 318.616 308.086 320.937C310.457 320.938 312.427 319.057 312.489 316.735Z" fill="#5A98B5"/>
<path opacity="0.5" d="M272.751 346.393H342.281L345.723 326.173C334.138 330.989 314.895 338.708 308.905 339.418C301.504 340.296 279.491 330.585 269.238 325.751L272.751 346.393Z" fill="#93D5F5"/>
<path d="M266.301 309.436C266.075 309.678 265.742 309.813 265.388 309.77C264.187 309.627 262.978 310.07 262.155 310.954C261.333 311.837 260.979 313.073 261.206 314.26C261.318 314.842 260.939 315.402 260.355 315.515C259.775 315.625 259.213 315.245 259.102 314.664C258.745 312.809 259.3 310.876 260.586 309.494C261.874 308.11 263.764 307.418 265.643 307.644C266.231 307.713 266.651 308.246 266.581 308.835C266.552 309.067 266.45 309.276 266.301 309.436Z" fill="#51AAAC"/>
<path d="M266.351 305.949C266.125 306.192 265.792 306.327 265.438 306.284C263.224 306.019 260.996 306.835 259.478 308.465C257.963 310.093 257.308 312.373 257.728 314.56C257.842 315.141 257.461 315.703 256.878 315.815C256.297 315.926 255.735 315.545 255.624 314.964C255.075 312.107 255.929 309.131 257.909 307.003C259.891 304.874 262.801 303.809 265.693 304.154C266.281 304.223 266.7 304.758 266.63 305.345C266.603 305.581 266.501 305.788 266.351 305.949Z" fill="#51AAAC"/>
<path d="M266.403 302.461C266.179 302.704 265.845 302.838 265.491 302.796C262.263 302.41 259.015 303.599 256.803 305.975C254.595 308.349 253.641 311.67 254.254 314.858C254.365 315.44 253.985 316.001 253.402 316.114C252.821 316.225 252.26 315.845 252.148 315.264C251.407 311.406 252.561 307.388 255.234 304.516C257.911 301.64 261.84 300.201 265.746 300.667C266.334 300.737 266.754 301.271 266.683 301.858C266.654 302.093 266.553 302.301 266.403 302.461Z" fill="#51AAAC"/>
<path d="M318.956 436.127C318.956 436.127 317.916 442.813 316.133 445.338C314.35 447.865 312.946 451.132 312.946 451.132C312.946 451.132 318.956 454.252 324.602 453.807C330.247 453.361 335.893 450.538 335.893 450.538C335.893 450.538 332.95 447.836 332.328 445.635C331.705 443.435 332.031 436.126 332.031 436.126H318.956V436.127Z" fill="#232943"/>
<path d="M299.196 434.939L304.505 451.132C304.505 451.132 298.602 454.34 294.443 453.85C290.283 453.361 284.488 450.39 284.488 450.39L289.094 444.99L285.232 434.94H299.196V434.939Z" fill="#232943"/>
<path d="M256.111 328.118C245.05 333.995 244.226 348.918 249.574 360.209C254.922 371.501 281.131 435.162 283.804 440.557C286.479 445.953 309.687 446.25 305.066 431.69C300.444 417.129 281.07 355.356 281.07 355.356H327.721C327.721 355.356 318.044 422.776 316.745 431.69C315.447 440.604 330.006 451.802 336.246 437.883C342.487 423.964 356.543 369.42 359.515 359.02C362.487 348.621 366.349 337.459 355.057 330.56C343.766 323.662 320.57 344.164 309.14 344.164C297.71 344.164 265.62 323.067 256.111 328.118Z" fill="#66ACD3"/>
<path d="M299.303 443.02C299.052 442.203 274.109 361.168 271.82 353.141C269.512 345.049 269.227 340.3 270.974 339.025C271.831 338.401 273.039 338.599 274.566 339.617L275.311 340.115C281.253 344.098 293.618 352.384 307.196 352.384C318.025 352.384 322.75 349.376 327.319 346.466C328.749 345.556 330.099 344.696 331.618 343.937C334.399 342.546 336.505 341.837 337.751 342.895C339.254 344.173 338.892 347.716 336.46 355.532C332.51 368.226 321.552 440.73 321.441 441.461L320.266 441.284C320.376 440.552 331.349 367.959 335.325 355.178C336.103 352.678 338.471 345.068 336.98 343.802C336.173 343.114 333.836 344.157 332.148 345.001C330.685 345.733 329.359 346.577 327.956 347.47C323.463 350.331 318.37 353.573 307.195 353.573C293.256 353.573 280.217 344.835 274.649 341.103L273.905 340.606C273.304 340.205 272.216 339.591 271.674 339.985C270.726 340.677 270.566 344.411 272.962 352.815C275.248 360.83 300.186 441.853 300.438 442.67L299.303 443.02Z" fill="#207BAF"/>
<path d="M255.039 372.634C261.609 387.977 271.738 412.304 278.118 427.403C280.926 424.835 282.297 421.004 278.994 414.793C274.041 405.483 263.939 380.523 261.76 375.57C260.908 373.635 258.029 372.612 255.039 372.634Z" fill="#207BAF"/>
<path d="M359.814 357.98C354.862 357.148 348.918 354.753 346.739 363.082C344.56 371.41 340.257 392.209 338.646 399.143C337.261 405.096 340.424 408.127 345.55 409.618C351.458 389.312 357.655 365.527 359.515 359.02C359.614 358.674 359.715 358.327 359.814 357.98Z" fill="#207BAF"/>
<path d="M273.775 286.917L274.698 287.025C274.702 286.986 275.204 283.062 278.354 278.772C281.263 274.812 287.122 269.716 298.388 267.922L298.345 266.98C276.087 270.525 273.795 286.754 273.775 286.917Z" fill="#DEEAFC"/>
<path d="M324.765 269.046C322.268 268.116 319.522 267.415 316.562 266.961L316.6 267.887C319.238 268.291 321.502 268.899 323.764 269.688C322.067 270.922 318.175 274.155 318.179 277.846L319.108 277.844C319.103 273.833 324.696 270.158 325.004 269.959C329.881 267.614 339.817 279.562 343.239 284.373L343.996 283.834C343.479 283.108 331.381 266.233 324.765 269.046Z" fill="#DEEAFC"/>
<path d="M203.688 456.993C237.748 456.993 265.359 455.19 265.359 452.967C265.359 450.744 237.748 448.942 203.688 448.942C169.629 448.942 142.018 450.744 142.018 452.967C142.018 455.19 169.629 456.993 203.688 456.993Z" fill="white"/>
<path d="M227.704 434.609L229.718 449.938H236.53V433.215L227.704 434.609Z" fill="url(#paint14_linear_7773_14642)"/>
<path d="M162.207 434.918H173.046L171.807 448.39H164.066L162.207 434.918Z" fill="url(#paint15_linear_7773_14642)"/>
<path d="M165.893 261.973L204.304 260.146L203.704 264.441C203.704 264.441 212.375 285.499 214.232 290.764C216.091 296.028 239.316 435.383 239.316 435.383L225.381 441.576L186.052 302.841H183.238L174.904 437.86H160.039C160.039 437.86 154.465 306.866 154.155 298.196C153.846 289.525 154.465 280.235 167.471 266.919L165.893 261.973Z" fill="#2E8789"/>
<path d="M203.544 302.841H186.053L203.544 364.543V302.841Z" fill="#1B7072"/>
<path d="M164.368 387.534C165.605 378.549 164.059 341.242 164.368 326.137C164.663 311.639 160.683 303.376 154.441 305.312C155.218 324.224 157.345 374.42 158.742 407.33C161.647 403.778 163.542 393.526 164.368 387.534Z" fill="#1B7072"/>
<path d="M222.143 333.949C216.679 335.835 214.037 343.39 216.084 352.823C218.408 363.537 226.317 391.873 227.704 399.769C228.75 405.718 230.597 408.499 234.618 407.329C231.118 386.502 226.255 357.727 222.143 333.949Z" fill="#1B7072"/>
<path d="M169.483 437.924L167.629 437.797C167.707 436.667 175.421 324.763 176.009 315.606C176.557 307.067 176.888 302.841 183.239 302.841L183.117 304.81C178.962 304.81 178.475 306.19 177.863 315.727C177.274 324.886 169.56 436.795 169.483 437.924Z" fill="#1B7072"/>
<path d="M203.048 337.049L201.254 337.533L228.856 439.875L230.65 439.391L203.048 337.049Z" fill="#1B7072"/>
<path d="M189.329 260.903H187.471V302.842H189.329V260.903Z" fill="#1B7072"/>
<path d="M162.207 445.293H173.666L178.311 452.726C178.311 452.726 173.046 454.893 168.246 454.893C163.445 454.893 158.8 451.952 158.8 451.952L162.207 445.293Z" fill="#232943"/>
<path d="M227.704 445.912V453.189H257.743C257.743 453.189 256.35 447.46 252.634 446.686C248.918 445.912 243.962 448.08 241.795 445.912C239.627 443.744 238.233 440.028 238.233 440.028C238.233 440.028 231.42 445.448 227.704 445.912Z" fill="#232943"/>
<path d="M191.007 221.705C196.906 230.055 209.433 247.717 211.755 250.35C214.078 252.983 221.51 257.782 226.31 253.292C231.111 248.802 209.898 221.762 204.323 215.666C198.748 209.57 195.806 206.995 191.936 210.247C188.065 213.498 186.831 215.793 191.007 221.705Z" fill="url(#paint16_linear_7773_14642)"/>
<path d="M211.363 249.881C211.513 250.064 211.649 250.228 211.755 250.35C214.078 252.983 221.51 257.782 226.31 253.292C229.012 250.766 223.476 241.098 217.124 232.041L217 231.982C217 231.982 212.783 241.864 211.363 249.881Z" fill="#D39971"/>
<path d="M204.479 246.325L220.272 226.505C220.272 226.505 207.575 209.938 205.871 206.996C204.169 204.054 196.476 200.183 188.4 204.674C180.323 209.164 184.04 216.596 189.304 223.41C194.568 230.221 204.479 246.325 204.479 246.325Z" fill="#E26627"/>
<path d="M232.442 187.673L226.775 184.24C225.639 183.551 224.158 183.914 223.47 185.051L214.487 199.877C213.798 201.014 214.162 202.494 215.298 203.183L220.965 206.616C222.102 207.306 223.582 206.942 224.271 205.805L233.253 190.98C233.942 189.842 233.58 188.363 232.442 187.673Z" fill="#BBCFCE"/>
<path d="M224.329 205.709L230.407 195.677L224.356 192.225L214.484 202.267C214.69 202.656 214.991 202.999 215.394 203.242L220.869 206.559C222.059 207.28 223.608 206.9 224.329 205.709Z" fill="#5E7D7B"/>
<path d="M216.124 241.835C215.854 245.84 216.819 255.726 223.114 254.873C229.41 254.02 230.377 247.255 229.533 237.31C228.69 227.365 226.627 208.36 226.627 208.36C226.627 208.36 233.258 199.489 232.002 197.538C230.745 195.586 226.386 192.053 225.553 191.7C224.718 191.345 223.583 192.757 224.601 193.408C225.619 194.059 229.02 197.266 229.02 197.266C229.02 197.266 224.454 194.779 223.797 194.33C223.141 193.882 221.614 195.63 222.896 196.402C224.178 197.174 227.544 199.787 227.544 199.787C227.544 199.787 222.612 197.74 221.93 197.462C221.248 197.183 219.877 199.261 221.002 199.703C222.127 200.146 225.886 202.09 225.886 202.09C225.886 202.09 221.288 201.236 220.119 200.842C218.951 200.448 218.043 203.046 220.122 203.42C222.201 203.795 222.91 204.022 222.91 204.022C222.91 204.022 219.005 203.683 219.106 206.226C219.206 208.772 216.284 239.438 216.124 241.835Z" fill="url(#paint17_linear_7773_14642)"/>
<path d="M226.627 208.361C226.627 208.361 223.23 210.623 221.236 210.518L228.13 222.669C227.36 215.111 226.627 208.361 226.627 208.361Z" fill="#D39971"/>
<path d="M234.605 184.556C234.31 184.407 234.088 184.122 234.032 183.771C233.838 182.576 233.08 181.535 232.004 180.989C230.928 180.442 229.643 180.441 228.564 180.987C228.036 181.254 227.393 181.045 227.124 180.515C226.856 179.986 227.068 179.342 227.597 179.075C229.282 178.221 231.292 178.222 232.976 179.078C234.66 179.935 235.846 181.561 236.148 183.43C236.243 184.015 235.846 184.564 235.261 184.659C235.028 184.696 234.8 184.656 234.605 184.556Z" fill="#75ADE2"/>
<path d="M237.971 183.644C237.676 183.495 237.454 183.21 237.398 182.859C237.043 180.657 235.645 178.739 233.66 177.729C231.677 176.721 229.306 176.719 227.318 177.725C226.792 177.995 226.146 177.783 225.877 177.253C225.61 176.725 225.822 176.081 226.35 175.814C228.946 174.5 232.042 174.502 234.632 175.819C237.225 177.138 239.05 179.642 239.514 182.518C239.609 183.102 239.211 183.651 238.627 183.746C238.395 183.784 238.166 183.743 237.971 183.644Z" fill="#75ADE2"/>
<path d="M241.339 182.734C241.044 182.584 240.823 182.3 240.765 181.949C240.247 178.739 238.21 175.944 235.316 174.472C232.426 173.001 228.97 172.999 226.074 174.467C225.545 174.734 224.902 174.524 224.632 173.995C224.365 173.466 224.577 172.822 225.104 172.554C228.609 170.779 232.789 170.782 236.287 172.561C239.788 174.342 242.254 177.724 242.881 181.607C242.975 182.192 242.578 182.742 241.994 182.836C241.762 182.874 241.533 182.833 241.339 182.734Z" fill="#75ADE2"/>
<path d="M167.471 266.919C167.471 266.919 195.652 263.822 203.704 264.442C203.704 264.442 208.348 231.306 208.968 225.422L193.793 201.887C193.793 201.887 182.336 200.028 175.522 201.887C168.709 203.744 159.729 205.293 157.87 214.583C156.014 223.873 161.587 249.267 167.471 266.919Z" fill="url(#paint18_linear_7773_14642)"/>
<path d="M165.461 260.538C168.103 257.276 172.482 251.099 173.82 244.593C175.78 235.071 167.313 230.308 167.313 230.308C165.16 228.878 162.292 233.182 159.868 238.111C161.319 245.449 163.31 253.345 165.461 260.538Z" fill="#E26627"/>
<path d="M182.297 209.697C187.929 208.255 190.265 203.67 190.857 201.505C187.002 201.083 180.179 200.617 175.523 201.887C173.698 202.384 171.72 202.865 169.762 203.472C171.329 206.805 176.248 211.245 182.297 209.697Z" fill="url(#paint19_linear_7773_14642)"/>
<path d="M179.07 199.574C189.178 198.214 199.524 194.176 198.904 179.295C198.285 164.414 194.723 157.535 186.362 157.336C178.001 157.138 166.388 161.554 165.923 174.83C165.459 188.106 164.036 201.598 179.07 199.574Z" fill="#104575"/>
<path d="M173.82 205.292L176.453 177.038L189.614 178.435L187.756 204.053L173.82 205.292Z" fill="url(#paint20_linear_7773_14642)"/>
<path d="M189.613 178.435L176.452 177.038L175.741 184.673C175.741 184.673 174.673 198.823 188.082 199.545L189.613 178.435Z" fill="#D39971"/>
<path d="M175.741 184.672C178.501 187.38 186.517 189.498 191.317 188.724C196.118 187.95 196.118 184.712 195.653 178.434C195.188 172.156 190.698 157.446 179.24 163.949C167.782 170.454 172.243 181.24 175.741 184.672Z" fill="url(#paint21_linear_7773_14642)"/>
<path d="M171.876 181.553C171.876 181.553 190.233 172.469 190.388 162.326C190.542 152.182 173.975 159.769 170.259 165.189C166.543 170.609 166.856 177.525 171.876 181.553Z" fill="#104575"/>
<path d="M176.173 180.034C174.414 177.975 172.659 177.531 170.724 179.295C168.788 181.059 168.71 181.757 170.724 184.389C172.737 187.021 175.197 185.705 176.173 184.389C177.149 183.073 177.23 181.27 176.173 180.034Z" fill="url(#paint22_linear_7773_14642)"/>
<path d="M176.28 182.591C176.188 182.648 176.068 182.654 175.97 182.599C175.506 182.342 174.137 181.743 173.381 182.061C173.13 182.167 172.965 182.369 172.877 182.681L172.288 182.519C172.427 182.021 172.714 181.677 173.146 181.497C173.741 181.249 174.504 181.381 175.127 181.58C173.758 180.054 172.808 180.063 172.327 180.237C171.619 180.496 171.229 181.358 171.274 182.011L170.664 182.056C170.603 181.175 171.093 180.04 172.12 179.664C172.846 179.4 174.362 179.373 176.368 182.154C176.451 182.27 176.443 182.428 176.348 182.535C176.326 182.556 176.303 182.576 176.28 182.591Z" fill="#D39971"/>
<path d="M185.958 174.04C185.906 173.639 185.538 173.355 185.134 173.406C184.731 173.458 184.445 173.825 184.496 174.227C184.548 174.628 184.916 174.912 185.32 174.86C185.724 174.809 186.009 174.442 185.958 174.04Z" fill="#6B201E"/>
<path d="M192.189 172.504C192.137 172.103 191.769 171.819 191.365 171.87C190.962 171.922 190.676 172.289 190.727 172.69C190.779 173.092 191.147 173.376 191.551 173.324C191.954 173.273 192.24 172.905 192.189 172.504Z" fill="#6B201E"/>
<path d="M190.986 179.019C190.839 179.037 190.694 179.051 190.556 179.056C190.341 179.065 190.159 178.9 190.15 178.686C190.141 178.472 190.305 178.288 190.523 178.281C191.434 178.238 192.084 177.935 192.188 177.74C192.196 177.724 192.205 177.707 192.167 177.648C191.736 176.969 189.538 173.105 189.443 172.942C189.337 172.755 189.403 172.518 189.591 172.412C189.778 172.306 190.017 172.372 190.122 172.559C190.145 172.599 192.406 176.571 192.827 177.233C193.006 177.515 193.024 177.823 192.879 178.1C192.593 178.641 191.756 178.921 190.986 179.019Z" fill="#6B201E"/>
<path d="M189.265 182.326C187.959 182.326 186.564 182.008 185.602 181.643C185.363 181.552 185.242 181.285 185.333 181.044C185.424 180.805 185.695 180.683 185.932 180.775C187.679 181.438 190.601 181.781 191.544 180.7C191.714 180.508 192.007 180.488 192.199 180.655C192.393 180.824 192.412 181.117 192.244 181.311C191.591 182.058 190.464 182.326 189.265 182.326Z" fill="#6B201E"/>
<path d="M142.04 230.308C142.04 230.308 136.968 242.686 135.111 246.324C133.253 249.963 134.182 254.609 139.059 258.556C143.937 262.505 158.801 273.421 158.801 273.421C158.801 273.421 153.228 281.55 151.834 284.336C150.44 287.123 151.543 292.233 152.705 291.014C153.866 289.794 153.344 287.472 153.344 287.472C153.344 287.472 154.447 290.607 155.608 288.343C156.77 286.079 156.77 283.814 158.802 280.795C160.835 277.776 166.211 274.117 163.726 271.04C161.241 267.963 149.295 250.35 149.295 250.35L161.279 233.988L142.04 230.308Z" fill="url(#paint23_linear_7773_14642)"/>
<path d="M144.802 254.926L157.783 262.734C153.749 256.919 149.293 250.351 149.293 250.351L144.802 254.926Z" fill="#D39971"/>
<path d="M150.918 240.374C151.666 241.906 152.472 243.423 153.337 244.831L161.278 233.99L142.04 230.309C142.04 230.309 140.73 233.507 139.198 237.129C139.198 237.129 147.667 233.716 150.918 240.374Z" fill="#D39971"/>
<path d="M163.678 208.832C158.414 207.664 152.994 207.924 148.349 216.983C143.704 226.041 139.058 237.189 139.058 237.189C139.058 237.189 147.652 233.241 151.368 237.189C155.084 241.138 155.69 249.886 161.658 246.324C167.626 242.763 167.626 224.415 168.091 219.305C168.556 214.196 168.062 209.803 163.678 208.832Z" fill="url(#paint24_linear_7773_14642)"/>
<mask id="mask0_7773_14642" style="mask-type:luminance" maskUnits="userSpaceOnUse" x="184" y="2" width="23" height="24">
<path d="M195.656 24.0691C197.02 24.0462 198.366 23.754 199.616 23.2093C200.867 22.6646 201.998 21.8782 202.943 20.8952C203.892 19.9145 204.637 18.7562 205.136 17.4868C205.635 16.2173 205.878 14.8617 205.852 13.4979C205.829 12.134 205.537 10.7881 204.992 9.53752C204.448 8.28691 203.661 7.15626 202.678 6.21052C201.698 5.26232 200.539 4.51722 199.27 4.01804C198 3.51885 196.645 3.27543 195.281 3.30174C193.917 3.32469 192.571 3.6169 191.321 4.1616C190.07 4.70629 188.939 5.49273 187.994 6.47573C187.045 7.45634 186.3 8.61465 185.801 9.88411C185.302 11.1536 185.058 12.5091 185.085 13.873C185.108 15.2369 185.4 16.5828 185.945 17.8334C186.489 19.084 187.276 20.2146 188.259 21.1604C189.239 22.1086 190.398 22.8537 191.667 23.3528C192.937 23.852 194.292 24.0955 195.656 24.0691Z" fill="white" stroke="white" stroke-width="2" stroke-linejoin="round"/>
<path d="M191.315 13.7606L194.486 16.8195L200.604 10.4767" stroke="black" stroke-width="2" stroke-linecap="round" stroke-linejoin="round"/>
</mask>
<g mask="url(#mask0_7773_14642)">
<path d="M182.783 1.4502L207.704 1.00013L208.154 25.921L183.233 26.3711L182.783 1.4502Z" fill="url(#paint25_linear_7773_14642)"/>
</g>
<g clip-path="url(#clip1_7773_14642)">
<mask id="mask1_7773_14642" style="mask-type:luminance" maskUnits="userSpaceOnUse" x="0" y="174" width="17" height="17">
<path d="M8.30837 189.232C9.21775 189.233 10.1184 189.055 10.9586 188.706C11.7987 188.358 12.5618 187.848 13.204 187.204C13.8479 186.562 14.3585 185.799 14.7065 184.959C15.0545 184.118 15.2331 183.218 15.232 182.308C15.2331 181.399 15.0545 180.498 14.7065 179.658C14.3585 178.818 13.8479 178.055 13.204 177.413C12.5618 176.769 11.7987 176.258 10.9586 175.91C10.1184 175.562 9.21775 175.384 8.30837 175.385C7.39898 175.384 6.49834 175.562 5.65818 175.91C4.81803 176.258 4.05492 176.769 3.41269 177.413C2.76885 178.055 2.25826 178.818 1.91024 179.658C1.56223 180.498 1.38365 181.399 1.38477 182.308C1.38365 183.218 1.56223 184.118 1.91024 184.959C2.25826 185.799 2.76885 186.562 3.41269 187.204C4.05492 187.848 4.81803 188.358 5.65818 188.706C6.49834 189.055 7.39898 189.233 8.30837 189.232Z" fill="white" stroke="white" stroke-width="2" stroke-linejoin="round"/>
<path d="M5.53882 182.309L7.6159 184.386L11.7701 180.231" stroke="black" stroke-width="2" stroke-linecap="round" stroke-linejoin="round"/>
</mask>
<g mask="url(#mask1_7773_14642)">
<path d="M0 174H16.6166V190.617H0V174Z" fill="url(#paint26_linear_7773_14642)"/>
</g>
</g>
<g clip-path="url(#clip2_7773_14642)">
<mask id="mask2_7773_14642" style="mask-type:luminance" maskUnits="userSpaceOnUse" x="424" y="74" width="16" height="17">
<path d="M432.032 89.232C432.942 89.2331 433.843 89.0545 434.683 88.7065C435.523 88.3585 436.286 87.8479 436.928 87.204C437.572 86.5618 438.083 85.7987 438.431 84.9586C438.779 84.1184 438.957 83.2178 438.956 82.3084C438.957 81.399 438.779 80.4983 438.431 79.6582C438.083 78.818 437.572 78.0549 436.928 77.4127C436.286 76.7689 435.523 76.2583 434.683 75.9102C433.843 75.5622 432.942 75.3836 432.032 75.3848C431.123 75.3836 430.222 75.5622 429.382 75.9102C428.542 76.2583 427.779 76.7689 427.137 77.4127C426.493 78.0549 425.982 78.818 425.634 79.6582C425.286 80.4983 425.108 81.399 425.109 82.3084C425.108 83.2178 425.286 84.1184 425.634 84.9586C425.982 85.7987 426.493 86.5618 427.137 87.204C427.779 87.8479 428.542 88.3585 429.382 88.7065C430.222 89.0545 431.123 89.2331 432.032 89.232Z" fill="white" stroke="white" stroke-width="2" stroke-linejoin="round"/>
<path d="M429.263 82.3085L431.34 84.3856L435.494 80.2314" stroke="black" stroke-width="2" stroke-linecap="round" stroke-linejoin="round"/>
</mask>
<g mask="url(#mask2_7773_14642)">
<path d="M423.724 74H440.341V90.6166H423.724V74Z" fill="url(#paint27_linear_7773_14642)"/>
</g>
</g>
<path d="M59 53V55H58V56H50V64H49V65H47V64H46V56H38V55H37V53H38V52H46V44H47V43H49V44H50V52H58V53H59Z" fill="url(#paint28_linear_7773_14642)"/>
<path d="M397.415 20.4246V21.8093H396.722V22.5017H391.183V28.0405H390.491V28.7329H389.106V28.0405H388.414V22.5017H382.875V21.8093H382.183V20.4246H382.875V19.7322H388.414V14.1933H389.106V13.501H390.491V14.1933H391.183V19.7322H396.722V20.4246H397.415Z" fill="url(#paint29_linear_7773_14642)"/>
<path d="M77.5442 279.021V280.405H76.8518V281.098H71.3129V286.637H70.6206V287.329H69.2359V286.637H68.5435V281.098H63.0046V280.405H62.3123V279.021H63.0046V278.328H68.5435V272.79H69.2359V272.097H70.6206V272.79H71.3129V278.328H76.8518V279.021H77.5442Z" fill="url(#paint30_linear_7773_14642)"/>
<path d="M475.305 194.899V196.284H474.613V196.976H469.074V202.515H468.381V203.207H466.997V202.515H466.304V196.976H460.765V196.284H460.073V194.899H460.765V194.207H466.304V188.668H466.997V187.976H468.381V188.668H469.074V194.207H474.613V194.899H475.305Z" fill="url(#paint31_linear_7773_14642)"/>
</g>
<defs>
<linearGradient id="paint0_linear_7773_14642" x1="370.648" y1="211.081" x2="370.648" y2="383.207" gradientUnits="userSpaceOnUse">
<stop stop-color="#BACFF6"/>
<stop offset="1" stop-color="#89919F"/>
</linearGradient>
<linearGradient id="paint1_linear_7773_14642" x1="370.903" y1="259.838" x2="370.903" y2="382.764" gradientUnits="userSpaceOnUse">
<stop stop-color="#BACFF6"/>
<stop offset="1" stop-color="#89919F"/>
</linearGradient>
<linearGradient id="paint2_linear_7773_14642" x1="388.594" y1="260.026" x2="388.594" y2="376.509" gradientUnits="userSpaceOnUse">
<stop stop-color="#BACFF6"/>
<stop offset="1" stop-color="#89919F"/>
</linearGradient>
<linearGradient id="paint3_linear_7773_14642" x1="170.006" y1="292.694" x2="272.443" y2="420.745" gradientUnits="userSpaceOnUse">
<stop stop-color="#EBF8F9"/>
<stop offset="1" stop-color="#2A7E80"/>
</linearGradient>
<linearGradient id="paint4_linear_7773_14642" x1="226.27" y1="364.396" x2="237.056" y2="437.248" gradientUnits="userSpaceOnUse">
<stop stop-color="#DEF2FF"/>
<stop offset="1" stop-color="#73A8ED"/>
</linearGradient>
<linearGradient id="paint5_linear_7773_14642" x1="256.001" y1="139.546" x2="256.001" y2="209.543" gradientUnits="userSpaceOnUse">
<stop stop-color="#F19020" stop-opacity="0.8"/>
<stop offset="1" stop-color="#FECC32" stop-opacity="0.5"/>
</linearGradient>
<linearGradient id="paint6_linear_7773_14642" x1="256" y1="59.9751" x2="256" y2="150.357" gradientUnits="userSpaceOnUse">
<stop stop-color="#F19020" stop-opacity="0.8"/>
<stop offset="1" stop-color="#FECC32" stop-opacity="0.5"/>
</linearGradient>
<linearGradient id="paint7_linear_7773_14642" x1="255.999" y1="218.058" x2="255.999" y2="298.753" gradientUnits="userSpaceOnUse">
<stop stop-color="#F19020" stop-opacity="0.8"/>
<stop offset="1" stop-color="#FECC32" stop-opacity="0.5"/>
</linearGradient>
<linearGradient id="paint8_linear_7773_14642" x1="130.856" y1="379.067" x2="135.01" y2="429.436" gradientUnits="userSpaceOnUse">
<stop stop-color="#524D48"/>
<stop offset="1" stop-color="#A8A7A3"/>
</linearGradient>
<linearGradient id="paint9_linear_7773_14642" x1="396.027" y1="371.402" x2="398.799" y2="445.014" gradientUnits="userSpaceOnUse">
<stop stop-color="#534D48"/>
<stop offset="1" stop-color="#AEAEAE"/>
</linearGradient>
<linearGradient id="paint10_linear_7773_14642" x1="150.164" y1="324.651" x2="399.838" y2="355.181" gradientUnits="userSpaceOnUse">
<stop stop-color="#FFC28D"/>
<stop offset="1" stop-color="#DDBFAE"/>
</linearGradient>
<linearGradient id="paint11_linear_7773_14642" x1="238.864" y1="381.663" x2="248.887" y2="281.547" gradientUnits="userSpaceOnUse">
<stop stop-color="#6C5541"/>
<stop offset="1" stop-color="#FFC28D"/>
</linearGradient>
<linearGradient id="paint12_linear_7773_14642" x1="274.487" y1="268.129" x2="359.232" y2="295.144" gradientUnits="userSpaceOnUse">
<stop stop-color="#FEFEFE"/>
<stop offset="1" stop-color="#FEFEFE"/>
</linearGradient>
<linearGradient id="paint13_linear_7773_14642" x1="318.81" y1="270.283" x2="377.283" y2="284.932" gradientUnits="userSpaceOnUse">
<stop stop-color="#FEFEFE"/>
<stop offset="1" stop-color="#FEFEFE"/>
</linearGradient>
<linearGradient id="paint14_linear_7773_14642" x1="232.117" y1="433.215" x2="232.117" y2="449.938" gradientUnits="userSpaceOnUse">
<stop stop-color="#FFC9A2"/>
<stop offset="1" stop-color="#FAC49F"/>
</linearGradient>
<linearGradient id="paint15_linear_7773_14642" x1="167.627" y1="434.918" x2="167.627" y2="448.39" gradientUnits="userSpaceOnUse">
<stop stop-color="#FFC9A2"/>
<stop offset="1" stop-color="#FAC49F"/>
</linearGradient>
<linearGradient id="paint16_linear_7773_14642" x1="207.706" y1="208.831" x2="207.706" y2="255.135" gradientUnits="userSpaceOnUse">
<stop stop-color="#FFC9A2"/>
<stop offset="1" stop-color="#FAC49F"/>
</linearGradient>
<linearGradient id="paint17_linear_7773_14642" x1="224.122" y1="191.644" x2="224.122" y2="254.925" gradientUnits="userSpaceOnUse">
<stop stop-color="#FFC9A2"/>
<stop offset="1" stop-color="#FAC49F"/>
</linearGradient>
<linearGradient id="paint18_linear_7773_14642" x1="183.238" y1="201.061" x2="183.238" y2="266.919" gradientUnits="userSpaceOnUse">
<stop stop-color="#FA8C4A"/>
<stop offset="1" stop-color="#EE9E6E"/>
</linearGradient>
<linearGradient id="paint19_linear_7773_14642" x1="180.31" y1="201.061" x2="180.31" y2="210.014" gradientUnits="userSpaceOnUse">
<stop stop-color="#FFC9A2"/>
<stop offset="1" stop-color="#FAC49F"/>
</linearGradient>
<linearGradient id="paint20_linear_7773_14642" x1="181.717" y1="177.038" x2="181.717" y2="205.292" gradientUnits="userSpaceOnUse">
<stop stop-color="#FFC9A2"/>
<stop offset="1" stop-color="#FAC49F"/>
</linearGradient>
<linearGradient id="paint21_linear_7773_14642" x1="183.862" y1="162.325" x2="183.862" y2="188.885" gradientUnits="userSpaceOnUse">
<stop stop-color="#FFC9A2"/>
<stop offset="1" stop-color="#FAC49F"/>
</linearGradient>
<linearGradient id="paint22_linear_7773_14642" x1="173.089" y1="178.197" x2="173.089" y2="185.909" gradientUnits="userSpaceOnUse">
<stop stop-color="#FFC9A2"/>
<stop offset="1" stop-color="#FAC49F"/>
</linearGradient>
<linearGradient id="paint23_linear_7773_14642" x1="149.295" y1="230.308" x2="149.295" y2="291.199" gradientUnits="userSpaceOnUse">
<stop stop-color="#FFC9A2"/>
<stop offset="1" stop-color="#FAC49F"/>
</linearGradient>
<linearGradient id="paint24_linear_7773_14642" x1="153.645" y1="208.339" x2="153.645" y2="247.159" gradientUnits="userSpaceOnUse">
<stop stop-color="#FA8C4A"/>
<stop offset="1" stop-color="#EE9E6E"/>
</linearGradient>
<linearGradient id="paint25_linear_7773_14642" x1="207.399" y1="27.482" x2="178.056" y2="11.6426" gradientUnits="userSpaceOnUse">
<stop offset="0.420244" stop-color="#3B9EAB"/>
<stop offset="1" stop-color="#395384"/>
</linearGradient>
<linearGradient id="paint26_linear_7773_14642" x1="16.0946" y1="191.648" x2="-3.27331" y2="180.737" gradientUnits="userSpaceOnUse">
<stop offset="0.420244" stop-color="#3B9EAB"/>
<stop offset="1" stop-color="#395384"/>
</linearGradient>
<linearGradient id="paint27_linear_7773_14642" x1="439.819" y1="91.648" x2="420.451" y2="80.7369" gradientUnits="userSpaceOnUse">
<stop offset="0.420244" stop-color="#3B9EAB"/>
<stop offset="1" stop-color="#395384"/>
</linearGradient>
<linearGradient id="paint28_linear_7773_14642" x1="54.3186" y1="37.83" x2="19.6272" y2="66.8176" gradientUnits="userSpaceOnUse">
<stop stop-color="#CD4B3A"/>
<stop offset="1" stop-color="#FAE5B7"/>
</linearGradient>
<linearGradient id="paint29_linear_7773_14642" x1="394.173" y1="9.92148" x2="370.154" y2="29.9914" gradientUnits="userSpaceOnUse">
<stop stop-color="#CD4B3A"/>
<stop offset="1" stop-color="#FAE5B7"/>
</linearGradient>
<linearGradient id="paint30_linear_7773_14642" x1="74.303" y1="268.518" x2="50.2841" y2="288.588" gradientUnits="userSpaceOnUse">
<stop stop-color="#CD4B3A"/>
<stop offset="1" stop-color="#FAE5B7"/>
</linearGradient>
<linearGradient id="paint31_linear_7773_14642" x1="472.064" y1="184.396" x2="448.045" y2="204.466" gradientUnits="userSpaceOnUse">
<stop stop-color="#CD4B3A"/>
<stop offset="1" stop-color="#FAE5B7"/>
</linearGradient>
<clipPath id="clip0_7773_14642">
<rect width="512" height="512" fill="white"/>
</clipPath>
<clipPath id="clip1_7773_14642">
<rect width="16.6166" height="16.6166" fill="white" transform="translate(0 174)"/>
</clipPath>
<clipPath id="clip2_7773_14642">
<rect width="16.6166" height="16.6166" fill="white" transform="translate(423.724 74)"/>
</clipPath>
</defs>
</svg>
