<svg width="42" height="42" viewBox="0 0 42 42" fill="none" xmlns="http://www.w3.org/2000/svg">
<rect width="42" height="42" rx="21" fill="#FFC6AC"/>
<g clip-path="url(#clip0_7518_14586)">
<path d="M20.9531 9.1875C20.9841 9.1875 21.015 9.1875 21.0469 9.1875C21.2914 9.60505 21.5183 10.028 21.7266 10.4648C21.7469 10.5072 21.7672 10.5496 21.7881 10.5933C21.9632 10.965 22.0664 11.3194 21.9556 11.7321C21.8725 11.9223 21.7818 12.0159 21.605 12.1228C21.4936 12.2043 21.4324 12.2507 21.387 12.3821C21.3741 12.5026 21.3724 12.6183 21.375 12.7394C21.3742 12.8043 21.3742 12.8043 21.3735 12.8706C21.3722 13.0082 21.3736 13.1456 21.375 13.2832C21.3746 13.3768 21.3741 13.4703 21.3734 13.5639C21.3716 13.7927 21.3734 14.0211 21.375 14.25C21.6844 14.25 21.9937 14.25 22.3125 14.25C22.3125 15.6886 22.3125 17.1272 22.3125 18.6094C23.3025 18.6094 24.2925 18.6094 25.3125 18.6094C25.3098 18.2703 25.3071 17.9313 25.3043 17.582C25.3031 17.3673 25.3019 17.1526 25.3011 16.9379C25.2997 16.5971 25.298 16.2562 25.2948 15.9154C25.2923 15.6407 25.2909 15.3659 25.2903 15.0912C25.2898 14.9863 25.289 14.8814 25.2877 14.7766C25.286 14.6298 25.2858 14.483 25.2859 14.3362C25.285 14.2928 25.2842 14.2494 25.2833 14.2046C25.285 13.9945 25.2912 13.9033 25.4209 13.7306C25.5859 13.6128 25.6764 13.6081 25.875 13.6406C25.9775 13.7073 25.9775 13.7073 26.0625 13.8281C26.0898 13.9815 26.0862 14.1329 26.0838 14.2883C26.0838 14.335 26.0838 14.3816 26.0839 14.4297C26.0837 14.5839 26.0823 14.7381 26.0808 14.8923C26.0805 14.9993 26.0802 15.1062 26.08 15.2131C26.0793 15.4946 26.0774 15.776 26.0754 16.0574C26.0735 16.3446 26.0726 16.6318 26.0717 16.9189C26.0696 17.4824 26.0664 18.0459 26.0625 18.6094C26.107 18.6181 26.1515 18.6268 26.1973 18.6358C26.256 18.6478 26.3146 18.6597 26.3751 18.672C26.4331 18.6836 26.4911 18.6952 26.5509 18.7072C27.0317 18.8297 27.4266 19.1737 27.6949 19.5839C28.0443 20.2252 27.9973 20.9389 27.9935 21.6484C27.9934 21.7463 27.9932 21.8442 27.9931 21.9421C27.9928 22.1979 27.9919 22.4537 27.9908 22.7094C27.9898 22.9712 27.9894 23.233 27.989 23.4947C27.988 24.0069 27.9864 24.5191 27.9844 25.0312C28.0263 25.0309 28.0682 25.0305 28.1114 25.0302C28.1664 25.0299 28.2213 25.0296 28.2779 25.0293C28.3324 25.0289 28.3869 25.0286 28.4431 25.0282C28.886 25.0371 29.2855 25.2245 29.625 25.5C29.6543 25.5235 29.6836 25.547 29.7138 25.5712C30.0739 25.8937 30.2989 26.3926 30.3365 26.873C30.3396 26.9921 30.3397 27.1108 30.3388 27.2299C30.3388 27.2747 30.3388 27.3196 30.3388 27.3658C30.3387 27.5129 30.338 27.66 30.3373 27.8071C30.3371 27.9096 30.337 28.012 30.3369 28.1145C30.3365 28.3833 30.3356 28.6521 30.3346 28.9209C30.3334 29.2438 30.333 29.5668 30.3325 29.8898C30.3315 30.3796 30.3298 30.8695 30.3281 31.3594C31.1789 31.3594 32.0297 31.3594 32.9062 31.3594C32.9062 31.8466 32.7818 32.2243 32.4375 32.5781C32.0844 32.8697 31.783 33.0147 31.3203 33.0121C31.284 33.0122 31.2477 33.0124 31.2103 33.0126C31.0885 33.013 30.9668 33.0128 30.845 33.0125C30.7569 33.0127 30.6688 33.0129 30.5807 33.0132C30.3385 33.0138 30.0962 33.0137 29.8539 33.0136C29.5927 33.0136 29.3315 33.0141 29.0703 33.0146C28.5584 33.0154 28.0466 33.0156 27.5348 33.0157C27.1188 33.0157 26.7028 33.0159 26.2869 33.0162C25.2997 33.0169 24.3125 33.0175 23.3254 33.0174C23.278 33.0174 23.278 33.0174 23.2297 33.0174C23.0697 33.0174 22.9097 33.0174 22.7497 33.0174C22.718 33.0174 22.6862 33.0174 22.6534 33.0174C22.5892 33.0174 22.5249 33.0174 22.4607 33.0174C21.4609 33.0173 20.4611 33.018 19.4613 33.0193C18.338 33.0207 17.2146 33.0215 16.0913 33.0215C15.4966 33.0214 14.9018 33.0217 14.3071 33.0227C13.8007 33.0235 13.2944 33.0237 12.788 33.0231C12.5296 33.0228 12.2713 33.0228 12.0129 33.0236C11.7764 33.0243 11.5398 33.0242 11.3033 33.0234C11.2177 33.0233 11.1322 33.0234 11.0466 33.0239C10.2289 33.0286 10.2289 33.0286 9.89062 32.8125C9.85322 32.7905 9.81582 32.7685 9.77728 32.7458C9.43073 32.4857 9.17235 32.1701 9.09375 31.7344C9.09375 31.6106 9.09375 31.4869 9.09375 31.3594C9.94453 31.3594 10.7953 31.3594 11.6719 31.3594C11.6697 31.0348 11.6675 30.7103 11.6653 30.3759C11.6643 30.1693 11.6634 29.9628 11.6627 29.7562C11.6616 29.4289 11.6603 29.1016 11.6577 28.7743C11.6557 28.5101 11.6546 28.246 11.6541 27.9819C11.6537 27.8815 11.6531 27.7812 11.6521 27.6808C11.645 26.9559 11.6628 26.3233 12.1406 25.7344C12.1641 25.7051 12.1876 25.6758 12.2119 25.6456C12.5069 25.3161 12.9661 25.084 13.4062 25.0312C13.5118 25.0293 13.6173 25.0288 13.7228 25.0294C13.7777 25.0297 13.8325 25.0299 13.889 25.0302C13.9308 25.0306 13.9726 25.0309 14.0156 25.0312C14.0154 24.9774 14.0152 24.9236 14.015 24.8681C14.0131 24.3585 14.0117 23.8489 14.0108 23.3393C14.0103 23.0774 14.0096 22.8155 14.0086 22.5535C14.0075 22.3003 14.007 22.0472 14.0067 21.794C14.0066 21.6978 14.0062 21.6016 14.0057 21.5054C13.9973 19.8574 13.9973 19.8574 14.6074 19.2012C14.9258 18.9043 15.2615 18.7279 15.6895 18.6529C15.7359 18.6447 15.7824 18.6364 15.8302 18.628C15.8656 18.6218 15.901 18.6157 15.9375 18.6094C15.9373 18.5719 15.9372 18.5343 15.937 18.4957C15.9328 17.5834 15.9297 16.6711 15.9278 15.7588C15.9268 15.3176 15.9255 14.8764 15.9234 14.4353C15.9215 14.0508 15.9203 13.6663 15.9199 13.2818C15.9196 13.0782 15.919 12.8746 15.9177 12.6709C15.9164 12.4793 15.916 12.2878 15.9163 12.0961C15.9162 12.0258 15.9159 11.9554 15.9151 11.885C15.9142 11.789 15.9146 11.693 15.915 11.597C15.9148 11.5433 15.9146 11.4895 15.9144 11.4341C15.9427 11.2657 15.9896 11.2107 16.125 11.1094C16.2861 11.083 16.2861 11.083 16.4531 11.1094C16.6019 11.2274 16.6782 11.2976 16.7163 11.4861C16.7161 11.5394 16.7159 11.5928 16.7157 11.6478C16.716 11.7092 16.7163 11.7707 16.7167 11.834C16.7158 11.9018 16.715 11.9695 16.7141 12.0373C16.714 12.1089 16.7141 12.1806 16.7142 12.2522C16.7143 12.4463 16.7129 12.6405 16.7113 12.8347C16.7098 13.0377 16.7097 13.2407 16.7094 13.4437C16.7087 13.828 16.7067 14.2123 16.7044 14.5966C16.7018 15.0342 16.7005 15.4718 16.6993 15.9093C16.6968 16.8094 16.6925 17.7094 16.6875 18.6094C17.6775 18.6094 18.6675 18.6094 19.6875 18.6094C19.6875 17.1708 19.6875 15.7322 19.6875 14.25C19.9969 14.25 20.3062 14.25 20.625 14.25C20.6269 13.9746 20.6277 13.6997 20.6256 13.4243C20.6252 13.3307 20.6255 13.2372 20.6264 13.1436C20.6277 13.0088 20.6266 12.8742 20.625 12.7394C20.6264 12.677 20.6264 12.677 20.6278 12.6133C20.6226 12.3818 20.6226 12.3818 20.4956 12.1964C20.3971 12.122 20.3971 12.122 20.295 12.0623C20.1339 11.953 20.067 11.8089 20.0156 11.625C19.9131 11.0002 20.2804 10.417 20.5635 9.88477C20.6043 9.80682 20.6043 9.80682 20.646 9.72729C20.8433 9.35221 20.8433 9.35221 20.9531 9.1875Z" fill="#F54D5A"/>
<path d="M11.6719 27.0938C12.0837 27.0938 12.3488 27.2034 12.6533 27.4805C12.9099 27.7542 13.0975 28.084 13.2963 28.4003C13.7693 29.1561 13.7693 29.1561 14.5312 29.5782C14.944 29.6502 15.2682 29.5288 15.6094 29.2969C15.9374 29.0214 16.142 28.658 16.3584 28.2948C16.6528 27.8021 17.0042 27.278 17.5781 27.0938C18.0708 27.0325 18.4088 27.1391 18.7976 27.4362C18.9375 27.5555 19.0371 27.6878 19.1396 27.8409C19.1574 27.8671 19.1752 27.8933 19.1935 27.9203C19.2868 28.059 19.377 28.1993 19.4654 28.3411C19.9421 29.1062 19.9421 29.1062 20.6924 29.5694C20.732 29.5723 20.7717 29.5752 20.8125 29.5782C20.8438 29.5805 20.8751 29.5829 20.9073 29.5853C21.3008 29.6021 21.5476 29.5028 21.8467 29.2471C22.0711 29.0344 22.2412 28.8073 22.4062 28.5469C22.4404 28.4933 22.4745 28.4398 22.5086 28.3862C22.5264 28.3582 22.5442 28.3303 22.5625 28.3015C23.2038 27.297 23.2038 27.297 23.8125 27.0938C24.2305 27.0436 24.5455 27.1108 24.8914 27.3454C25.2403 27.6215 25.4668 28.0145 25.6994 28.3876C26.0311 28.9188 26.3348 29.3721 26.9531 29.5782C27.3287 29.6259 27.6695 29.5257 27.9902 29.3299C28.3143 29.0764 28.5174 28.7024 28.7344 28.3594C29.3943 27.3247 29.3943 27.3247 29.9062 27.1407C30.0455 27.1252 30.1847 27.1098 30.3281 27.0938C30.3281 28.5015 30.3281 29.9091 30.3281 31.3594C31.1789 31.3594 32.0297 31.3594 32.9062 31.3594C32.9062 31.8466 32.7818 32.2243 32.4375 32.5782C32.0844 32.8698 31.783 33.0148 31.3203 33.0121C31.284 33.0123 31.2477 33.0125 31.2103 33.0126C31.0885 33.0131 30.9668 33.0128 30.845 33.0126C30.7569 33.0128 30.6688 33.013 30.5807 33.0132C30.3385 33.0138 30.0962 33.0138 29.8539 33.0137C29.5927 33.0137 29.3315 33.0142 29.0703 33.0146C28.5584 33.0154 28.0466 33.0157 27.5348 33.0157C27.1188 33.0158 26.7028 33.016 26.2869 33.0163C25.2997 33.017 24.3125 33.0175 23.3254 33.0175C23.278 33.0175 23.278 33.0175 23.2297 33.0175C23.0697 33.0175 22.9097 33.0175 22.7497 33.0174C22.718 33.0174 22.6862 33.0174 22.6534 33.0174C22.5892 33.0174 22.5249 33.0174 22.4607 33.0174C21.4609 33.0174 20.4611 33.0181 19.4613 33.0194C18.338 33.0208 17.2146 33.0216 16.0913 33.0215C15.4966 33.0215 14.9018 33.0217 14.3071 33.0228C13.8007 33.0236 13.2944 33.0238 12.788 33.0232C12.5296 33.0229 12.2713 33.0229 12.0129 33.0237C11.7764 33.0244 11.5398 33.0243 11.3033 33.0235C11.2177 33.0233 11.1322 33.0235 11.0466 33.024C10.2289 33.0287 10.2289 33.0287 9.89062 32.8126C9.85322 32.7906 9.81582 32.7686 9.77728 32.7459C9.43073 32.4858 9.17235 32.1702 9.09375 31.7344C9.09375 31.6107 9.09375 31.4869 9.09375 31.3594C9.94453 31.3594 10.7953 31.3594 11.6719 31.3594C11.6719 29.9518 11.6719 28.5441 11.6719 27.0938Z" fill="#FEF2A6"/>
<path d="M14.0239 25.0189C14.0864 25.0188 14.149 25.0185 14.2115 25.0183C14.3826 25.0177 14.5538 25.0177 14.7249 25.0178C14.9098 25.0179 15.0946 25.0173 15.2795 25.0169C15.6414 25.0161 16.0033 25.0159 16.3652 25.0158C16.6596 25.0158 16.9539 25.0156 17.2482 25.0153C18.0833 25.0145 18.9185 25.014 19.7536 25.0141C19.8211 25.0141 19.8211 25.0141 19.8899 25.0141C19.935 25.0141 19.98 25.0141 20.0265 25.0141C20.7562 25.0142 21.486 25.0133 22.2158 25.0119C22.9658 25.0106 23.7158 25.0099 24.4658 25.01C24.8866 25.0101 25.3074 25.0098 25.7282 25.0088C26.0865 25.0079 26.4448 25.0077 26.8032 25.0084C26.9858 25.0087 27.1685 25.0087 27.3511 25.0079C27.5187 25.0071 27.6862 25.0073 27.8538 25.0081C27.9423 25.0083 28.0309 25.0076 28.1194 25.0068C28.6809 25.0113 29.1846 25.1428 29.6251 25.5002C29.6544 25.5237 29.6837 25.5472 29.7139 25.5715C30.0535 25.8756 30.2528 26.3211 30.3282 26.7659C30.3341 26.8766 30.3328 26.9829 30.3282 27.094C30.2919 27.1009 30.2557 27.1078 30.2183 27.1148C29.6426 27.2388 29.3486 27.508 29.0157 27.9846C28.9213 28.1321 28.8294 28.281 28.7374 28.4299C28.407 28.9613 28.0982 29.4197 27.4674 29.6065C27.1192 29.677 26.8345 29.6197 26.5313 29.4377C26.1146 29.1473 25.8582 28.7162 25.5904 28.2947C25.1223 27.5582 25.1223 27.5582 24.3751 27.1409C23.9116 27.0915 23.6003 27.1915 23.2257 27.4598C23.0952 27.5754 23.0076 27.6935 22.9102 27.8381C22.8923 27.8645 22.8743 27.891 22.8558 27.9182C22.7616 28.0576 22.6704 28.1987 22.5814 28.3415C21.9064 29.4241 21.9064 29.4241 21.3282 29.6082C21.0037 29.6671 20.6842 29.6393 20.3907 29.4846C19.9281 29.1495 19.6351 28.6872 19.3331 28.2131C19.0226 27.7276 18.7585 27.3312 18.1876 27.1409C17.8183 27.11 17.5107 27.1088 17.2032 27.3284C17.1737 27.3484 17.1441 27.3685 17.1137 27.3891C16.7425 27.6755 16.5126 28.1091 16.2716 28.5033C15.9585 29.0128 15.6333 29.4308 15.0469 29.6252C14.6931 29.6976 14.4119 29.608 14.1014 29.4337C13.6558 29.1321 13.4119 28.6687 13.1327 28.2216C12.8182 27.7217 12.5076 27.2605 11.8975 27.1167C11.7997 27.1004 11.7997 27.1004 11.6719 27.094C11.6258 26.5982 11.8328 26.1141 12.1407 25.7346C12.1642 25.7053 12.1877 25.676 12.2119 25.6458C12.6888 25.1132 13.3494 25.0172 14.0239 25.0189Z" fill="#F54D5A"/>
<path d="M27.9375 20.625C27.953 20.625 27.9684 20.625 27.9844 20.625C27.9844 22.0791 27.9844 23.5331 27.9844 25.0312C23.3747 25.0312 18.765 25.0312 14.0156 25.0312C14.0156 23.6236 14.0156 22.2159 14.0156 20.7656C14.4313 20.7656 14.5451 20.8276 14.8271 21.0965C15.046 21.3169 15.1906 21.5755 15.3456 21.8425C15.5188 22.1298 15.7247 22.3936 16.0312 22.5469C16.5307 22.5932 16.5307 22.5932 16.9753 22.4C17.2812 22.0929 17.5124 21.7184 17.7372 21.3503C17.908 21.0873 18.0794 20.8827 18.375 20.7656C18.6755 20.7188 18.9643 20.7306 19.229 20.8896C19.552 21.1354 19.7526 21.49 19.9608 21.8318C20.1762 22.1783 20.4125 22.4723 20.8125 22.5938C21.132 22.6352 21.388 22.5301 21.6458 22.3471C21.8771 22.1397 22.0231 21.872 22.1826 21.6092C22.6314 20.8765 22.6314 20.8765 23.0156 20.7656C23.3215 20.7365 23.5996 20.7225 23.8594 20.9062C24.1558 21.1647 24.3823 21.4942 24.5889 21.8262C24.7725 22.1195 24.9467 22.3922 25.2656 22.5469C25.4238 22.5691 25.4238 22.5691 25.5908 22.5645C25.6741 22.565 25.6741 22.565 25.7591 22.5656C26.089 22.5277 26.267 22.3637 26.4747 22.1219C26.5999 21.9554 26.7075 21.7815 26.8154 21.6035C27.033 21.2451 27.2441 20.9147 27.6562 20.7656C27.8145 20.7568 27.8145 20.7568 27.9375 20.7656C27.9375 20.7192 27.9375 20.6728 27.9375 20.625Z" fill="#FEF2A6"/>
<path d="M9.09375 31.3594C16.9519 31.3594 24.81 31.3594 32.9062 31.3594C32.9062 31.8466 32.7818 32.2243 32.4375 32.5781C32.0844 32.8697 31.783 33.0147 31.3203 33.0121C31.284 33.0122 31.2477 33.0124 31.2103 33.0126C31.0885 33.013 30.9668 33.0128 30.845 33.0125C30.7569 33.0127 30.6688 33.0129 30.5807 33.0132C30.3385 33.0138 30.0962 33.0137 29.8539 33.0136C29.5927 33.0136 29.3315 33.0141 29.0703 33.0146C28.5584 33.0154 28.0466 33.0156 27.5348 33.0157C27.1188 33.0157 26.7028 33.0159 26.2869 33.0162C25.2997 33.0169 24.3125 33.0175 23.3254 33.0174C23.278 33.0174 23.278 33.0174 23.2297 33.0174C23.0697 33.0174 22.9097 33.0174 22.7497 33.0174C22.718 33.0174 22.6862 33.0174 22.6534 33.0174C22.5892 33.0174 22.5249 33.0174 22.4607 33.0174C21.4609 33.0173 20.4611 33.018 19.4613 33.0193C18.338 33.0207 17.2146 33.0215 16.0913 33.0215C15.4966 33.0214 14.9018 33.0217 14.3071 33.0227C13.8007 33.0235 13.2944 33.0237 12.788 33.0231C12.5296 33.0228 12.2713 33.0228 12.0129 33.0236C11.7764 33.0243 11.5398 33.0242 11.3033 33.0234C11.2177 33.0233 11.1322 33.0234 11.0466 33.0239C10.2289 33.0286 10.2289 33.0286 9.89062 32.8125C9.85322 32.7905 9.81582 32.7685 9.77728 32.7458C9.43073 32.4857 9.17235 32.1701 9.09375 31.7344C9.09375 31.6106 9.09375 31.4869 9.09375 31.3594Z" fill="#2E8789"/>
<path d="M20.9531 9.1875C20.9841 9.1875 21.015 9.1875 21.0469 9.1875C21.2914 9.60505 21.5183 10.028 21.7266 10.4648C21.7469 10.5072 21.7672 10.5496 21.7881 10.5933C21.9632 10.965 22.0664 11.3194 21.9556 11.7321C21.8725 11.9223 21.7818 12.0159 21.605 12.1228C21.4936 12.2043 21.4324 12.2507 21.387 12.3821C21.3741 12.5026 21.3724 12.6183 21.375 12.7394C21.3745 12.7827 21.374 12.826 21.3735 12.8706C21.3722 13.0082 21.3736 13.1456 21.375 13.2832C21.3746 13.3768 21.3741 13.4703 21.3734 13.5639C21.3716 13.7927 21.3734 14.0211 21.375 14.25C21.6844 14.25 21.9938 14.25 22.3125 14.25C22.3125 15.7041 22.3125 17.1581 22.3125 18.6562C21.4462 18.6562 20.58 18.6562 19.6875 18.6562C19.6875 17.2022 19.6875 15.7481 19.6875 14.25C19.9969 14.25 20.3062 14.25 20.625 14.25C20.6269 13.9746 20.6277 13.6997 20.6256 13.4243C20.6252 13.3307 20.6255 13.2372 20.6264 13.1436C20.6277 13.0088 20.6266 12.8742 20.625 12.7394C20.6259 12.6978 20.6268 12.6562 20.6278 12.6133C20.6226 12.3818 20.6226 12.3818 20.4956 12.1964C20.3971 12.122 20.3971 12.122 20.295 12.0623C20.1339 11.953 20.067 11.8089 20.0156 11.625C19.9131 11.0002 20.2804 10.417 20.5635 9.88477C20.5907 9.8328 20.6179 9.78083 20.646 9.72729C20.8433 9.35221 20.8433 9.35221 20.9531 9.1875Z" fill="#8EDFFE"/>
<path d="M19.6875 15.7031C20.5537 15.7031 21.42 15.7031 22.3125 15.7031C22.3125 16.6777 22.3125 17.6522 22.3125 18.6562C21.4462 18.6562 20.58 18.6562 19.6875 18.6562C19.6875 17.6817 19.6875 16.7072 19.6875 15.7031Z" fill="#90E0FE"/>
<path d="M30.328 27.0938C30.328 28.5014 30.328 29.9091 30.328 31.3594C29.6938 31.3594 29.0596 31.3594 28.4061 31.3594C28.3909 31.0241 28.3779 30.69 28.3701 30.3546C28.3668 30.2411 28.3624 30.1276 28.3566 30.0142C28.3118 29.1071 28.4921 28.5516 29.0624 27.8438C29.0867 27.8131 29.111 27.7824 29.136 27.7508C29.4654 27.3387 29.7832 27.0938 30.328 27.0938Z" fill="#FBE55B"/>
<path d="M27.9375 20.625C27.9529 20.625 27.9684 20.625 27.9843 20.625C27.9843 22.0791 27.9843 23.5331 27.9843 25.0312C27.3347 25.0312 26.685 25.0312 26.0156 25.0312C26.0059 24.6842 25.9975 24.3375 25.9924 23.9904C25.9903 23.8725 25.9874 23.7545 25.9838 23.6366C25.9786 23.4667 25.9762 23.2969 25.9744 23.127C25.9722 23.0745 25.97 23.0221 25.9678 22.9681C25.9676 22.6056 25.9676 22.6056 26.1063 22.436C26.2133 22.3426 26.3242 22.2575 26.4375 22.1719C26.5391 22.0501 26.5391 22.0501 26.609 21.9315C26.6489 21.8689 26.6489 21.8689 26.6895 21.805C26.7156 21.7627 26.7417 21.7204 26.7685 21.6768C26.9978 21.3055 27.2383 20.9405 27.6562 20.7656C27.8086 20.7598 27.8086 20.7598 27.9375 20.7656C27.9375 20.7192 27.9375 20.6728 27.9375 20.625Z" fill="#FCE55C"/>
<path d="M16.2861 11.083C16.498 11.1165 16.5543 11.1786 16.6875 11.3438C16.7163 11.4861 16.7163 11.4861 16.7157 11.6478C16.7162 11.74 16.7162 11.74 16.7167 11.834C16.7158 11.9018 16.715 11.9695 16.7141 12.0373C16.714 12.1089 16.7141 12.1806 16.7142 12.2522C16.7143 12.4463 16.7129 12.6405 16.7113 12.8347C16.7098 13.0377 16.7097 13.2407 16.7094 13.4437C16.7087 13.828 16.7067 14.2123 16.7044 14.5966C16.7018 15.0342 16.7005 15.4718 16.6993 15.9093C16.6968 16.8094 16.6925 17.7094 16.6875 18.6094C17.6775 18.6094 18.6675 18.6094 19.6875 18.6094C19.6875 18.6248 19.6875 18.6403 19.6875 18.6562C18.4191 18.6562 17.1506 18.6562 15.8438 18.6562C15.8747 18.6408 15.9056 18.6253 15.9375 18.6094C15.9373 18.5719 15.9372 18.5343 15.937 18.4957C15.9328 17.5834 15.9297 16.6711 15.9278 15.7588C15.9268 15.3176 15.9255 14.8764 15.9234 14.4353C15.9215 14.0508 15.9203 13.6663 15.9199 13.2818C15.9196 13.0782 15.919 12.8746 15.9177 12.6709C15.9164 12.4793 15.916 12.2878 15.9163 12.0961C15.9162 12.0258 15.9159 11.9554 15.9151 11.885C15.9142 11.789 15.9146 11.693 15.915 11.597C15.9148 11.5433 15.9146 11.4895 15.9144 11.4341C15.9535 11.2019 16.0591 11.1202 16.2861 11.083Z" fill="#F5D47F"/>
<path d="M24.4219 18.6564C24.6928 18.6518 24.9637 18.6484 25.2347 18.6461C25.3267 18.6452 25.4186 18.6439 25.5106 18.6423C26.1981 18.6304 26.7426 18.6519 27.2812 19.1252C27.3096 19.1487 27.338 19.1722 27.3673 19.1964C27.6485 19.4488 27.8744 19.827 27.9375 20.2033C27.9407 20.3009 27.9415 20.3986 27.9404 20.4963C27.94 20.5468 27.9396 20.5973 27.9391 20.6494C27.9386 20.6878 27.9381 20.7262 27.9375 20.7658C27.8814 20.7774 27.8254 20.789 27.7676 20.801C27.2826 20.9248 27.0489 21.2925 26.7979 21.6945C26.6147 21.9869 26.4181 22.272 26.1562 22.5002C26.1098 22.5002 26.0634 22.5002 26.0156 22.5002C26.0149 22.439 26.0143 22.3778 26.0136 22.3147C26.0108 22.0856 26.0072 21.8564 26.0033 21.6273C26.0018 21.5285 26.0005 21.4297 25.9994 21.3309C25.9978 21.1881 25.9953 21.0454 25.9927 20.9026C25.9924 20.8591 25.9921 20.8156 25.9918 20.7708C25.9793 20.2034 25.8102 19.6338 25.4062 19.2189C25.1028 18.9695 24.7964 18.8179 24.4219 18.7033C24.4219 18.6878 24.4219 18.6724 24.4219 18.6564Z" fill="#EB3543"/>
<path d="M26.7656 25.0781C27.0491 25.0723 27.3324 25.0681 27.6159 25.0653C27.7121 25.0641 27.8083 25.0625 27.9045 25.0605C29.1393 25.0349 29.1393 25.0349 29.6426 25.5117C30.0319 25.8911 30.2835 26.326 30.3395 26.8775C30.3398 26.9678 30.3398 26.9678 30.3281 27.0938C30.2919 27.1007 30.2556 27.1075 30.2183 27.1146C29.5535 27.2578 29.2419 27.634 28.8807 28.1902C28.8106 28.2989 28.7411 28.4079 28.6725 28.5176C28.6515 28.551 28.6304 28.5844 28.6088 28.6189C28.59 28.649 28.5713 28.6792 28.552 28.7102C28.5 28.7813 28.5 28.7813 28.4062 28.8281C28.4058 28.7686 28.4054 28.7091 28.4049 28.6477C28.403 28.4244 28.4 28.2011 28.3965 27.9778C28.3952 27.8817 28.3942 27.7855 28.3935 27.6893C28.3875 26.8658 28.3156 26.2372 27.7383 25.6055C27.468 25.3478 27.1243 25.2108 26.7656 25.125C26.7656 25.1095 26.7656 25.0941 26.7656 25.0781Z" fill="#EB3543"/>
<path d="M20.9531 9.1875C20.984 9.1875 21.0149 9.1875 21.0468 9.1875C21.2913 9.60505 21.5182 10.028 21.7265 10.4648C21.7468 10.5072 21.7671 10.5496 21.788 10.5933C21.9632 10.965 22.0663 11.3194 21.9556 11.7321C21.8452 11.9844 21.6729 12.1668 21.4218 12.2812C21.1055 12.3472 20.7842 12.369 20.4843 12.2344C20.2453 12.075 20.1004 11.9023 20.0156 11.625C19.9114 11.0013 20.2809 10.4158 20.5634 9.88477C20.5906 9.8328 20.6178 9.78083 20.6459 9.72729C20.8432 9.35221 20.8432 9.35221 20.9531 9.1875Z" fill="#FEC963"/>
<path d="M25.8749 13.6408C25.9774 13.7075 25.9774 13.7075 26.0624 13.8283C26.0897 13.9817 26.086 14.1332 26.0837 14.2885C26.0837 14.3352 26.0837 14.3819 26.0837 14.4299C26.0836 14.5842 26.0821 14.7383 26.0807 14.8925C26.0803 14.9995 26.0801 15.1064 26.0799 15.2133C26.0792 15.4948 26.0773 15.7762 26.0752 16.0576C26.0733 16.3448 26.0725 16.632 26.0715 16.9192C26.0695 17.4826 26.0663 18.0461 26.0624 18.6096C25.8149 18.6096 25.5674 18.6096 25.3124 18.6096C25.3069 17.9964 25.3028 17.3831 25.3002 16.7699C25.299 16.4851 25.2973 16.2004 25.2947 15.9156C25.2921 15.6409 25.2907 15.3661 25.2901 15.0914C25.2897 14.9865 25.2888 14.8816 25.2876 14.7768C25.2859 14.63 25.2856 14.4832 25.2858 14.3364C25.2849 14.293 25.2841 14.2496 25.2832 14.2048C25.2849 13.9947 25.2911 13.9035 25.4208 13.7308C25.5857 13.613 25.6763 13.6083 25.8749 13.6408Z" fill="#F5D47F"/>
<path d="M19.7344 15.75C20.5697 15.75 21.405 15.75 22.2656 15.75C22.2656 16.2141 22.2656 16.6781 22.2656 17.1562C21.4303 17.1562 20.595 17.1562 19.7344 17.1562C19.7344 16.6922 19.7344 16.2281 19.7344 15.75Z" fill="#BDEDFF"/>
<path d="M20.625 12.2344C20.6869 12.2498 20.7488 12.2653 20.8125 12.2812C21.0147 12.2886 21.1746 12.2745 21.375 12.2344C21.375 12.8995 21.375 13.5647 21.375 14.25C21.1275 14.25 20.88 14.25 20.625 14.25C20.625 13.5848 20.625 12.9197 20.625 12.2344Z" fill="#2E8789"/>
<path d="M27.1406 15.0935C27.3719 15.2617 27.5943 15.461 27.75 15.7029C27.7799 15.9082 27.7722 15.9978 27.6562 16.1716C27.5109 16.2685 27.424 16.3041 27.2499 16.2702C27.0974 16.1981 26.9823 16.0944 26.8623 15.9783C26.8396 15.9567 26.8169 15.9351 26.7934 15.9128C26.63 15.7431 26.5878 15.6076 26.5781 15.3748C26.6679 15.098 26.8716 15.0465 27.1406 15.0935Z" fill="#FFF3A7"/>
<path d="M18.0938 9.65627C18.2472 9.76721 18.3145 9.83905 18.3634 10.0225C18.3093 10.2522 18.1621 10.3818 18.0001 10.5469C17.9614 10.5923 17.9227 10.6378 17.8829 10.6846C17.7326 10.8086 17.6308 10.8246 17.4376 10.8281C17.3135 10.7912 17.2675 10.7568 17.1886 10.6553C17.1386 10.4871 17.1552 10.3884 17.2032 10.2188C17.2999 10.0801 17.4111 9.9622 17.5313 9.84377C17.57 9.8051 17.6087 9.76643 17.6485 9.72658C17.8104 9.62946 17.9083 9.62646 18.0938 9.65627Z" fill="#FFF3A8"/>
<path d="M24.6096 15.1406C24.7629 15.2516 24.8302 15.3234 24.8791 15.5069C24.8251 15.7365 24.678 15.8664 24.5158 16.0313C24.4762 16.0767 24.4366 16.1222 24.3957 16.169C24.2578 16.2856 24.1803 16.3125 24.0002 16.3125C23.8348 16.2373 23.7739 16.184 23.6721 16.0313C23.6665 15.7479 23.7745 15.6082 23.9614 15.4126C23.9897 15.3847 24.0179 15.3568 24.0471 15.3281C24.0858 15.2895 24.1244 15.2508 24.1643 15.211C24.3261 15.1138 24.4241 15.1108 24.6096 15.1406Z" fill="#FFF3A7"/>
<path d="M17.5694 12.5273C17.7991 12.5814 17.9287 12.7286 18.0938 12.8906C18.162 12.9486 18.162 12.9486 18.2315 13.0078C18.3555 13.1581 18.3715 13.2599 18.3751 13.4531C18.3382 13.5773 18.3037 13.6232 18.2022 13.7021C18.0399 13.7504 17.9302 13.7267 17.7657 13.6875C17.6505 13.6128 17.559 13.5223 17.4639 13.4238C17.4386 13.4 17.4132 13.3761 17.3871 13.3515C17.2505 13.2137 17.2064 13.1496 17.1807 12.9509C17.2032 12.7969 17.2032 12.7969 17.3028 12.6592C17.4376 12.5625 17.4376 12.5625 17.5694 12.5273Z" fill="#FFF3A7"/>
<path d="M24.1874 12.2346C24.3314 12.3267 24.445 12.4391 24.5624 12.5627C24.5998 12.5988 24.5998 12.5988 24.638 12.6356C24.7578 12.7604 24.7965 12.842 24.8231 13.0138C24.7968 13.1721 24.7968 13.1721 24.7264 13.2863C24.5986 13.3662 24.4972 13.4028 24.345 13.3965C24.0682 13.3041 23.8102 13.0356 23.6562 12.7921C23.6041 12.6443 23.6364 12.5246 23.6718 12.3752C23.7782 12.1811 23.9912 12.1855 24.1874 12.2346Z" fill="#FFF3A8"/>
<path d="M27.5158 12.1873C27.6774 12.2867 27.6991 12.3575 27.7443 12.5418C27.7329 12.807 27.5323 12.9733 27.36 13.1567C27.1922 13.3021 27.0761 13.3622 26.8537 13.3533C26.7189 13.3123 26.7189 13.3123 26.6311 13.2361C26.5528 13.0709 26.548 12.9784 26.5783 12.7967C26.6721 12.6549 26.7846 12.5396 26.9064 12.4217C26.9425 12.3841 26.9425 12.3841 26.9793 12.3459C27.1522 12.1805 27.2819 12.1483 27.5158 12.1873Z" fill="#FFF3A8"/>
<path d="M14.7017 9.66622C14.9784 9.75859 15.2367 10.0271 15.3904 10.2707C15.4435 10.4203 15.4134 10.5367 15.375 10.6876C15.2694 10.8134 15.1966 10.8265 15.0352 10.8575C14.7818 10.8153 14.6589 10.6805 14.4844 10.5001C14.4594 10.476 14.4343 10.452 14.4086 10.4272C14.289 10.3023 14.2503 10.2207 14.2236 10.0489C14.25 9.89071 14.25 9.89071 14.3203 9.77645C14.4481 9.69656 14.5496 9.65992 14.7017 9.66622Z" fill="#FFF3A7"/>
<path d="M27.7761 13.8017C27.8359 13.8009 27.8359 13.8009 27.8969 13.8001C28.1856 13.8035 28.1856 13.8035 28.3372 13.9165C28.4202 14.0359 28.4494 14.104 28.4529 14.2499C28.3462 14.5142 28.3462 14.5142 28.2185 14.5781C28.0646 14.5929 27.9102 14.5933 27.7556 14.5956C27.6916 14.5983 27.6916 14.5983 27.6262 14.601C27.3111 14.6051 27.3111 14.6051 27.1593 14.4686C27.078 14.3142 27.0613 14.2344 27.0935 14.0624C27.2895 13.7941 27.4678 13.793 27.7761 13.8017Z" fill="#FFF3A7"/>
<path d="M15.2345 12.6094C15.3487 12.6797 15.3487 12.6797 15.422 12.7969C15.4593 13.1085 15.4593 13.1085 15.3735 13.2544C15.3059 13.3334 15.2348 13.4034 15.1583 13.4737C15.1338 13.4984 15.1094 13.5232 15.0841 13.5487C14.9251 13.7017 14.8074 13.7758 14.5782 13.7813C14.4691 13.728 14.3828 13.6797 14.297 13.5938C14.2634 13.4202 14.2501 13.3386 14.297 13.1719C14.554 12.8474 14.7959 12.5716 15.2345 12.6094Z" fill="#FFF3A7"/>
<path d="M14.2471 11.329C14.2851 11.3282 14.3231 11.3274 14.3623 11.3267C14.5266 11.3265 14.6414 11.328 14.7892 11.4035C14.8685 11.4948 14.8914 11.5466 14.9062 11.6659C14.9111 11.6967 14.9159 11.7275 14.9209 11.7593C14.8969 11.923 14.8437 11.9852 14.7188 12.0936C14.5618 12.1274 14.4099 12.1242 14.25 12.12C14.2077 12.1205 14.1654 12.121 14.1218 12.1215C13.8147 12.1181 13.8147 12.1181 13.6609 12.0053C13.5808 11.8869 13.5504 11.8153 13.5469 11.6717C13.7062 11.3292 13.9084 11.3276 14.2471 11.329Z" fill="#FFF3A7"/>
<path d="M23.6248 13.8487C23.6621 13.8482 23.6993 13.8477 23.7376 13.8472C23.923 13.8495 24.0261 13.8629 24.1886 13.9588C24.2861 14.0683 24.3122 14.1064 24.3074 14.2501C24.3075 14.2965 24.3075 14.2965 24.3076 14.3438C24.2663 14.4899 24.2196 14.5382 24.0936 14.6251C23.9369 14.654 23.7838 14.6534 23.6248 14.6514C23.5825 14.6526 23.5402 14.6537 23.4967 14.6548C23.1881 14.6541 23.1881 14.6541 23.0347 14.515C22.9528 14.361 22.9363 14.2814 22.9686 14.1095C23.1614 13.8502 23.3237 13.8397 23.6248 13.8487Z" fill="#FFF3A6"/>
<path d="M18.3752 11.2705C18.4124 11.2694 18.4496 11.2682 18.488 11.2671C18.6909 11.2676 18.7737 11.2787 18.939 11.4069C19.0314 11.5312 19.0314 11.5312 19.0578 11.6718C19.0236 11.8545 18.9824 11.9214 18.8439 12.0468C18.6871 12.081 18.535 12.0774 18.3752 12.0732C18.3329 12.0737 18.2906 12.0742 18.247 12.0748C17.942 12.0714 17.942 12.0714 17.785 11.9632C17.7162 11.855 17.6923 11.7989 17.6926 11.6718C17.6915 11.6409 17.6905 11.61 17.6895 11.5781C17.7895 11.2598 18.0975 11.2666 18.3752 11.2705Z" fill="#FFF3A6"/>
<path d="M16.2658 8.97368C16.2968 8.97362 16.3277 8.97356 16.3596 8.9735C16.5056 9.01485 16.5539 9.06151 16.6408 9.18755C16.6698 9.34422 16.6691 9.49736 16.6672 9.6563C16.6683 9.6986 16.6694 9.74089 16.6706 9.78447C16.6699 10.093 16.6699 10.093 16.5308 10.2464C16.3767 10.3284 16.2972 10.3448 16.1252 10.3125C15.9979 10.2179 15.9057 10.1429 15.869 9.98361C15.8609 9.8736 15.8611 9.76654 15.8645 9.6563C15.8639 9.61908 15.8634 9.58185 15.8629 9.5435C15.8652 9.35816 15.8787 9.25506 15.9745 9.09252C16.084 8.99499 16.1221 8.96891 16.2658 8.97368Z" fill="#FFF3A6"/>
<path d="M25.6876 11.5051C25.7186 11.504 25.7495 11.503 25.7814 11.502C25.9347 11.5502 25.9816 11.6293 26.0626 11.7658C26.0878 11.8996 26.0868 12.0285 26.0831 12.1642C26.0835 12.1992 26.0838 12.2342 26.0841 12.2703C26.0817 12.481 26.0631 12.6296 25.922 12.7971C25.8345 12.8368 25.8345 12.8368 25.7404 12.8469C25.7095 12.8513 25.6787 12.8557 25.647 12.8602C25.484 12.8337 25.421 12.7812 25.3126 12.6564C25.2788 12.4995 25.282 12.3476 25.2863 12.1877C25.2857 12.1454 25.2852 12.1031 25.2847 12.0595C25.2881 11.7545 25.2881 11.7545 25.3963 11.5975C25.5045 11.5287 25.5606 11.5048 25.6876 11.5051Z" fill="#FFF3A6"/>
<path d="M27.2636 27.5596C27.4218 27.6094 27.4218 27.6094 27.5127 27.6885C27.5783 27.8314 27.5852 27.9225 27.5625 28.0781C27.4892 28.1895 27.4892 28.1895 27.375 28.2656C27.1887 28.2922 27.0907 28.2948 26.9326 28.1895C26.836 28.0426 26.8276 27.9696 26.8593 27.7969C26.9858 27.6167 27.0406 27.5634 27.2636 27.5596Z" fill="#FEB6D5"/>
<path d="M14.8418 27.5596C15 27.6094 15 27.6094 15.0908 27.6885C15.1565 27.8314 15.1633 27.9225 15.1406 28.0781C15.0674 28.1895 15.0674 28.1895 14.9531 28.2656C14.7668 28.2922 14.6688 28.2948 14.5107 28.1895C14.4141 28.0426 14.4058 27.9696 14.4375 27.7969C14.564 27.6167 14.6187 27.5634 14.8418 27.5596Z" fill="#FEB6D5"/>
<path d="M25.7814 20.8125C25.8957 20.8887 25.8957 20.8887 25.9689 21C25.9953 21.1377 25.9953 21.1377 25.9689 21.2813C25.8526 21.4386 25.7841 21.5056 25.591 21.545C25.4533 21.5157 25.4533 21.5157 25.342 21.4161C25.2526 21.258 25.2354 21.1786 25.2658 21C25.4037 20.7905 25.5409 20.7782 25.7814 20.8125Z" fill="#FEB7D6"/>
<path d="M16.547 20.8125C16.6613 20.8887 16.6613 20.8887 16.7345 21C16.7609 21.1377 16.7609 21.1377 16.7345 21.2813C16.6182 21.4386 16.5497 21.5056 16.3566 21.545C16.2189 21.5157 16.2189 21.5157 16.1076 21.4161C16.0183 21.258 16.001 21.1786 16.0314 21C16.1693 20.7905 16.3065 20.7782 16.547 20.8125Z" fill="#FEB7D6"/>
<path d="M21.1406 20.8125C21.2549 20.8594 21.2549 20.8594 21.3281 20.9531C21.3547 21.162 21.3668 21.2686 21.252 21.4453C21.1068 21.537 21.0282 21.5438 20.8594 21.5156C20.748 21.4453 20.748 21.4453 20.6719 21.3281C20.6423 21.1627 20.6409 21.0113 20.7217 20.8594C20.866 20.7849 20.9813 20.7957 21.1406 20.8125Z" fill="#FEB7D6"/>
<path d="M21.1407 27.5625C21.252 27.6328 21.252 27.6328 21.3282 27.75C21.3577 27.9147 21.3578 28.0658 21.2813 28.2188C21.1284 28.2952 20.9796 28.29 20.8125 28.2656C20.7188 28.2188 20.7188 28.2188 20.6719 28.125C20.6363 27.8048 20.6363 27.8048 20.7481 27.6328C20.8932 27.5411 20.9719 27.5344 21.1407 27.5625Z" fill="#FEB7D7"/>
</g>
<defs>
<clipPath id="clip0_7518_14586">
<rect width="24" height="24" fill="white" transform="translate(9 9)"/>
</clipPath>
</defs>
</svg>
