<svg width="42" height="42" viewBox="0 0 42 42" fill="none" xmlns="http://www.w3.org/2000/svg">
<rect width="42" height="42" rx="21" fill="#FFC6AC"/>
<g clip-path="url(#clip0_7518_14563)">
<path d="M20.4373 14.2253C20.4821 14.2251 20.5268 14.2249 20.5728 14.2247C20.6671 14.2246 20.7613 14.2249 20.8555 14.2257C20.9994 14.2267 21.1431 14.2257 21.2869 14.2245C21.3787 14.2247 21.4705 14.2249 21.5623 14.2253C21.6265 14.2247 21.6265 14.2247 21.692 14.2241C21.9536 14.228 22.1049 14.2632 22.3123 14.4377C22.4824 14.6167 22.5144 14.7603 22.5233 15.0002C22.5144 15.24 22.4824 15.3836 22.3123 15.5627C22.098 15.7397 22.0426 15.7502 21.7498 15.7502C21.7498 15.9977 21.7498 16.2452 21.7498 16.5002C21.8452 16.499 21.9405 16.4979 22.0388 16.4967C22.3733 16.4969 22.7007 16.5192 23.033 16.5558C23.0895 16.562 23.146 16.5682 23.2042 16.5746C25.0029 16.7851 26.7675 17.3117 28.078 18.6095C28.113 18.6418 28.1481 18.674 28.1842 18.7071C29.5633 19.9967 29.9369 22.1703 30.0057 23.9649C30.0107 24.2269 30.0081 24.4883 29.9998 24.7502C30.0432 24.7486 30.0866 24.747 30.1313 24.7454C30.3789 24.7533 30.5083 24.8808 30.6737 25.0549C30.7861 25.297 30.7852 25.5189 30.7498 25.7814C30.6416 26.0145 30.5028 26.1254 30.2811 26.2502C30.1551 26.2675 30.0489 26.2748 29.9234 26.2727C29.8883 26.2729 29.8532 26.273 29.8171 26.2732C29.7 26.2735 29.5831 26.2725 29.466 26.2715C29.3819 26.2714 29.2978 26.2714 29.2137 26.2715C28.9858 26.2716 28.7578 26.2705 28.5299 26.2692C28.2915 26.268 28.0532 26.2679 27.8148 26.2677C27.3636 26.2671 26.9124 26.2656 26.4612 26.2637C25.9474 26.2616 25.4337 26.2605 24.9199 26.2596C23.8632 26.2576 22.8065 26.2543 21.7498 26.2502C21.7498 26.4977 21.7498 26.7452 21.7498 27.0002C21.8467 26.9998 21.9436 26.9993 22.0434 26.9989C22.9552 26.9951 23.8671 26.9923 24.7789 26.9905C25.2477 26.9895 25.7165 26.9882 26.1854 26.986C26.594 26.9842 27.0026 26.9829 27.4112 26.9825C27.6276 26.9823 27.8439 26.9817 28.0603 26.9803C28.264 26.9791 28.4676 26.9787 28.6713 26.979C28.7461 26.9789 28.8208 26.9785 28.8955 26.9778C28.9976 26.9769 29.0997 26.9771 29.2019 26.9776C29.259 26.9775 29.3161 26.9773 29.375 26.9771C29.6126 27.0122 29.7569 27.1259 29.9149 27.3019C30.0194 27.5073 30.0575 27.7061 30.098 27.932C30.1466 28.0993 30.2061 28.189 30.328 28.3127C30.4234 28.3662 30.4234 28.3662 30.5272 28.3918C30.564 28.4027 30.6008 28.4136 30.6387 28.4249C30.709 28.4429 30.7797 28.4595 30.8507 28.4744C31.0847 28.5233 31.2454 28.6059 31.4061 28.7814C31.4639 28.8969 31.5063 28.9966 31.5456 29.1176C31.5627 29.1665 31.5627 29.1665 31.58 29.2163C31.6042 29.2856 31.6279 29.3551 31.6513 29.4247C31.6871 29.5308 31.7244 29.6362 31.7622 29.7415C31.826 29.9199 31.8879 30.0988 31.9489 30.2781C31.9739 30.3511 31.9993 30.424 32.025 30.4967C32.3797 31.5018 32.3797 31.5018 32.1737 31.9455C32.0014 32.1268 31.8607 32.2394 31.6082 32.2737C31.5423 32.2747 31.4764 32.2746 31.4105 32.2738C31.3739 32.274 31.3372 32.2743 31.2995 32.2746C31.1765 32.2753 31.0535 32.2746 30.9306 32.274C30.8416 32.2742 30.7526 32.2745 30.6636 32.2749C30.4189 32.2757 30.1743 32.2753 29.9296 32.2747C29.6658 32.2743 29.402 32.2749 29.1382 32.2754C28.6213 32.2763 28.1045 32.2761 27.5876 32.2755C27.1676 32.2751 26.7477 32.2751 26.3277 32.2753C26.268 32.2753 26.2082 32.2753 26.1467 32.2753C26.0254 32.2754 25.9041 32.2755 25.7827 32.2755C24.677 32.2761 23.5712 32.2755 22.4655 32.2745C21.4559 32.2736 20.4464 32.2737 19.4368 32.2746C18.3028 32.2756 17.1687 32.276 16.0346 32.2754C15.9138 32.2754 15.7929 32.2753 15.672 32.2753C15.6125 32.2752 15.553 32.2752 15.4918 32.2752C15.0722 32.275 14.6526 32.2753 14.233 32.2757C13.7218 32.2763 13.2107 32.2761 12.6995 32.2751C12.4386 32.2746 12.1777 32.2744 11.9167 32.275C11.678 32.2756 11.4393 32.2753 11.2006 32.2743C11.1141 32.2741 11.0276 32.2742 10.9411 32.2747C10.8238 32.2752 10.7065 32.2746 10.5892 32.2738C10.5554 32.2742 10.5216 32.2746 10.4868 32.2751C10.2513 32.2716 10.1197 32.2087 9.93734 32.0627C9.72967 31.8441 9.73322 31.6578 9.73751 31.3717C9.75715 31.1283 9.82738 30.9113 9.90731 30.6817C9.92351 30.6332 9.93971 30.5847 9.95641 30.5348C9.99053 30.4333 10.0251 30.3319 10.06 30.2306C10.1132 30.0761 10.1651 29.9211 10.2168 29.766C10.2502 29.6669 10.2838 29.5678 10.3175 29.4688C10.3329 29.4228 10.3483 29.3768 10.3642 29.3294C10.4899 28.9675 10.611 28.6821 10.9686 28.5002C11.1223 28.462 11.2757 28.4299 11.4317 28.402C11.599 28.3534 11.6887 28.2939 11.8123 28.172C11.8658 28.0766 11.8658 28.0766 11.8914 27.9728C11.9024 27.936 11.9133 27.8992 11.9246 27.8613C11.9425 27.791 11.9592 27.7203 11.974 27.6493C12.0308 27.378 12.1265 27.196 12.3627 27.0401C12.5075 26.9855 12.6318 26.9887 12.7865 26.9889C12.8185 26.9888 12.8504 26.9887 12.8833 26.9887C12.9903 26.9885 13.0972 26.989 13.2042 26.9895C13.2809 26.9896 13.3575 26.9895 13.4342 26.9895C13.6424 26.9895 13.8507 26.99 14.0589 26.9907C14.2764 26.9913 14.494 26.9913 14.7116 26.9914C15.1237 26.9917 15.5357 26.9925 15.9477 26.9934C16.4168 26.9945 16.8859 26.995 17.355 26.9955C18.3199 26.9964 19.2849 26.9981 20.2498 27.0002C20.2498 26.7527 20.2498 26.5052 20.2498 26.2502C20.1436 26.2506 20.0373 26.251 19.9279 26.2514C18.9277 26.2553 17.9276 26.2581 16.9274 26.2599C16.4132 26.2609 15.899 26.2622 15.3847 26.2643C14.9366 26.2662 14.4884 26.2674 14.0402 26.2678C13.8029 26.2681 13.5656 26.2686 13.3283 26.27C13.1049 26.2713 12.8815 26.2717 12.6581 26.2714C12.5762 26.2714 12.4942 26.2718 12.4122 26.2725C12.3002 26.2735 12.1883 26.2732 12.0763 26.2727C12.0439 26.2733 12.0115 26.2738 11.9782 26.2744C11.7462 26.2715 11.617 26.2057 11.4373 26.0627C11.2673 25.8836 11.2353 25.74 11.2264 25.5002C11.2353 25.2603 11.2673 25.1167 11.4373 24.9377C11.6354 24.7741 11.7474 24.741 11.9998 24.7502C11.9974 24.6664 11.9974 24.6664 11.9949 24.581C11.9533 22.4629 12.3781 20.2264 13.869 18.6413C14.4236 18.0699 15.074 17.6688 15.7967 17.3439C15.8519 17.319 15.907 17.294 15.9639 17.2683C17.2916 16.7043 18.8125 16.4686 20.2498 16.5002C20.2498 16.2527 20.2498 16.0052 20.2498 15.7502C20.157 15.7502 20.0642 15.7502 19.9686 15.7502C19.745 15.6339 19.6063 15.5107 19.4998 15.2814C19.4645 15.0189 19.4636 14.797 19.576 14.5549C19.8482 14.2684 20.058 14.2219 20.4373 14.2253Z" fill="#E6B623"/>
<path d="M12.7573 26.9878C12.817 26.9875 12.8766 26.9872 12.9381 26.9868C13.0044 26.987 13.0707 26.9871 13.137 26.9873C13.2073 26.9871 13.2777 26.9869 13.348 26.9866C13.5416 26.9861 13.7352 26.9861 13.9287 26.9862C14.1374 26.9862 14.3461 26.9857 14.5547 26.9852C14.9636 26.9845 15.3725 26.9842 15.7814 26.9842C16.1137 26.9841 16.446 26.9839 16.7783 26.9836C17.7199 26.9828 18.6616 26.9824 19.6033 26.9824C19.6795 26.9824 19.6795 26.9824 19.7572 26.9824C19.8334 26.9825 19.8334 26.9825 19.9113 26.9825C20.7355 26.9825 21.5598 26.9816 22.3841 26.9803C23.23 26.9789 24.0759 26.9783 24.9219 26.9784C25.397 26.9784 25.8721 26.9781 26.3472 26.9771C26.7516 26.9763 27.1561 26.9761 27.5606 26.9767C27.767 26.977 27.9734 26.977 28.1799 26.9762C28.3688 26.9755 28.5577 26.9756 28.7466 26.9764C28.815 26.9766 28.8834 26.9764 28.9518 26.9759C29.0447 26.9752 29.1376 26.9758 29.2305 26.9765C29.308 26.9765 29.308 26.9765 29.387 26.9764C29.6163 27.0136 29.7623 27.1315 29.9149 27.3016C30.0194 27.5069 30.0575 27.7057 30.098 27.9316C30.1466 28.099 30.2061 28.1887 30.328 28.3123C30.4234 28.3658 30.4234 28.3658 30.5272 28.3914C30.564 28.4024 30.6008 28.4133 30.6387 28.4246C30.709 28.4425 30.7797 28.4592 30.8507 28.474C31.0847 28.523 31.2454 28.6056 31.4061 28.7811C31.4639 28.8965 31.5063 28.9962 31.5456 29.1173C31.5627 29.1661 31.5627 29.1661 31.58 29.2159C31.6042 29.2853 31.6279 29.3548 31.6513 29.4244C31.6871 29.5304 31.7244 29.6358 31.7622 29.7412C31.826 29.9195 31.8879 30.0984 31.9489 30.2777C31.9739 30.3507 31.9993 30.4236 32.025 30.4964C32.3797 31.5014 32.3797 31.5014 32.1737 31.9451C32.0014 32.1265 31.8607 32.239 31.6082 32.2733C31.5423 32.2743 31.4764 32.2743 31.4105 32.2734C31.3739 32.2737 31.3372 32.274 31.2995 32.2742C31.1765 32.2749 31.0535 32.2743 30.9306 32.2736C30.8416 32.2738 30.7526 32.2741 30.6636 32.2745C30.4189 32.2753 30.1743 32.2749 29.9296 32.2743C29.6658 32.2739 29.402 32.2746 29.1382 32.2751C28.6213 32.2759 28.1045 32.2757 27.5876 32.2752C27.1676 32.2748 26.7477 32.2747 26.3277 32.2749C26.268 32.2749 26.2082 32.275 26.1467 32.275C26.0254 32.2751 25.9041 32.2751 25.7827 32.2752C24.677 32.2757 23.5712 32.2752 22.4655 32.2742C21.4559 32.2733 20.4464 32.2734 19.4368 32.2743C18.3028 32.2753 17.1687 32.2757 16.0346 32.2751C15.9138 32.275 15.7929 32.275 15.672 32.2749C15.6125 32.2749 15.553 32.2749 15.4918 32.2748C15.0722 32.2747 14.6526 32.2749 14.233 32.2754C13.7218 32.2759 13.2107 32.2758 12.6995 32.2748C12.4386 32.2743 12.1777 32.2741 11.9167 32.2747C11.678 32.2753 11.4393 32.2749 11.2006 32.2739C11.1141 32.2737 11.0276 32.2738 10.9411 32.2743C10.8238 32.2749 10.7065 32.2743 10.5892 32.2734C10.5554 32.2739 10.5216 32.2743 10.4868 32.2747C10.2513 32.2712 10.1197 32.2083 9.93734 32.0623C9.72968 31.8437 9.73322 31.6574 9.73751 31.3714C9.75715 31.128 9.82738 30.9109 9.90731 30.6813C9.92351 30.6329 9.93971 30.5844 9.95641 30.5344C9.99053 30.4329 10.0251 30.3315 10.06 30.2303C10.1132 30.0757 10.1651 29.9207 10.2168 29.7656C10.2502 29.6665 10.2838 29.5675 10.3175 29.4684C10.3329 29.4224 10.3483 29.3764 10.3642 29.3291C10.4899 28.9671 10.611 28.6818 10.9686 28.4998C11.1223 28.4617 11.2757 28.4296 11.4317 28.4017C11.599 28.3531 11.6887 28.2936 11.8123 28.1717C11.8658 28.0762 11.8658 28.0762 11.8914 27.9725C11.9024 27.9357 11.9133 27.8989 11.9246 27.861C11.9425 27.7906 11.9592 27.72 11.974 27.6489C12.0268 27.3967 12.1025 27.2722 12.2811 27.0936C12.4397 26.9912 12.5706 26.988 12.7573 26.9878Z" fill="#2E8789"/>
<path d="M21 16.5C21 19.2225 21 21.945 21 24.75C18.03 24.75 15.06 24.75 12 24.75C12 23.6016 12 23.6016 12.0586 23.1064C12.065 23.0508 12.0714 22.9952 12.078 22.9379C12.2981 21.1075 12.9108 19.3514 14.3874 18.1614C14.8247 17.8287 15.2967 17.5686 15.7969 17.3438C15.8796 17.3063 15.8796 17.3063 15.9641 17.2681C17.5653 16.5879 19.2828 16.5 21 16.5Z" fill="#FFCA27"/>
<path d="M12.815 26.9888C12.85 26.9888 12.885 26.9887 12.9211 26.9886C13.0384 26.9884 13.1557 26.989 13.273 26.9895C13.3571 26.9895 13.4412 26.9895 13.5252 26.9894C13.7536 26.9894 13.982 26.99 14.2103 26.9906C14.4489 26.9912 14.6875 26.9912 14.9261 26.9914C15.378 26.9917 15.8299 26.9924 16.2818 26.9934C16.8924 26.9946 17.5029 26.9951 18.1135 26.9957C19.0756 26.9965 20.0377 26.9984 20.9998 27.0001C20.9998 28.7326 20.9998 30.4651 20.9998 32.2501C18.3075 32.2577 18.3075 32.2577 17.1812 32.2593C16.9238 32.2596 16.6664 32.26 16.409 32.2604C16.3768 32.2605 16.3445 32.2605 16.3113 32.2606C15.7905 32.2614 15.2697 32.2629 14.7489 32.2646C14.2145 32.2663 13.68 32.2674 13.1456 32.2678C12.8454 32.268 12.5452 32.2686 12.245 32.2699C11.9625 32.2712 11.68 32.2716 11.3975 32.2713C11.2938 32.2714 11.1901 32.2717 11.0863 32.2725C10.9448 32.2734 10.8033 32.2732 10.6617 32.2727C10.6206 32.2732 10.5794 32.2738 10.5371 32.2743C10.2827 32.2718 10.1396 32.2308 9.93734 32.0626C9.72967 31.844 9.73322 31.6577 9.73751 31.3716C9.75715 31.1283 9.82738 30.9112 9.90731 30.6816C9.92351 30.6332 9.93971 30.5847 9.95641 30.5347C9.99053 30.4332 10.0251 30.3318 10.06 30.2306C10.1132 30.076 10.1651 29.921 10.2168 29.7659C10.2502 29.6668 10.2838 29.5678 10.3175 29.4687C10.3329 29.4227 10.3483 29.3767 10.3642 29.3293C10.4899 28.9674 10.611 28.6821 10.9686 28.5001C11.1223 28.462 11.2757 28.4299 11.4317 28.402C11.599 28.3534 11.6887 28.2939 11.8123 28.172C11.8658 28.0765 11.8658 28.0765 11.8914 27.9728C11.9024 27.936 11.9133 27.8992 11.9246 27.8613C11.9425 27.7909 11.9592 27.7203 11.974 27.6492C12.0308 27.3777 12.1266 27.1982 12.3609 27.04C12.5117 26.9842 12.6564 26.9875 12.815 26.9888Z" fill="#449C9E"/>
<path d="M12.0425 24.7264C12.074 24.7261 12.1056 24.7258 12.1382 24.7256C12.2439 24.7249 12.3496 24.7255 12.4554 24.7262C12.532 24.726 12.6086 24.7257 12.6852 24.7253C12.8957 24.7245 13.1061 24.7249 13.3166 24.7255C13.5436 24.7259 13.7706 24.7252 13.9976 24.7247C14.4423 24.7239 14.8869 24.7241 15.3316 24.7246C15.6929 24.725 16.0543 24.7251 16.4156 24.7249C16.467 24.7249 16.5184 24.7248 16.5714 24.7248C16.6758 24.7247 16.7802 24.7247 16.8846 24.7246C17.864 24.7241 18.8434 24.7247 19.8228 24.7257C20.6634 24.7265 21.5041 24.7264 22.3447 24.7255C23.3206 24.7245 24.2964 24.7241 25.2723 24.7247C25.3763 24.7248 25.4804 24.7248 25.5844 24.7249C25.6356 24.7249 25.6868 24.7249 25.7395 24.725C26.1005 24.7251 26.4614 24.7249 26.8224 24.7244C27.2622 24.7239 27.702 24.724 28.1418 24.725C28.3663 24.7255 28.5908 24.7257 28.8152 24.7251C29.0206 24.7245 29.226 24.7248 29.4314 24.7258C29.5058 24.7261 29.5802 24.7259 29.6546 24.7255C29.7556 24.7249 29.8565 24.7255 29.9575 24.7264C30.0137 24.7264 30.0698 24.7264 30.1276 24.7265C30.3664 24.763 30.5105 24.8827 30.6738 25.0547C30.7862 25.2968 30.7853 25.5187 30.75 25.7812C30.6418 26.0143 30.503 26.1252 30.2812 26.25C30.1552 26.2673 30.049 26.2746 29.9235 26.2725C29.8885 26.2727 29.8534 26.2728 29.8173 26.273C29.7002 26.2733 29.5832 26.2723 29.4662 26.2713C29.3821 26.2712 29.298 26.2712 29.2139 26.2713C28.9859 26.2714 28.758 26.2703 28.53 26.269C28.2917 26.2678 28.0533 26.2677 27.815 26.2675C27.3637 26.2669 26.9125 26.2654 26.4613 26.2635C25.9476 26.2614 25.4338 26.2604 24.9201 26.2594C23.8634 26.2575 22.8067 26.2541 21.75 26.25C21.75 26.4975 21.75 26.745 21.75 27C21.255 27 20.76 27 20.25 27C20.25 26.7525 20.25 26.505 20.25 26.25C20.1437 26.2504 20.0375 26.2508 19.928 26.2512C18.9279 26.2551 17.9277 26.2579 16.9276 26.2597C16.4133 26.2607 15.8991 26.262 15.3849 26.2641C14.9367 26.266 14.4886 26.2672 14.0404 26.2676C13.8031 26.2679 13.5658 26.2684 13.3284 26.2698C13.1051 26.2711 12.8817 26.2715 12.6583 26.2712C12.5763 26.2712 12.4944 26.2716 12.4124 26.2723C12.3004 26.2733 12.1884 26.273 12.0765 26.2725C12.0441 26.2731 12.0117 26.2736 11.9783 26.2742C11.7464 26.2713 11.6172 26.2055 11.4375 26.0625C11.2674 25.8834 11.2355 25.7398 11.2266 25.5C11.2355 25.2601 11.2674 25.1165 11.4375 24.9375C11.6455 24.7748 11.7793 24.7265 12.0425 24.7264Z" fill="#E6A100"/>
<path d="M12.1049 24.7276C12.1431 24.7274 12.1812 24.7273 12.2205 24.7271C12.3479 24.7268 12.4753 24.7278 12.6027 24.7289C12.6941 24.7289 12.7856 24.7289 12.8771 24.7288C13.1252 24.7287 13.3733 24.7298 13.6214 24.7311C13.8808 24.7323 14.1402 24.7324 14.3995 24.7326C14.8906 24.7332 15.3817 24.7348 15.8727 24.7366C16.4318 24.7387 16.9909 24.7398 17.55 24.7407C18.7 24.7427 19.85 24.7461 21 24.7501C21 25.4926 21 26.2351 21 27.0001C20.7525 27.0001 20.505 27.0001 20.25 27.0001C20.25 26.7526 20.25 26.5051 20.25 26.2501C20.1437 26.2506 20.0375 26.251 19.928 26.2514C18.9279 26.2552 17.9277 26.258 16.9276 26.2599C16.4133 26.2608 15.8991 26.2621 15.3849 26.2643C14.9367 26.2662 14.4886 26.2674 14.0404 26.2678C13.8031 26.268 13.5658 26.2686 13.3284 26.27C13.1051 26.2712 12.8817 26.2716 12.6583 26.2713C12.5763 26.2714 12.4944 26.2718 12.4124 26.2725C12.3004 26.2734 12.1884 26.2732 12.0765 26.2727C12.0441 26.2732 12.0117 26.2738 11.9783 26.2743C11.7464 26.2715 11.6172 26.2057 11.4375 26.0626C11.2674 25.8836 11.2355 25.74 11.2266 25.5001C11.2355 25.2603 11.2674 25.1167 11.4375 24.9376C11.6577 24.7598 11.8292 24.7233 12.1049 24.7276Z" fill="#FFB300"/>
<path d="M23.0623 19.5937C23.1177 19.5978 23.1731 19.602 23.2302 19.6063C24.2934 19.7149 25.4089 20.1055 26.118 20.9355C26.4649 21.3912 26.8032 22.0023 26.7786 22.5906C26.7485 22.8119 26.65 22.9557 26.4871 23.1005C26.2957 23.2372 26.2957 23.2372 26.156 23.2499C26.1058 23.2557 26.0555 23.2615 26.0037 23.2675C25.7724 23.2444 25.6279 23.1665 25.4529 23.0155C25.3282 22.8402 25.2619 22.6832 25.198 22.4794C25.0747 22.0929 24.858 21.7851 24.5154 21.5624C23.913 21.2729 23.3305 21.1718 22.6694 21.1087C22.3159 21.0695 22.1381 21.0007 21.8758 20.7597C21.7606 20.5635 21.7413 20.3818 21.7498 20.1562C21.8268 19.8798 21.9448 19.7543 22.1717 19.5937C22.4506 19.5007 22.7714 19.5693 23.0623 19.5937Z" fill="#E6A100"/>
<path d="M20.4376 14.2253C20.4823 14.2251 20.527 14.2249 20.5731 14.2247C20.6673 14.2246 20.7616 14.2249 20.8558 14.2257C20.9996 14.2267 21.1434 14.2257 21.2872 14.2245C21.379 14.2247 21.4708 14.2249 21.5626 14.2253C21.6268 14.2247 21.6268 14.2247 21.6922 14.2241C21.9539 14.228 22.1052 14.2632 22.3126 14.4377C22.4827 14.6167 22.5146 14.7603 22.5235 15.0002C22.5146 15.24 22.4827 15.3836 22.3126 15.5627C22.0983 15.7397 22.0429 15.7502 21.7501 15.7502C21.7501 15.9977 21.7501 16.2452 21.7501 16.5002C21.2551 16.5002 20.7601 16.5002 20.2501 16.5002C20.2501 16.2527 20.2501 16.0052 20.2501 15.7502C20.1573 15.7502 20.0645 15.7502 19.9688 15.7502C19.7452 15.6339 19.6065 15.5107 19.5001 15.2814C19.4648 15.0189 19.4639 14.797 19.5763 14.5549C19.8484 14.2684 20.0583 14.2219 20.4376 14.2253Z" fill="#E6A100"/>
<path d="M21.2814 9.75012C21.5142 9.85819 21.6292 9.99484 21.7502 10.2189C21.7769 10.3753 21.7765 10.5292 21.7751 10.6876C21.7753 10.7323 21.7754 10.777 21.7756 10.8231C21.7757 10.9174 21.7754 11.0116 21.7746 11.1058C21.7736 11.2497 21.7746 11.3934 21.7758 11.5372C21.7757 11.629 21.7754 11.7208 21.7751 11.8126C21.7755 11.8554 21.7758 11.8982 21.7762 11.9423C21.7724 12.2039 21.7372 12.3552 21.5627 12.5626C21.3836 12.7327 21.24 12.7646 21.0002 12.7736C20.7603 12.7646 20.6167 12.7327 20.4377 12.5626C20.2301 12.3159 20.2225 12.1209 20.2253 11.8126C20.2251 11.7679 20.2249 11.7232 20.2247 11.6771C20.2246 11.5829 20.2249 11.4886 20.2257 11.3944C20.2267 11.2506 20.2257 11.1068 20.2245 10.963C20.2247 10.8712 20.2249 10.7794 20.2253 10.6876C20.2249 10.6448 20.2245 10.6021 20.2241 10.558C20.228 10.2963 20.2632 10.1451 20.4377 9.93762C20.6848 9.70288 20.9584 9.70663 21.2814 9.75012Z" fill="#82B6E1"/>
<path d="M29.5314 11.9998C29.7603 12.1061 29.8938 12.2396 30.0001 12.4686C30.038 12.75 30.054 12.9944 29.8799 13.2324C29.7273 13.4136 29.5589 13.5794 29.3907 13.7459C29.3529 13.7841 29.3151 13.8223 29.2761 13.8617C29.2395 13.8982 29.2029 13.9346 29.1652 13.9722C29.132 14.0053 29.0988 14.0384 29.0646 14.0725C28.8409 14.2678 28.6446 14.2701 28.3555 14.2645C28.107 14.2378 27.992 14.1196 27.8263 13.9452C27.7162 13.7081 27.7046 13.4756 27.7501 13.2186C27.8981 12.9369 28.1353 12.7258 28.3595 12.5037C28.3973 12.4656 28.4352 12.4274 28.4741 12.388C28.5107 12.3515 28.5474 12.315 28.5851 12.2774C28.6348 12.2278 28.6348 12.2278 28.6856 12.1772C28.9393 11.9557 29.2075 11.9651 29.5314 11.9998Z" fill="#82B6E1"/>
<path d="M13.0312 12.0001C13.3129 12.1481 13.524 12.3853 13.746 12.6095C13.7842 12.6473 13.8224 12.6852 13.8617 12.7241C13.8982 12.7607 13.9347 12.7974 13.9723 12.8351C14.0054 12.8683 14.0385 12.9014 14.0725 12.9356C14.2679 13.1593 14.2702 13.3557 14.2646 13.6448C14.2379 13.8933 14.1197 14.0082 13.9452 14.174C13.7082 14.284 13.4757 14.2956 13.2187 14.2501C12.9369 14.1022 12.7259 13.865 12.5038 13.6407C12.4656 13.6029 12.4275 13.5651 12.3881 13.5261C12.3516 13.4895 12.3151 13.4529 12.2775 13.4152C12.2444 13.382 12.2114 13.3488 12.1773 13.3146C11.9819 13.0909 11.9797 12.8946 11.9853 12.6055C12.0119 12.357 12.1302 12.242 12.3046 12.0763C12.5417 11.9662 12.7742 11.9546 13.0312 12.0001Z" fill="#90CAF9"/>
<path d="M21.0001 14.2501C21.0001 14.9926 21.0001 15.7351 21.0001 16.5001C20.7526 16.5001 20.5051 16.5001 20.2501 16.5001C20.2501 16.2526 20.2501 16.0051 20.2501 15.7501C20.1573 15.7501 20.0645 15.7501 19.9688 15.7501C19.7452 15.6338 19.6065 15.5106 19.5001 15.2814C19.4648 15.0189 19.4639 14.7969 19.5763 14.5548C20.0281 14.0792 20.2219 14.2501 21.0001 14.2501Z" fill="#FFB300"/>
<path d="M21.0002 9.75C21.0002 10.74 21.0002 11.73 21.0002 12.75C20.7074 12.75 20.652 12.7395 20.4377 12.5625C20.2291 12.3172 20.2225 12.12 20.2253 11.8125C20.2251 11.7678 20.2249 11.7231 20.2247 11.677C20.2246 11.5828 20.2249 11.4885 20.2257 11.3943C20.2267 11.2505 20.2257 11.1067 20.2245 10.9629C20.2247 10.8711 20.2249 10.7793 20.2253 10.6875C20.2249 10.6447 20.2245 10.6019 20.2241 10.5579C20.2279 10.2966 20.2622 10.1438 20.4377 9.9375C20.652 9.76045 20.7074 9.75 21.0002 9.75Z" fill="#90C9F9"/>
<path d="M21 26.25C21.2475 26.25 21.495 26.25 21.75 26.25C21.75 26.4975 21.75 26.745 21.75 27C21.5025 27 21.255 27 21 27C21 26.7525 21 26.505 21 26.25Z" fill="#E68100"/>
<path d="M20.25 26.25C20.4975 26.25 20.745 26.25 21 26.25C21 26.4975 21 26.745 21 27C20.7525 27 20.505 27 20.25 27C20.25 26.7525 20.25 26.505 20.25 26.25Z" fill="#FF8F00"/>
</g>
<defs>
<clipPath id="clip0_7518_14563">
<rect width="24" height="24" fill="white" transform="translate(9 9)"/>
</clipPath>
</defs>
</svg>
