<svg width="42" height="42" viewBox="0 0 42 42" fill="none" xmlns="http://www.w3.org/2000/svg">
<rect width="42" height="42" rx="21" fill="#FFC6AC"/>
<path d="M19.875 9C20.0707 9.01217 20.158 9.07497 20.2881 9.2168C20.4081 9.34307 20.528 9.46365 20.6602 9.57715C20.8212 9.71575 20.9784 9.85809 21.1348 10.002C21.1831 10.0463 21.2314 10.0907 21.2798 10.1351C21.3707 10.2186 21.4615 10.3022 21.5522 10.3859C21.5924 10.4226 21.6325 10.4593 21.6738 10.4971C21.709 10.5294 21.7442 10.5617 21.7804 10.595C21.8168 10.6255 21.8531 10.6561 21.8906 10.6875C21.9273 10.7225 21.9639 10.7575 22.0017 10.7936C22.1535 10.8926 22.2616 10.8754 22.4367 10.8447C22.5431 10.8211 22.6492 10.7962 22.7551 10.7703C22.8113 10.7575 22.8676 10.7448 22.9256 10.7316C23.1053 10.6907 23.2846 10.6481 23.4639 10.6055C23.6434 10.5638 23.823 10.5225 24.0027 10.4813C24.1144 10.4556 24.226 10.4296 24.3376 10.4031C24.3883 10.3912 24.439 10.3793 24.4912 10.3671C24.5356 10.3566 24.5801 10.346 24.6258 10.3351C24.7483 10.3128 24.8602 10.3083 24.9844 10.3125C25.0946 10.6523 25.2047 10.9921 25.3144 11.332C25.3654 11.4898 25.4164 11.6476 25.4676 11.8054C25.5265 11.9867 25.585 12.1681 25.6436 12.3495C25.6712 12.4346 25.6712 12.4346 25.6995 12.5213C25.7164 12.5739 25.7333 12.6264 25.7507 12.6806C25.7657 12.7269 25.7806 12.7732 25.7961 12.8209C25.8281 12.9375 25.8281 12.9375 25.8281 13.0781C25.8863 13.09 25.9445 13.1019 26.0044 13.1142C26.2763 13.1747 26.5391 13.2592 26.8039 13.3451C26.8553 13.3616 26.9067 13.3781 26.9597 13.3951C27.1226 13.4475 27.2854 13.5001 27.4482 13.5527C27.5592 13.5885 27.6702 13.6242 27.7812 13.6599C28.0521 13.747 28.323 13.8344 28.5938 13.9219C28.5358 14.2892 28.4667 14.6519 28.385 15.0146C28.3635 15.1124 28.342 15.2101 28.3206 15.3078C28.2871 15.4596 28.2535 15.6113 28.2193 15.763C28.1861 15.9109 28.1536 16.0589 28.1213 16.207C28.1057 16.2752 28.1057 16.2752 28.0897 16.3448C28.0761 16.4082 28.0761 16.4082 28.0621 16.4729C28.0539 16.5099 28.0456 16.547 28.0371 16.5851C28.0281 16.7423 28.0936 16.8347 28.1878 16.9556C28.2125 16.9831 28.2372 17.0107 28.2627 17.0391C28.2916 17.0715 28.3206 17.1038 28.3504 17.1372C28.4928 17.2936 28.6358 17.4496 28.7791 17.6052C28.9237 17.7626 29.0653 17.9221 29.2048 18.084C29.2819 18.1707 29.3604 18.2552 29.4402 18.3393C29.4658 18.3664 29.4914 18.3935 29.5177 18.4214C29.5688 18.4755 29.6202 18.5293 29.672 18.5828C29.8889 18.8128 29.8889 18.8128 29.9062 18.9844C29.8236 19.0914 29.7432 19.1822 29.6484 19.2773C29.5957 19.3322 29.5431 19.3871 29.4904 19.442C29.4649 19.4683 29.4393 19.4946 29.413 19.5217C29.3313 19.6067 29.2535 19.6946 29.1768 19.7842C29.0419 19.9401 28.9032 20.0924 28.7637 20.2441C28.7418 20.268 28.7199 20.2919 28.6973 20.3166C28.5904 20.4332 28.483 20.5494 28.3748 20.6649C28.3368 20.7059 28.2989 20.7469 28.2598 20.7891C28.2258 20.8253 28.1918 20.8616 28.1569 20.8989C28.0737 21.0057 28.051 21.0557 28.0312 21.1875C28.0459 21.3124 28.0459 21.3124 28.0783 21.4475C28.0897 21.4996 28.1011 21.5517 28.1129 21.6054C28.1256 21.6614 28.1383 21.7174 28.1514 21.7751C28.164 21.8328 28.1767 21.8904 28.1897 21.9498C28.2303 22.1343 28.2713 22.3186 28.3125 22.5029C28.3537 22.6874 28.3947 22.8719 28.4353 23.0565C28.4605 23.1715 28.4861 23.2864 28.5121 23.4012C28.5235 23.4531 28.5349 23.505 28.5467 23.5585C28.5569 23.6043 28.5672 23.6501 28.5777 23.6972C28.5938 23.8125 28.5938 23.8125 28.5469 23.9531C28.4569 23.9979 28.4569 23.9979 28.3374 24.0364C28.2928 24.0512 28.2482 24.0659 28.2022 24.081C28.1292 24.1041 28.1292 24.1041 28.0547 24.1276C28.0048 24.1439 27.9549 24.1601 27.9034 24.1768C27.7974 24.2111 27.6913 24.2452 27.5852 24.279C27.4237 24.3305 27.2625 24.3827 27.1013 24.4352C26.9982 24.4684 26.8951 24.5017 26.792 24.5349C26.7441 24.5503 26.6962 24.5658 26.6468 24.5818C26.3757 24.6679 26.1068 24.7397 25.8281 24.7969C25.8524 25.0576 25.9035 25.2796 26.0037 25.5223C26.0236 25.572 26.0236 25.572 26.0438 25.6226C26.0726 25.6945 26.1015 25.7662 26.1307 25.8379C26.178 25.9543 26.2248 26.0708 26.2715 26.1875C26.3215 26.3125 26.3715 26.4375 26.4217 26.5624C26.6147 27.043 26.8029 27.5254 26.9912 28.0078C27.0617 28.1882 27.1322 28.3687 27.2027 28.5491C27.2204 28.5943 27.238 28.6395 27.2563 28.6861C27.3713 28.9803 27.4867 29.2744 27.6024 29.5683C27.6814 29.7692 27.7604 29.9702 27.8394 30.1711C27.8773 30.2676 27.9153 30.364 27.9533 30.4604C28.0059 30.5937 28.0583 30.7272 28.1107 30.8606C28.1265 30.9004 28.1423 30.9403 28.1585 30.9813C28.2656 31.2549 28.2656 31.2549 28.2656 31.3594C27.9217 31.297 27.5889 31.2111 27.2536 31.1129C27.1786 31.0913 27.1786 31.0913 27.1021 31.0692C26.944 31.0235 26.786 30.9776 26.6279 30.9316C26.4186 30.8708 26.2092 30.8101 25.9997 30.7496C25.9516 30.7356 25.9036 30.7215 25.8541 30.707C25.8096 30.6942 25.7652 30.6814 25.7194 30.6681C25.6608 30.6511 25.6608 30.6511 25.601 30.6337C25.4945 30.6039 25.4945 30.6039 25.3594 30.6094C25.345 30.6386 25.3306 30.6679 25.3158 30.698C25.1666 31.0017 25.0167 31.305 24.8664 31.6082C24.8103 31.7214 24.7545 31.8348 24.6988 31.9482C24.6188 32.111 24.5383 32.2734 24.4576 32.4359C24.4327 32.4869 24.4078 32.5379 24.3821 32.5905C24.3587 32.6374 24.3352 32.6843 24.311 32.7327C24.2905 32.7742 24.27 32.8157 24.2489 32.8585C24.1875 32.9531 24.1875 32.9531 24.0469 33C23.25 31.1406 22.4531 29.2812 21.6562 27.4219C21.4405 27.6025 21.2326 27.7901 21.0264 27.9814C20.8021 28.1895 20.5759 28.3945 20.3438 28.5938C20.3122 28.6209 20.2807 28.648 20.2482 28.676C20.1708 28.7424 20.0932 28.8087 20.0156 28.875C19.8242 28.8116 19.7167 28.7311 19.5791 28.585C19.4218 28.4223 19.2615 28.2703 19.0897 28.1234C19.0058 28.05 18.9239 27.9756 18.8425 27.8996C18.8175 27.8764 18.7926 27.8532 18.7669 27.8293C18.7175 27.7832 18.6683 27.7369 18.6193 27.6905C18.4969 27.5766 18.3854 27.4923 18.2344 27.4219C18.2157 27.4806 18.1971 27.5394 18.1779 27.5999C18.0901 27.863 17.9821 28.1158 17.8718 28.3702C17.85 28.421 17.8281 28.4719 17.8055 28.5243C17.7338 28.6911 17.6618 28.8577 17.5898 29.0244C17.5399 29.1404 17.49 29.2565 17.4401 29.3725C17.4275 29.4018 17.4149 29.4311 17.4019 29.4612C17.3762 29.521 17.3505 29.5807 17.3248 29.6405C17.2856 29.7316 17.2464 29.8227 17.2072 29.9138C16.9229 30.5746 16.641 31.2365 16.3594 31.8984C16.3119 32.01 16.2644 32.1215 16.217 32.233C16.1082 32.4887 15.9994 32.7443 15.8906 33C15.75 32.9531 15.75 32.9531 15.6886 32.8585C15.6681 32.817 15.6476 32.7754 15.6265 32.7327C15.603 32.6857 15.5796 32.6388 15.5554 32.5905C15.5305 32.5394 15.5056 32.4884 15.4799 32.4359C15.4541 32.3839 15.4283 32.3319 15.4017 32.2784C15.3332 32.1402 15.265 32.0019 15.1971 31.8634C15.1277 31.7222 15.0577 31.5812 14.9878 31.4402C14.8508 31.1635 14.7142 30.8865 14.5781 30.6094C14.2342 30.6718 13.9014 30.7577 13.5661 30.8558C13.5161 30.8703 13.4661 30.8847 13.4146 30.8996C13.2565 30.9452 13.0985 30.9911 12.9404 31.0371C12.7311 31.098 12.5217 31.1586 12.3122 31.2191C12.2641 31.2332 12.2161 31.2472 12.1666 31.2617C12.1221 31.2746 12.0777 31.2874 12.0319 31.3006C11.9928 31.312 11.9537 31.3234 11.9135 31.3351C11.8125 31.3594 11.8125 31.3594 11.6719 31.3594C11.7702 30.9856 11.9138 30.6338 12.0646 30.2788C12.143 30.0943 12.2204 29.9095 12.2979 29.7246C12.3149 29.6841 12.3319 29.6436 12.3494 29.6019C12.6283 28.9356 12.8992 28.266 13.1706 27.5967C13.2142 27.4892 13.2577 27.3818 13.3013 27.2743C13.3225 27.2222 13.3436 27.1701 13.3654 27.1164C13.4913 26.8065 13.6195 26.4977 13.7499 26.1896C13.7931 26.0868 13.8361 25.984 13.8792 25.8812C13.9176 25.7904 13.9568 25.6999 13.9961 25.6095C14.1203 25.3125 14.1906 25.1131 14.1094 24.7969C14.0749 24.7886 14.0403 24.7803 14.0048 24.7718C13.6731 24.6907 13.3471 24.599 13.0219 24.4953C12.975 24.4803 12.928 24.4654 12.8796 24.45C12.7816 24.4186 12.6837 24.3871 12.5858 24.3555C12.4855 24.3233 12.385 24.2915 12.2845 24.26C12.1385 24.2142 11.9928 24.1674 11.8471 24.1203C11.8019 24.1063 11.7568 24.0924 11.7103 24.078C11.6689 24.0644 11.6276 24.0507 11.585 24.0367C11.5485 24.0251 11.5119 24.0134 11.4743 24.0014C11.3906 23.9531 11.3906 23.9531 11.3518 23.8704C11.3417 23.7384 11.3642 23.6339 11.3953 23.505C11.4076 23.4528 11.4199 23.4005 11.4326 23.3466C11.4462 23.2903 11.4598 23.234 11.4738 23.176C11.5011 23.0566 11.5284 22.9372 11.5556 22.8177C11.5987 22.6293 11.6425 22.4411 11.6881 22.2533C11.7321 22.0721 11.7729 21.8902 11.8136 21.7083C11.8277 21.6523 11.8419 21.5964 11.8565 21.5388C11.9249 21.2509 11.9249 21.2509 11.8437 20.9778C11.7606 20.8818 11.6748 20.8009 11.5781 20.7188C11.5296 20.6671 11.4816 20.615 11.4346 20.562C11.3887 20.5127 11.3428 20.4633 11.2969 20.4141C11.1196 20.223 10.9449 20.0304 10.7745 19.8331C10.636 19.676 10.4935 19.5226 10.3508 19.3693C10.0942 19.0917 10.0942 19.0917 10.0312 18.9844C10.0404 18.8241 10.1098 18.7506 10.2246 18.6445C10.3418 18.5323 10.4527 18.4189 10.5586 18.2959C10.6983 18.134 10.8415 17.9757 10.9863 17.8184C11.0308 17.77 11.0752 17.7216 11.1196 17.6732C11.2025 17.5829 11.2856 17.4927 11.3687 17.4025C11.4049 17.3628 11.4412 17.3231 11.4785 17.2822C11.5103 17.2476 11.5421 17.213 11.5748 17.1773C11.6069 17.1394 11.6389 17.1015 11.6719 17.0625C11.7146 17.0184 11.7574 16.9742 11.8014 16.9287C11.9176 16.7634 11.9133 16.6561 11.8812 16.4591C11.8577 16.3507 11.8325 16.2425 11.8061 16.1347C11.7933 16.0773 11.7805 16.02 11.7673 15.9609C11.7331 15.809 11.6977 15.6574 11.6616 15.5059C11.6111 15.2922 11.5631 15.0779 11.5146 14.8638C11.4886 14.7499 11.4623 14.6361 11.4355 14.5224C11.4235 14.4709 11.4115 14.4195 11.3991 14.3664C11.3884 14.3212 11.3777 14.276 11.3667 14.2294C11.3438 14.1094 11.3438 14.1094 11.3438 13.9219C11.6835 13.8116 12.0233 13.7016 12.3632 13.5918C12.5211 13.5409 12.6789 13.4898 12.8366 13.4386C13.0179 13.3797 13.1994 13.3212 13.3808 13.2627C13.4375 13.2442 13.4942 13.2258 13.5526 13.2068C13.6051 13.1899 13.6577 13.173 13.7118 13.1556C13.7581 13.1406 13.8045 13.1256 13.8522 13.1102C13.9688 13.0781 13.9688 13.0781 14.1094 13.0781C14.1213 13.0199 14.1332 12.9618 14.1454 12.9018C14.206 12.6299 14.2905 12.3671 14.3763 12.1024C14.3929 12.0509 14.4094 11.9995 14.4264 11.9465C14.4787 11.7836 14.5314 11.6208 14.584 11.458C14.6197 11.347 14.6554 11.236 14.6911 11.125C14.7782 10.8541 14.8656 10.5833 14.9531 10.3125C15.2897 10.3409 15.6016 10.4117 15.928 10.4965C16.0901 10.5361 16.2524 10.5751 16.4148 10.6141C16.5262 10.6415 16.6374 10.6701 16.7483 10.6997C17.3334 10.8836 17.3334 10.8836 17.9223 10.8315C18.1337 10.6942 18.2735 10.5135 18.4219 10.3125C18.4826 10.2558 18.5446 10.2004 18.6094 10.1484C18.8043 9.97998 18.9924 9.80443 19.1812 9.62926C19.3553 9.46802 19.5316 9.30976 19.7115 9.15491C19.7679 9.10541 19.8219 9.05309 19.875 9Z" fill="#449C9E"/>
<path d="M26.5242 13.3091C26.7874 13.342 27.0289 13.4023 27.28 13.487C27.3368 13.5056 27.3368 13.5056 27.3948 13.5246C27.5143 13.5639 27.6336 13.6037 27.7529 13.6435C27.8346 13.6704 27.9162 13.6973 27.9978 13.7242C28.1966 13.7896 28.3952 13.8556 28.5938 13.9218C28.5358 14.2892 28.4667 14.6519 28.385 15.0146C28.3635 15.1123 28.342 15.21 28.3206 15.3078C28.2871 15.4596 28.2535 15.6113 28.2193 15.7629C28.1861 15.9108 28.1536 16.0589 28.1213 16.207C28.1057 16.2752 28.1057 16.2752 28.0897 16.3448C28.0806 16.387 28.0715 16.4293 28.0621 16.4729C28.0539 16.5099 28.0456 16.5469 28.0371 16.5851C28.0281 16.7423 28.0936 16.8347 28.1878 16.9555C28.2125 16.9831 28.2372 17.0106 28.2627 17.039C28.2916 17.0714 28.3206 17.1038 28.3504 17.1372C28.4928 17.2936 28.6358 17.4496 28.7791 17.6052C28.9237 17.7626 29.0653 17.9221 29.2048 18.084C29.2819 18.1707 29.3604 18.2551 29.4402 18.3393C29.4658 18.3664 29.4914 18.3935 29.5177 18.4214C29.5688 18.4755 29.6202 18.5293 29.672 18.5828C29.8889 18.8128 29.8889 18.8128 29.9062 18.9843C29.8236 19.0914 29.7432 19.1822 29.6484 19.2773C29.5957 19.3322 29.5431 19.387 29.4904 19.4419C29.4649 19.4682 29.4393 19.4945 29.413 19.5216C29.3313 19.6067 29.2535 19.6946 29.1768 19.7842C29.0419 19.9401 28.9032 20.0923 28.7637 20.2441C28.7418 20.268 28.7199 20.2919 28.6973 20.3165C28.5904 20.4332 28.483 20.5494 28.3748 20.6649C28.3368 20.7059 28.2989 20.7468 28.2598 20.789C28.2258 20.8253 28.1918 20.8615 28.1569 20.8989C28.0737 21.0056 28.051 21.0557 28.0312 21.1875C28.0459 21.3123 28.0459 21.3123 28.0783 21.4475C28.0897 21.4996 28.1011 21.5517 28.1129 21.6053C28.1256 21.6613 28.1383 21.7173 28.1514 21.7751C28.164 21.8327 28.1767 21.8904 28.1897 21.9498C28.2303 22.1343 28.2713 22.3186 28.3125 22.5029C28.3537 22.6874 28.3947 22.8719 28.4353 23.0565C28.4605 23.1715 28.4861 23.2863 28.5121 23.4011C28.5235 23.4531 28.5349 23.505 28.5467 23.5585C28.5569 23.6043 28.5672 23.65 28.5777 23.6972C28.5938 23.8125 28.5938 23.8125 28.5469 23.9531C28.4569 23.9978 28.4569 23.9978 28.3374 24.0364C28.2928 24.0511 28.2482 24.0658 28.2022 24.081C28.1535 24.0964 28.1048 24.1117 28.0547 24.1276C28.0048 24.1438 27.9549 24.16 27.9034 24.1768C27.7974 24.2111 27.6913 24.2452 27.5852 24.279C27.4237 24.3305 27.2625 24.3827 27.1013 24.4351C26.9982 24.4684 26.8951 24.5016 26.792 24.5348C26.7441 24.5503 26.6962 24.5658 26.6468 24.5817C26.3757 24.6679 26.1068 24.7396 25.8281 24.7968C25.8524 25.0576 25.9035 25.2796 26.0037 25.5223C26.0236 25.5719 26.0236 25.5719 26.0438 25.6226C26.0726 25.6944 26.1015 25.7662 26.1307 25.8379C26.178 25.9542 26.2248 26.0708 26.2715 26.1874C26.3215 26.3125 26.3715 26.4375 26.4217 26.5624C26.6147 27.043 26.8029 27.5254 26.9912 28.0078C27.0617 28.1882 27.1322 28.3686 27.2027 28.549C27.2204 28.5943 27.238 28.6395 27.2563 28.6861C27.3713 28.9803 27.4867 29.2743 27.6024 29.5683C27.6814 29.7692 27.7604 29.9701 27.8394 30.1711C27.8773 30.2676 27.9153 30.364 27.9533 30.4604C28.0059 30.5937 28.0583 30.7271 28.1107 30.8606C28.1265 30.9004 28.1423 30.9402 28.1585 30.9813C28.2656 31.2549 28.2656 31.2549 28.2656 31.3593C27.9217 31.2969 27.5889 31.211 27.2536 31.1129C27.1786 31.0912 27.1786 31.0912 27.1021 31.0691C26.944 31.0235 26.786 30.9776 26.6279 30.9316C26.4186 30.8707 26.2092 30.8101 25.9997 30.7496C25.9516 30.7355 25.9036 30.7215 25.8541 30.707C25.8096 30.6942 25.7652 30.6813 25.7194 30.6681C25.6608 30.651 25.6608 30.651 25.601 30.6336C25.4945 30.6039 25.4945 30.6039 25.3594 30.6093C25.345 30.6386 25.3306 30.6679 25.3158 30.698C25.1666 31.0017 25.0167 31.305 24.8664 31.6081C24.8103 31.7214 24.7545 31.8347 24.6988 31.9482C24.6188 32.111 24.5383 32.2734 24.4576 32.4358C24.4327 32.4868 24.4078 32.5379 24.3821 32.5904C24.3587 32.6374 24.3352 32.6843 24.311 32.7326C24.2905 32.7742 24.27 32.8157 24.2489 32.8585C24.1875 32.9531 24.1875 32.9531 24.0469 33C23.25 31.1406 22.4531 29.2812 21.6562 27.4218C21.4405 27.6025 21.2326 27.7901 21.0264 27.9814C20.8021 28.1894 20.5759 28.3945 20.3437 28.5937C20.3122 28.6209 20.2807 28.648 20.2482 28.6759C20.1708 28.7424 20.0932 28.8087 20.0156 28.875C19.8242 28.8116 19.7167 28.7311 19.5791 28.5849C19.4218 28.4222 19.2615 28.2703 19.0897 28.1233C19.0058 28.05 18.9239 27.9755 18.8425 27.8996C18.8175 27.8764 18.7926 27.8531 18.7669 27.8292C18.7175 27.7832 18.6683 27.7369 18.6193 27.6905C18.4969 27.5766 18.3854 27.4922 18.2344 27.4218C18.2157 27.4806 18.1971 27.5393 18.1779 27.5999C18.0901 27.863 17.9821 28.1158 17.8718 28.3701C17.85 28.421 17.8281 28.4719 17.8055 28.5243C17.7338 28.6911 17.6618 28.8577 17.5898 29.0244C17.5399 29.1404 17.49 29.2564 17.4401 29.3725C17.4275 29.4017 17.4149 29.431 17.4019 29.4612C17.3762 29.5209 17.3505 29.5807 17.3248 29.6405C17.2856 29.7316 17.2464 29.8227 17.2072 29.9137C16.9229 30.5746 16.641 31.2364 16.3594 31.8984C16.3119 32.0099 16.2644 32.1215 16.217 32.233C16.1082 32.4886 15.9994 32.7443 15.8906 33C15.75 32.9531 15.75 32.9531 15.6886 32.8585C15.6681 32.8169 15.6476 32.7754 15.6265 32.7326C15.603 32.6857 15.5796 32.6388 15.5554 32.5904C15.5305 32.5394 15.5056 32.4884 15.4799 32.4358C15.4541 32.3839 15.4283 32.3319 15.4017 32.2784C15.3332 32.1402 15.265 32.0019 15.1971 31.8634C15.1277 31.7222 15.0577 31.5812 14.9878 31.4402C14.8508 31.1635 14.7142 30.8865 14.5781 30.6093C14.2342 30.6717 13.9014 30.7577 13.5661 30.8558C13.4911 30.8775 13.4911 30.8775 13.4146 30.8995C13.2565 30.9452 13.0985 30.9911 12.9404 31.0371C12.7311 31.098 12.5217 31.1586 12.3122 31.2191C12.2641 31.2331 12.2161 31.2472 12.1666 31.2617C12.1221 31.2745 12.0777 31.2874 12.0319 31.3006C11.9733 31.3177 11.9733 31.3177 11.9135 31.3351C11.8125 31.3593 11.8125 31.3593 11.6719 31.3593C11.7702 30.9856 11.9138 30.6338 12.0646 30.2788C12.143 30.0943 12.2204 29.9094 12.2979 29.7246C12.3149 29.6841 12.3319 29.6436 12.3494 29.6019C12.5826 29.0448 12.8095 28.4851 13.0371 27.9258C13.0817 27.8163 13.1263 27.7068 13.1709 27.5974C13.3633 27.1247 13.5553 26.6518 13.745 26.178C13.7871 26.0731 13.8293 25.9681 13.8715 25.8632C13.9092 25.7691 13.9465 25.6748 13.9838 25.5806C14.0057 25.5261 14.0275 25.4717 14.05 25.4156C14.0685 25.3691 14.087 25.3226 14.106 25.2747C14.1562 25.1718 14.1562 25.1718 14.25 25.125C14.25 25.1559 14.25 25.1868 14.25 25.2187C16.4697 24.211 18.6169 23.0029 20.4844 21.4218C20.5332 21.3811 20.5821 21.3404 20.631 21.2997C21.1617 20.8559 21.6671 20.3885 22.1562 19.8994C22.2278 19.8279 22.2997 19.7568 22.3717 19.6856C22.6701 19.389 22.9407 19.0793 23.2031 18.75C23.2469 18.6983 23.2911 18.6469 23.3357 18.596C24.5789 17.1703 25.6064 15.4262 26.2499 13.6501C26.3715 13.315 26.3715 13.315 26.5242 13.3091Z" fill="#2E8789"/>
<path d="M25.7344 24.9844C25.8876 25.061 25.9136 25.2272 25.9717 25.3804C25.9859 25.4171 26.0001 25.4538 26.0147 25.4916C26.0622 25.6144 26.1092 25.7374 26.1562 25.8604C26.1898 25.9473 26.2234 26.0342 26.257 26.1212C26.328 26.3049 26.3989 26.4888 26.4698 26.6726C26.6257 27.0768 26.7838 27.4801 26.9419 27.8834C26.9942 28.0168 27.0465 28.1503 27.0987 28.2838C27.2661 28.7119 27.4338 29.1399 27.6022 29.5677C27.6813 29.7687 27.7603 29.9699 27.8393 30.171C27.8773 30.2675 27.9153 30.364 27.9533 30.4604C28.0059 30.5938 28.0583 30.7272 28.1107 30.8606C28.1265 30.9004 28.1423 30.9403 28.1585 30.9813C28.2656 31.255 28.2656 31.255 28.2656 31.3594C27.9217 31.297 27.5889 31.2111 27.2536 31.1129C27.2036 31.0985 27.1536 31.084 27.1021 31.0692C26.944 31.0235 26.786 30.9776 26.6279 30.9316C26.4186 30.8708 26.2092 30.8101 25.9997 30.7496C25.9516 30.7356 25.9036 30.7215 25.8541 30.707C25.8096 30.6942 25.7652 30.6814 25.7194 30.6681C25.6803 30.6568 25.6412 30.6454 25.601 30.6337C25.4945 30.6039 25.4945 30.6039 25.3594 30.6094C25.345 30.6386 25.3306 30.6679 25.3158 30.698C25.1666 31.0017 25.0167 31.305 24.8664 31.6082C24.8103 31.7214 24.7545 31.8348 24.6988 31.9482C24.6188 32.111 24.5383 32.2734 24.4576 32.4359C24.4327 32.4869 24.4078 32.5379 24.3821 32.5905C24.3587 32.6374 24.3352 32.6843 24.311 32.7327C24.2905 32.7742 24.27 32.8157 24.2489 32.8585C24.1875 32.9531 24.1875 32.9531 24.0469 33C23.9993 32.8889 23.9517 32.7779 23.9041 32.6668C23.8607 32.5655 23.8173 32.4642 23.7738 32.363C23.663 32.1043 23.5521 31.8456 23.4413 31.5869C23.3764 31.4353 23.3115 31.2837 23.2465 31.1321C23.2333 31.1013 23.2201 31.0705 23.2065 31.0387C23.0184 30.5997 22.8299 30.161 22.641 29.7224C22.5638 29.5431 22.4866 29.3637 22.4095 29.1843C22.3478 29.0408 22.286 28.8975 22.2242 28.7541C22.155 28.5938 22.0861 28.4335 22.0172 28.2731C21.9968 28.2262 21.9765 28.1793 21.9556 28.131C21.8423 27.8666 21.7432 27.6023 21.6562 27.3281C21.7163 27.2633 21.7782 27.2001 21.8408 27.1377C21.8751 27.1023 21.9093 27.067 21.9446 27.0306C22.2364 26.8613 22.6983 27.0371 23.0149 27.1071C23.1129 27.1283 23.2108 27.1495 23.3088 27.1707C23.4616 27.2041 23.6145 27.2376 23.7673 27.2711C23.9159 27.3035 24.0645 27.3357 24.2131 27.3679C24.2588 27.378 24.3044 27.3881 24.3515 27.3985C24.3942 27.4077 24.4369 27.417 24.481 27.4265C24.5183 27.4346 24.5557 27.4428 24.5941 27.4513C24.7233 27.4749 24.7233 27.4749 24.9375 27.4688C25.2005 26.6489 25.4634 25.8291 25.7344 24.9844Z" fill="#DD4B3B"/>
<path d="M14.2031 25.125C14.2731 25.2578 14.3258 25.389 14.3721 25.5317C14.3861 25.5749 14.4002 25.618 14.4147 25.6625C14.4296 25.7087 14.4445 25.7549 14.4598 25.8025C14.4753 25.8501 14.4908 25.8977 14.5067 25.9467C14.5561 26.0985 14.6052 26.2504 14.6543 26.4023C14.6877 26.5054 14.7212 26.6084 14.7546 26.7114C14.8366 26.9638 14.9184 27.2163 15 27.4688C15.2665 27.4428 15.5262 27.4053 15.7886 27.3505C15.8385 27.3401 15.8385 27.3401 15.8893 27.3296C15.9943 27.3078 16.0992 27.2857 16.2041 27.2637C16.2734 27.2493 16.3427 27.2348 16.412 27.2205C16.4806 27.2062 16.5492 27.1919 16.6177 27.1776C16.6513 27.1706 16.6848 27.1637 16.7194 27.1565C16.8814 27.1227 17.0431 27.0877 17.2043 27.0501C17.2622 27.0368 17.3202 27.0236 17.3798 27.0099C17.4307 26.9978 17.4816 26.9858 17.534 26.9733C17.7276 26.945 17.8524 26.9608 18.0112 27.0764C18.0433 27.1063 18.0753 27.1362 18.1084 27.167C18.1574 27.212 18.1574 27.212 18.2075 27.258C18.2318 27.2811 18.2562 27.3043 18.2812 27.3281C18.1831 27.6433 18.0619 27.9437 17.929 28.2457C17.9081 28.2934 17.8873 28.3411 17.8658 28.3903C17.8209 28.4933 17.7758 28.5963 17.7307 28.6993C17.6097 28.9756 17.4892 29.2522 17.3688 29.5289C17.3564 29.5575 17.3439 29.586 17.3311 29.6155C17.0379 30.289 16.7495 30.9646 16.4619 31.6406C16.4384 31.6958 16.4149 31.751 16.3907 31.8078C16.3243 31.964 16.2579 32.1202 16.1915 32.2764C16.1718 32.3226 16.1521 32.3689 16.1318 32.4166C16.1137 32.4593 16.0956 32.5021 16.0769 32.5461C16.0612 32.583 16.0455 32.62 16.0293 32.6581C15.9819 32.7716 15.936 32.8857 15.8906 33C15.75 32.9531 15.75 32.9531 15.6886 32.8585C15.6681 32.817 15.6476 32.7754 15.6265 32.7327C15.603 32.6857 15.5796 32.6388 15.5554 32.5905C15.5305 32.5394 15.5056 32.4884 15.4799 32.4359C15.4541 32.3839 15.4283 32.3319 15.4017 32.2784C15.3332 32.1402 15.265 32.0019 15.1971 31.8634C15.1277 31.7222 15.0577 31.5812 14.9878 31.4402C14.8508 31.1635 14.7142 30.8865 14.5781 30.6094C14.2342 30.6718 13.9014 30.7577 13.5661 30.8558C13.4911 30.8775 13.4911 30.8775 13.4146 30.8996C13.2565 30.9452 13.0985 30.9911 12.9404 31.0371C12.7311 31.098 12.5217 31.1586 12.3122 31.2191C12.2401 31.2402 12.2401 31.2402 12.1666 31.2617C12.1221 31.2746 12.0777 31.2874 12.0319 31.3006C11.9733 31.3177 11.9733 31.3177 11.9135 31.3351C11.8125 31.3594 11.8125 31.3594 11.6719 31.3594C11.7702 30.9856 11.9138 30.6338 12.0646 30.2788C12.143 30.0943 12.2204 29.9095 12.2979 29.7246C12.3149 29.6841 12.3319 29.6436 12.3494 29.6019C12.5826 29.0448 12.8096 28.4852 13.0371 27.9258C13.0817 27.8163 13.1262 27.7069 13.1708 27.5974C13.3632 27.1245 13.5553 26.6514 13.7466 26.178C13.7756 26.1065 13.8045 26.0349 13.8335 25.9634C13.8851 25.8359 13.9366 25.7083 13.9879 25.5806C14.0099 25.5262 14.0319 25.4717 14.0546 25.4156C14.0733 25.3691 14.0921 25.3226 14.1114 25.2747C14.1562 25.1719 14.1562 25.1719 14.2031 25.125Z" fill="#DD4B3B"/>
<path d="M23.7278 20.4021C24.1302 20.6755 24.3621 21.0071 24.5159 21.4685C24.5646 22.0307 24.4931 22.4912 24.1262 22.9421C23.7849 23.2975 23.3673 23.4873 22.8752 23.5017C22.4189 23.4884 22.0301 23.3281 21.697 23.015C21.3256 22.621 21.2075 22.2952 21.2157 21.761C21.2363 21.2371 21.4269 20.8756 21.8118 20.5193C22.375 20.06 23.1091 20.0409 23.7278 20.4021Z" fill="#FFFDFB"/>
<path d="M18.216 14.9377C18.6046 15.1526 18.9624 15.5353 19.103 15.9629C19.1902 16.4157 19.1673 16.8911 18.9376 17.2966C18.6433 17.7069 18.2972 17.9568 17.8126 18.0935C17.3234 18.1403 16.9151 18.1113 16.5163 17.8128C16.1383 17.491 15.8777 17.1507 15.8248 16.6459C15.8044 16.079 15.9317 15.6705 16.3126 15.2341C16.4117 15.1547 16.4117 15.1547 16.5148 15.0877C16.5484 15.0653 16.5821 15.0429 16.6168 15.0199C17.1123 14.7378 17.69 14.7129 18.216 14.9377Z" fill="#FEFDFB"/>
<path d="M22.5469 15.75C22.875 16.0312 22.875 16.0312 23.1562 16.3594C21.2536 18.262 19.3509 20.1647 17.3906 22.125C17.0625 21.8438 17.0625 21.8438 16.7812 21.5156C18.6839 19.613 20.5866 17.7103 22.5469 15.75Z" fill="#FEFEFC"/>
<path d="M30.2812 9C30.375 9.04688 30.375 9.04688 30.4136 9.15967C30.427 9.20752 30.4403 9.25538 30.4541 9.30469C30.6018 9.76541 30.9128 10.1538 31.3458 10.3784C31.5507 10.4729 31.7591 10.5574 31.9688 10.6406C31.8336 10.7307 31.7156 10.7797 31.5645 10.8369C31.0129 11.0665 30.6853 11.4073 30.4537 11.9603C30.4089 12.0822 30.3667 12.2041 30.3281 12.3281C30.2457 12.2044 30.2022 12.1085 30.1523 11.9707C29.9354 11.4247 29.5926 11.0672 29.0592 10.8177C28.9219 10.7624 28.7842 10.7234 28.6406 10.6875C28.6875 10.5938 28.6875 10.5938 28.8019 10.5535C28.8744 10.5328 28.8744 10.5328 28.9482 10.5117C29.3988 10.3662 29.7261 10.0894 30 9.70312C30.1144 9.47548 30.2008 9.24135 30.2812 9Z" fill="#DDB348"/>
<path d="M25.7342 24.9844C25.8537 25.0441 25.8589 25.0868 25.9041 25.21C25.9163 25.2422 25.9285 25.2744 25.9411 25.3076C25.9686 25.4062 25.9686 25.4062 25.9686 25.5938C25.9222 25.6092 25.8758 25.6247 25.8279 25.6406C25.7839 25.72 25.7839 25.72 25.7555 25.8198C25.7369 25.8769 25.7369 25.8769 25.718 25.9352C25.6986 25.9977 25.6986 25.9977 25.6789 26.0614C25.6582 26.1259 25.6582 26.1259 25.637 26.1917C25.5927 26.3301 25.5492 26.4688 25.5057 26.6074C25.4767 26.6984 25.4477 26.7893 25.4187 26.8802C25.3761 27.0136 25.3336 27.147 25.2913 27.2805C25.177 27.6414 25.0585 28.0008 24.9373 28.3594C24.5507 28.2999 24.1721 28.222 23.7918 28.1309C23.3972 28.0387 23.0024 27.9478 22.6053 27.8672C22.5455 27.8542 22.5455 27.8542 22.4845 27.841C22.2571 27.7963 22.109 27.7919 21.8904 27.8906C21.8485 27.8169 21.8077 27.7426 21.7674 27.668C21.7446 27.6266 21.7217 27.5853 21.6982 27.5427C21.6561 27.4219 21.6561 27.4219 21.687 27.3224C21.7511 27.2326 21.8134 27.1553 21.8934 27.0791C21.9181 27.0541 21.9428 27.0292 21.9683 27.0035C22.2568 26.871 22.7145 27.0407 23.0147 27.1071C23.1127 27.1283 23.2106 27.1495 23.3086 27.1707C23.4615 27.2041 23.6143 27.2376 23.7672 27.2711C23.9157 27.3035 24.0643 27.3357 24.213 27.3679C24.2586 27.378 24.3043 27.3881 24.3513 27.3985C24.394 27.4077 24.4368 27.417 24.4808 27.4265C24.5181 27.4346 24.5555 27.4428 24.594 27.4513C24.7231 27.4749 24.7231 27.4749 24.9373 27.4688C25.2003 26.6489 25.4633 25.8291 25.7342 24.9844Z" fill="#C74436"/>
<path d="M14.2031 25.125C14.2728 25.2644 14.3246 25.3854 14.3721 25.5317C14.3861 25.5749 14.4002 25.618 14.4147 25.6625C14.4296 25.7087 14.4445 25.7549 14.4598 25.8025C14.4753 25.8501 14.4908 25.8977 14.5067 25.9467C14.5561 26.0985 14.6052 26.2504 14.6543 26.4023C14.6877 26.5054 14.7212 26.6084 14.7546 26.7114C14.8366 26.9638 14.9184 27.2163 15 27.4688C15.2665 27.4428 15.5262 27.4053 15.7886 27.3505C15.8385 27.3401 15.8385 27.3401 15.8893 27.3296C15.9943 27.3078 16.0992 27.2857 16.2041 27.2637C16.2734 27.2493 16.3427 27.2348 16.412 27.2205C16.4806 27.2062 16.5492 27.1919 16.6177 27.1776C16.6513 27.1706 16.6848 27.1637 16.7194 27.1565C16.8814 27.1227 17.0431 27.0877 17.2043 27.0501C17.2622 27.0368 17.3202 27.0236 17.3798 27.0099C17.4307 26.9978 17.4816 26.9858 17.534 26.9733C17.7276 26.945 17.8524 26.9608 18.0112 27.0764C18.0593 27.1212 18.0593 27.1212 18.1084 27.167C18.1411 27.197 18.1738 27.2271 18.2075 27.258C18.2318 27.2811 18.2562 27.3043 18.2812 27.3281C18.1458 27.7779 18.1458 27.7779 18 27.9375C17.9834 27.9133 17.9667 27.8891 17.9496 27.8642C17.8592 27.7816 17.8592 27.7816 17.7185 27.8062C17.6599 27.8189 17.6014 27.8316 17.5411 27.8447C17.4923 27.8549 17.4923 27.8549 17.4424 27.8653C17.3702 27.8805 17.2982 27.8961 17.2261 27.9119C17.1045 27.9386 16.9826 27.964 16.8606 27.9892C16.5471 28.054 16.234 28.1205 15.9208 28.1869C15.7864 28.2153 15.6519 28.2437 15.5175 28.272C15.4762 28.2808 15.435 28.2896 15.3924 28.2987C15.1043 28.3594 15.1043 28.3594 15 28.3594C14.8623 28.0462 14.7621 27.7278 14.6685 27.3995C14.5911 27.1312 14.4995 26.8702 14.4029 26.6082C14.3219 26.3744 14.2543 26.1374 14.189 25.8988C14.1364 25.7044 14.1364 25.7044 14.0156 25.5469C14.0775 25.4077 14.1394 25.2684 14.2031 25.125Z" fill="#C74536"/>
<path d="M23.2148 21.0558C23.4188 21.1902 23.5785 21.3344 23.6718 21.5626C23.7165 21.8658 23.6966 22.1245 23.5127 22.3754C23.3157 22.5791 23.1021 22.6507 22.8222 22.6642C22.5508 22.6525 22.408 22.5355 22.2069 22.3624C22.0383 22.1636 22.0098 21.9704 22.0165 21.7161C22.0501 21.472 22.1804 21.3053 22.3622 21.1466C22.624 20.9572 22.9152 20.9463 23.2148 21.0558Z" fill="#2E8789"/>
<path d="M17.7949 15.6649C18.013 15.7821 18.1449 15.9203 18.2812 16.1249C18.3126 16.398 18.3208 16.6507 18.2021 16.9013C17.8814 17.2393 17.8814 17.2393 17.6433 17.2611C17.1493 17.2727 17.1493 17.2727 16.9219 17.0624C16.7417 16.8672 16.653 16.7027 16.623 16.4384C16.6484 16.1893 16.7213 15.9888 16.9087 15.8164C17.1946 15.6062 17.448 15.5513 17.7949 15.6649Z" fill="#449C9E"/>
</svg>
