<svg width="42" height="42" viewBox="0 0 42 42" fill="none" xmlns="http://www.w3.org/2000/svg">
<rect width="42" height="42" rx="21" fill="#FFC6AC"/>
<g clip-path="url(#clip0_7518_14544)">
<path d="M20.1561 9.18752C20.1995 9.20631 20.2429 9.22511 20.2876 9.24447C20.9795 9.5826 21.4871 10.1784 21.7467 10.8966C21.8328 11.1822 21.8874 11.4718 21.9374 11.7656C22.0024 11.7271 22.0024 11.7271 22.0688 11.6878C22.4778 11.4462 22.8882 11.207 23.2996 10.9693C23.3809 10.9224 23.4622 10.8753 23.5434 10.8283C23.619 10.7847 23.619 10.7847 23.6961 10.7403C23.7411 10.7143 23.7861 10.6883 23.8325 10.6615C24.0927 10.5152 24.2626 10.4681 24.5624 10.5C24.9959 10.636 25.2011 11.1353 25.4061 11.5078C25.4599 11.6044 25.5138 11.7009 25.5678 11.7973C25.5953 11.8465 25.6228 11.8958 25.6512 11.9465C25.7827 12.1797 25.9181 12.4107 26.0536 12.6416C26.3062 13.0728 26.5557 13.5056 26.8036 13.9395C26.8202 13.9686 26.8368 13.9977 26.854 14.0276C27.2307 14.6869 27.2307 14.6869 27.1874 15.0938C26.9952 15.5101 26.5171 15.726 26.1327 15.9375C26.0363 15.9913 25.9399 16.0451 25.8435 16.099C25.7943 16.1265 25.7451 16.154 25.6944 16.1824C25.4591 16.315 25.226 16.4513 24.993 16.5879C24.449 16.9064 23.9031 17.2217 23.3568 17.5364C23.1024 17.683 22.848 17.8298 22.5936 17.9766C22.492 18.0352 22.3905 18.0938 22.2889 18.1524C22.2386 18.1814 22.1884 18.2104 22.1366 18.2403C21.6795 18.5039 21.6795 18.5039 21.5271 18.5919C21.4259 18.6503 21.3247 18.7087 21.2234 18.7671C20.9643 18.9166 20.7052 19.066 20.446 19.2153C20.393 19.2458 20.34 19.2763 20.2855 19.3078C20.1864 19.3649 20.0872 19.4219 19.9881 19.479C19.701 19.6444 19.415 19.8116 19.1294 19.9797C19.0928 20.0013 19.0561 20.0228 19.0184 20.0451C18.9289 20.0977 18.8394 20.1504 18.7499 20.2031C18.7979 20.2033 18.8459 20.2034 18.8953 20.2035C20.0635 20.2062 21.2317 20.2098 22.3999 20.2142C22.9648 20.2163 23.5297 20.2182 24.0947 20.2194C24.587 20.2205 25.0794 20.222 25.5718 20.2242C25.8325 20.2253 26.0932 20.2262 26.354 20.2265C26.5994 20.2268 26.8448 20.2277 27.0902 20.2291C27.1803 20.2295 27.2703 20.2297 27.3603 20.2296C27.4834 20.2296 27.6064 20.2303 27.7295 20.2313C27.7828 20.231 27.7828 20.231 27.8371 20.2306C28.1397 20.2347 28.3567 20.3048 28.5877 20.5108C28.7158 20.6576 28.7401 20.7253 28.7405 20.9147C28.7407 20.9561 28.7409 20.9974 28.7412 21.04C28.7411 21.1085 28.7411 21.1085 28.7411 21.1784C28.7413 21.2267 28.7415 21.275 28.7416 21.3248C28.7422 21.4877 28.7423 21.6507 28.7425 21.8136C28.7428 21.93 28.7431 22.0464 28.7435 22.1628C28.7444 22.5129 28.7449 22.8629 28.7453 23.213C28.7455 23.3778 28.7457 23.5426 28.746 23.7074C28.7468 24.2552 28.7475 24.803 28.7478 25.3507C28.7479 25.4929 28.748 25.6351 28.7481 25.7773C28.7481 25.8126 28.7481 25.8479 28.7481 25.8844C28.7485 26.4569 28.7497 27.0295 28.7512 27.602C28.7528 28.1896 28.7536 28.7773 28.7538 29.3649C28.7539 29.695 28.7543 30.025 28.7555 30.355C28.7566 30.6654 28.7568 30.9758 28.7563 31.2862C28.7563 31.4002 28.7566 31.5142 28.7572 31.6283C28.758 31.7838 28.7577 31.9392 28.7571 32.0947C28.7579 32.1626 28.7579 32.1626 28.7586 32.2319C28.7561 32.4948 28.7296 32.6556 28.5467 32.8594C28.3775 32.9797 28.2626 33.0176 28.0559 33.0178C28.0047 33.0182 27.9534 33.0186 27.9006 33.019C27.8446 33.0188 27.7886 33.0185 27.7308 33.0182C27.6413 33.0186 27.6413 33.0186 27.5499 33.019C27.3842 33.0196 27.2185 33.0194 27.0528 33.0191C26.8741 33.0189 26.6954 33.0195 26.5167 33.0199C26.1666 33.0207 25.8165 33.0208 25.4664 33.0205C25.1819 33.0203 24.8974 33.0204 24.6129 33.0207C24.5724 33.0207 24.532 33.0207 24.4903 33.0208C24.408 33.0208 24.3258 33.0209 24.2436 33.021C23.4723 33.0216 22.701 33.0214 21.9297 33.0208C21.224 33.0204 20.5182 33.021 19.8125 33.0221C19.0879 33.0232 18.3634 33.0237 17.6389 33.0234C17.2321 33.0232 16.8252 33.0233 16.4184 33.0241C16.0721 33.0248 15.7258 33.0249 15.3795 33.024C15.2028 33.0236 15.0261 33.0236 14.8493 33.0243C14.6578 33.025 14.4663 33.0243 14.2748 33.0235C14.2189 33.024 14.163 33.0244 14.1053 33.0249C13.6139 33.0205 13.6139 33.0205 13.4061 32.8125C13.2349 32.5671 13.1913 32.343 13.1961 32.049C13.1959 32.0117 13.1957 31.9744 13.1956 31.9361C13.1953 31.8122 13.1963 31.6883 13.1973 31.5645C13.1974 31.4753 13.1973 31.3861 13.1972 31.2969C13.1972 31.0555 13.1983 30.8141 13.1996 30.5727C13.2008 30.3201 13.2009 30.0676 13.2011 29.815C13.2017 29.3371 13.2032 28.8591 13.2051 28.3812C13.2072 27.8369 13.2082 27.2927 13.2092 26.7485C13.2111 25.6292 13.2144 24.5099 13.2186 23.3906C13.1867 23.4089 13.1548 23.4271 13.1219 23.4458C12.9774 23.5282 12.8329 23.6103 12.6883 23.6924C12.6381 23.7211 12.5878 23.7497 12.5361 23.7793C12.4638 23.8203 12.4638 23.8203 12.3901 23.8621C12.3456 23.8874 12.3012 23.9127 12.2554 23.9388C12.0536 24.0463 11.8988 24.0623 11.6717 24.0469C11.223 23.8854 11.0369 23.433 10.8163 23.042C10.7687 22.9585 10.721 22.875 10.6733 22.7916C10.6271 22.7107 10.5809 22.6297 10.5347 22.5487C10.4411 22.3856 10.3453 22.2243 10.2479 22.0635C10.0542 21.7433 9.86436 21.4208 9.675 21.098C9.63945 21.0374 9.60388 20.9768 9.5683 20.9163C9.48568 20.7756 9.40327 20.6348 9.32139 20.4937C9.26766 20.4013 9.21354 20.3091 9.15879 20.2172C9.00361 19.9514 8.95147 19.7619 8.99985 19.4531C9.16156 19.0346 9.66112 18.8185 10.0311 18.6182C10.1357 18.5607 10.2403 18.5032 10.3448 18.4455C10.3953 18.4177 10.4458 18.3898 10.4979 18.3611C10.717 18.2384 10.9317 18.1089 11.1448 17.9761C11.3341 17.8594 11.3341 17.8594 11.4374 17.8594C11.3032 17.7211 11.1662 17.5934 11.0184 17.4697C10.5298 17.0426 10.1696 16.3919 10.1164 15.7404C10.0678 14.8706 10.2376 14.1164 10.828 13.4473C11.3358 12.9008 11.9967 12.5666 12.7436 12.5045C13.8373 12.4775 14.6675 13.0511 15.5527 13.6214C15.7061 13.7195 15.8611 13.8151 16.0165 13.9102C16.065 13.9399 16.1135 13.9696 16.1635 14.0003C16.1971 14.0208 16.2308 14.0414 16.2655 14.0625C16.2641 14.0368 16.2626 14.0111 16.2612 13.9845C16.2297 13.3925 16.2118 12.8003 16.2077 12.2075C16.2072 12.1383 16.2064 12.069 16.2053 11.9998C16.1932 11.1559 16.4134 10.4204 16.9998 9.79993C17.8053 8.99454 19.1061 8.721 20.1561 9.18752ZM17.9764 10.8926C17.6262 11.3626 17.6149 11.8027 17.6408 12.3721C17.6429 12.4246 17.6451 12.4772 17.6473 12.5313C17.6542 12.698 17.6615 12.8646 17.6688 13.0313C17.6736 13.1447 17.6783 13.2582 17.683 13.3717C17.6945 13.6488 17.7064 13.926 17.7186 14.2031C18.1027 14.0165 18.4755 13.8161 18.8436 13.5996C18.8927 13.5708 18.9417 13.542 18.9923 13.5123C19.843 13.0581 19.843 13.0581 20.3656 12.289C20.4599 11.9047 20.4689 11.5478 20.2894 11.1883C20.0703 10.8285 19.7698 10.5632 19.3592 10.4531C18.8308 10.3866 18.3477 10.4888 17.9764 10.8926ZM11.9061 14.4375C11.6143 14.8351 11.5345 15.1659 11.578 15.6563C11.6823 16.0622 11.8803 16.3399 12.2372 16.5615C12.4769 16.7023 12.6628 16.7432 12.9403 16.752C13.0136 16.7554 13.0136 16.7554 13.0884 16.7589C13.5455 16.6956 13.9655 16.405 14.3612 16.1807C14.4124 16.1518 14.4635 16.123 14.5163 16.0932C15.1313 15.8071 15.1313 15.8071 15.6092 15.375C15.5669 15.3493 15.5669 15.3493 15.5237 15.323C15.4387 15.2713 15.3537 15.2195 15.2687 15.1678C15.1709 15.1083 15.073 15.0488 14.9752 14.9893C14.7447 14.8491 14.5144 14.7087 14.2848 14.567C14.2475 14.544 14.2102 14.521 14.1718 14.4974C14.103 14.4549 14.0343 14.4124 13.9657 14.3697C13.2451 13.926 12.5635 13.7739 11.9061 14.4375Z" fill="#449C9E"/>
<path d="M20.1561 9.18752C20.1995 9.20631 20.2429 9.22511 20.2876 9.24447C20.9795 9.5826 21.4871 10.1784 21.7467 10.8966C21.8328 11.1822 21.8874 11.4718 21.9374 11.7656C22.0024 11.7271 22.0024 11.7271 22.0688 11.6878C22.4778 11.4462 22.8882 11.207 23.2996 10.9693C23.3809 10.9224 23.4622 10.8753 23.5434 10.8283C23.619 10.7847 23.619 10.7847 23.6961 10.7403C23.7411 10.7143 23.7861 10.6883 23.8325 10.6615C24.0927 10.5152 24.2626 10.4681 24.5624 10.5C24.9959 10.636 25.2011 11.1353 25.4061 11.5078C25.4599 11.6044 25.5138 11.7009 25.5678 11.7973C25.5953 11.8465 25.6228 11.8958 25.6512 11.9465C25.7827 12.1797 25.9181 12.4107 26.0536 12.6416C26.3062 13.0728 26.5557 13.5056 26.8036 13.9395C26.8202 13.9686 26.8368 13.9977 26.854 14.0276C27.2307 14.6869 27.2307 14.6869 27.1874 15.0938C26.9952 15.5101 26.5171 15.726 26.1327 15.9375C26.0363 15.9913 25.9399 16.0451 25.8435 16.099C25.7943 16.1265 25.7451 16.154 25.6944 16.1824C25.4591 16.315 25.226 16.4513 24.993 16.5879C24.449 16.9064 23.9031 17.2217 23.3568 17.5364C23.1024 17.683 22.848 17.8298 22.5936 17.9766C22.492 18.0352 22.3905 18.0938 22.2889 18.1524C22.2386 18.1814 22.1884 18.2104 22.1366 18.2403C21.9842 18.3281 21.8319 18.416 21.6795 18.5039C21.6292 18.5329 21.579 18.562 21.5271 18.5919C21.4258 18.6503 21.3244 18.7088 21.223 18.7673C20.9662 18.9155 20.7093 19.0637 20.4526 19.212C19.9723 19.4893 19.4919 19.7664 19.0106 20.042C18.9727 20.0638 18.9347 20.0855 18.8956 20.108C18.6576 20.244 18.4177 20.3762 18.1768 20.5071C17.9654 20.6226 17.7555 20.7408 17.5458 20.8594C17.4994 20.8856 17.453 20.9118 17.4053 20.9388C17.0287 21.1522 16.6547 21.3698 16.2812 21.5886C15.918 21.8011 15.553 22.0104 15.1874 22.2188C14.7636 22.4604 14.3405 22.703 13.9188 22.9483C13.8745 22.9739 13.8303 22.9996 13.7847 23.026C13.5232 23.1785 13.2671 23.3378 13.0123 23.5013C12.842 23.6087 12.668 23.7087 12.492 23.8067C12.4436 23.834 12.4436 23.834 12.3943 23.862C12.139 24.005 11.9663 24.0669 11.6717 24.0469C11.223 23.8854 11.0369 23.433 10.8163 23.042C10.7687 22.9585 10.721 22.875 10.6733 22.7916C10.6271 22.7107 10.5809 22.6297 10.5347 22.5487C10.4411 22.3856 10.3453 22.2243 10.2479 22.0635C10.0542 21.7433 9.86436 21.4208 9.675 21.098C9.63945 21.0374 9.60388 20.9768 9.5683 20.9163C9.48568 20.7756 9.40327 20.6348 9.32139 20.4937C9.26766 20.4013 9.21354 20.3091 9.15879 20.2172C9.00361 19.9514 8.95147 19.7619 8.99985 19.4531C9.16156 19.0346 9.66111 18.8185 10.0311 18.6182C10.1357 18.5607 10.2403 18.5032 10.3448 18.4455C10.3953 18.4177 10.4458 18.3898 10.4979 18.3611C10.717 18.2384 10.9317 18.1089 11.1448 17.9761C11.3341 17.8594 11.3341 17.8594 11.4374 17.8594C11.3032 17.7211 11.1662 17.5934 11.0184 17.4697C10.5298 17.0426 10.1696 16.3919 10.1164 15.7404C10.0678 14.8706 10.2376 14.1164 10.828 13.4473C11.3358 12.9008 11.9967 12.5666 12.7436 12.5045C13.8373 12.4775 14.6675 13.0511 15.5527 13.6214C15.7061 13.7195 15.8611 13.8151 16.0165 13.9102C16.065 13.9399 16.1135 13.9696 16.1635 14.0003C16.1971 14.0208 16.2308 14.0414 16.2655 14.0625C16.2641 14.0368 16.2626 14.0111 16.2612 13.9845C16.2297 13.3925 16.2118 12.8003 16.2077 12.2075C16.2072 12.1383 16.2064 12.069 16.2053 11.9998C16.1932 11.1559 16.4134 10.4204 16.9998 9.79993C17.8053 8.99454 19.1061 8.721 20.1561 9.18752ZM17.9764 10.8926C17.6262 11.3626 17.6149 11.8027 17.6408 12.3721C17.6429 12.4246 17.6451 12.4772 17.6473 12.5313C17.6542 12.698 17.6615 12.8646 17.6688 13.0313C17.6736 13.1447 17.6783 13.2582 17.683 13.3717C17.6945 13.6488 17.7064 13.926 17.7186 14.2031C18.1027 14.0165 18.4755 13.8161 18.8436 13.5996C18.8927 13.5708 18.9417 13.542 18.9923 13.5123C19.843 13.0581 19.843 13.0581 20.3656 12.289C20.4599 11.9047 20.4689 11.5478 20.2894 11.1883C20.0703 10.8285 19.7698 10.5632 19.3592 10.4531C18.8308 10.3866 18.3477 10.4888 17.9764 10.8926ZM11.9061 14.4375C11.6143 14.8351 11.5345 15.1659 11.578 15.6563C11.6823 16.0622 11.8803 16.3399 12.2372 16.5615C12.4769 16.7023 12.6628 16.7432 12.9403 16.752C13.0136 16.7554 13.0136 16.7554 13.0884 16.7589C13.5455 16.6956 13.9655 16.405 14.3612 16.1807C14.4124 16.1518 14.4635 16.123 14.5163 16.0932C15.1313 15.8071 15.1313 15.8071 15.6092 15.375C15.5669 15.3493 15.5669 15.3493 15.5236 15.323C15.4387 15.2713 15.3537 15.2195 15.2687 15.1678C15.1709 15.1083 15.073 15.0488 14.9752 14.9893C14.7447 14.8491 14.5144 14.7087 14.2848 14.567C14.2475 14.544 14.2102 14.521 14.1718 14.4974C14.103 14.4549 14.0343 14.4124 13.9657 14.3697C13.2451 13.926 12.5635 13.7739 11.9061 14.4375Z" fill="#2E8789"/>
<path d="M23.1094 20.2499C23.7577 20.2466 24.4059 20.2442 25.0542 20.2426C25.3553 20.2419 25.6563 20.2409 25.9573 20.2393C26.2479 20.2378 26.5385 20.2369 26.829 20.2366C26.9398 20.2363 27.0506 20.2358 27.1614 20.2351C27.3167 20.234 27.472 20.2339 27.6273 20.234C27.6731 20.2334 27.7188 20.2329 27.7659 20.2324C28.1024 20.2339 28.3293 20.2802 28.5879 20.5107C28.7159 20.6575 28.7402 20.7252 28.7407 20.9146C28.7409 20.956 28.7411 20.9973 28.7413 21.0399C28.7413 21.0855 28.7413 21.1312 28.7413 21.1783C28.7414 21.2266 28.7416 21.2749 28.7418 21.3247C28.7423 21.4876 28.7425 21.6506 28.7427 21.8135C28.743 21.9299 28.7433 22.0463 28.7436 22.1627C28.7445 22.5128 28.745 22.8628 28.7454 23.2129C28.7456 23.3777 28.7459 23.5425 28.7461 23.7073C28.7469 24.2551 28.7476 24.8028 28.7479 25.3506C28.748 25.4928 28.7481 25.635 28.7482 25.7772C28.7482 25.8125 28.7483 25.8478 28.7483 25.8843C28.7487 26.4568 28.7499 27.0293 28.7514 27.6019C28.7529 28.1895 28.7538 28.7772 28.7539 29.3648C28.754 29.6948 28.7544 30.0249 28.7556 30.3549C28.7568 30.6653 28.7569 30.9757 28.7564 31.2861C28.7564 31.4001 28.7567 31.5141 28.7574 31.6282C28.7582 31.7837 28.7579 31.9391 28.7572 32.0946C28.7578 32.1399 28.7583 32.1851 28.7588 32.2318C28.7563 32.4947 28.7297 32.6555 28.5469 32.8593C28.3677 33.001 28.2322 33.0174 28.0067 33.0168C27.9449 33.017 27.883 33.0172 27.8193 33.0174C27.7511 33.0169 27.6828 33.0164 27.6146 33.0159C27.5426 33.0158 27.4705 33.0159 27.3984 33.0159C27.203 33.016 27.0076 33.0152 26.8121 33.0142C26.6078 33.0133 26.4035 33.0132 26.1992 33.013C25.8124 33.0126 25.4256 33.0115 25.0388 33.01C24.516 33.0082 23.9932 33.0074 23.4705 33.0066C22.647 33.0053 21.8235 33.0025 21 32.9999C21 31.2519 21 29.504 21 27.703C21.3681 28.0185 21.3681 28.0185 21.4971 28.152C21.5248 28.1803 21.5525 28.2086 21.5811 28.2377C21.6377 28.296 21.6942 28.3543 21.7506 28.4128C21.7782 28.4408 21.8057 28.4688 21.834 28.4977C21.8585 28.5229 21.8829 28.5481 21.9081 28.5741C22.0889 28.7315 22.2524 28.7551 22.4852 28.7489C22.6714 28.7238 22.7714 28.6611 22.9219 28.5468C23.0529 28.3353 23.0803 28.1742 23.0812 27.9274C23.0817 27.878 23.0817 27.878 23.0821 27.8275C23.083 27.7176 23.0829 27.6077 23.0828 27.4978C23.0832 27.4188 23.0837 27.3398 23.0842 27.2608C23.0855 27.0467 23.0859 26.8326 23.0862 26.6184C23.0867 26.3945 23.0879 26.1706 23.089 25.9467C23.0911 25.5229 23.0924 25.0991 23.0935 24.6753C23.0948 24.1927 23.0968 23.7101 23.099 23.2275C23.1033 22.235 23.1067 21.2425 23.1094 20.2499Z" fill="#2E8789"/>
<path d="M18.8909 20.25C20.283 20.25 21.6752 20.25 23.1096 20.25C23.1172 22.2469 23.1172 22.2469 23.1188 23.0833C23.1199 23.6609 23.1212 24.2386 23.1237 24.8162C23.1256 25.2369 23.1268 25.6576 23.1272 26.0783C23.1275 26.301 23.1281 26.5237 23.1294 26.7465C23.1307 26.9562 23.1311 27.1659 23.1308 27.3756C23.1309 27.4525 23.1312 27.5294 23.132 27.6063C23.1329 27.7115 23.1327 27.8167 23.1321 27.9219C23.1323 27.9807 23.1325 28.0395 23.1327 28.1001C23.1016 28.3232 23.024 28.5078 22.8464 28.6576C22.6664 28.7808 22.4948 28.803 22.2803 28.8062C21.935 28.7267 21.6887 28.4024 21.4514 28.1602C21.4124 28.1208 21.3735 28.0814 21.3333 28.0408C21.2377 27.9441 21.1423 27.8471 21.0471 27.75C20.9023 27.8148 20.7997 27.8905 20.6855 28.0001C20.6533 28.0307 20.6211 28.0613 20.588 28.0928C20.5548 28.1247 20.5217 28.1566 20.4875 28.1895C19.8879 28.7632 19.8879 28.7632 19.5852 28.7988C19.3578 28.7765 19.2026 28.6975 19.0315 28.5469C18.8895 28.3546 18.8734 28.2149 18.8739 27.9782C18.8738 27.9451 18.8737 27.912 18.8736 27.8779C18.8733 27.7672 18.8741 27.6565 18.8749 27.5458C18.8749 27.4663 18.8749 27.3868 18.8748 27.3074C18.8748 27.0918 18.8756 26.8763 18.8766 26.6607C18.8775 26.4353 18.8776 26.21 18.8777 25.9847C18.8782 25.558 18.8793 25.1314 18.8807 24.7047C18.8826 24.1281 18.8833 23.5516 18.8842 22.975C18.8855 22.0667 18.8883 21.1583 18.8909 20.25Z" fill="#FEB54B"/>
<path d="M24.712 10.5467C25.0368 10.7777 25.2181 11.1655 25.4063 11.5076C25.4602 11.6041 25.5141 11.7006 25.568 11.7971C25.5955 11.8463 25.623 11.8956 25.6514 11.9463C25.7829 12.1795 25.9183 12.4105 26.0538 12.6414C26.3064 13.0726 26.556 13.5054 26.8038 13.9393C26.8204 13.9683 26.8371 13.9974 26.8542 14.0274C27.2309 14.6867 27.2309 14.6867 27.1876 15.0936C26.9954 15.5099 26.5173 15.7258 26.1329 15.9373C26.0365 15.9911 25.9401 16.0449 25.8438 16.0988C25.7946 16.1263 25.7454 16.1538 25.6947 16.1822C25.4594 16.3148 25.2263 16.4511 24.9932 16.5877C24.4497 16.9059 23.9043 17.2209 23.3585 17.5353C23.1486 17.6562 22.9388 17.7772 22.729 17.8983C22.6263 17.9575 22.5236 18.0167 22.4209 18.0759C22.1846 18.2121 21.9486 18.3487 21.7133 18.4867C21.6718 18.511 21.6302 18.5352 21.5875 18.5602C21.5104 18.6053 21.4335 18.6506 21.3567 18.696C21.1043 18.8436 21.1043 18.8436 21.0001 18.8436C20.9781 18.0038 20.9616 17.1641 20.9515 16.3241C20.9467 15.934 20.9401 15.5441 20.9294 15.1541C20.92 14.814 20.914 14.474 20.9119 14.1338C20.9107 13.9537 20.9078 13.774 20.901 13.5941C20.8609 12.503 20.8609 12.503 21.0904 12.2142C21.3099 12.0271 21.5519 11.9136 21.8202 11.8127C21.9982 11.741 22.1566 11.642 22.3184 11.5398C22.6443 11.3481 22.9715 11.1589 23.2988 10.9697C23.3805 10.9225 23.4622 10.8752 23.5439 10.828C23.6193 10.7844 23.6193 10.7844 23.6963 10.74C23.7413 10.7141 23.7863 10.6881 23.8327 10.6613C24.1378 10.4898 24.3689 10.439 24.712 10.5467Z" fill="#449C9E"/>
<path d="M20.1564 9.18752C20.1998 9.20631 20.2432 9.22511 20.2879 9.24447C20.9865 9.58586 21.4903 10.1851 21.7502 10.9102C21.8482 11.2286 21.8927 11.527 21.8908 11.8594C21.8581 11.8782 21.8253 11.8971 21.7916 11.9165C21.6662 11.9887 21.5407 12.061 21.4153 12.1332C21.3315 12.1815 21.2477 12.2297 21.1638 12.278C20.9138 12.4219 20.6642 12.5664 20.417 12.7152C20.3804 12.7372 20.3437 12.7592 20.3059 12.7819C20.2388 12.8224 20.1718 12.8632 20.105 12.9044C20.03 12.9495 19.9528 12.9908 19.8752 13.0313C19.8443 13.0158 19.8133 13.0003 19.7814 12.9844C19.803 12.9684 19.8245 12.9525 19.8466 12.9361C20.1594 12.689 20.3051 12.4066 20.3787 12.0163C20.4211 11.6304 20.3365 11.2854 20.1096 10.9688C19.7937 10.654 19.5001 10.489 19.049 10.4766C18.6483 10.4838 18.323 10.5994 18.0363 10.8856C17.6807 11.324 17.6601 11.7477 17.6926 12.2901C17.6967 12.385 17.7006 12.48 17.7045 12.575C17.7114 12.7394 17.7198 12.9033 17.7312 13.0674C17.7436 13.2497 17.752 13.4318 17.76 13.6143C17.7673 13.7004 17.7673 13.7004 17.7749 13.7884C17.7803 13.9605 17.7755 14.0871 17.7189 14.25C17.563 14.3984 17.3903 14.4894 17.1983 14.5813C17.0801 14.6396 16.9678 14.7062 16.8545 14.7735C16.7415 14.8407 16.6273 14.9059 16.5131 14.9712C16.4254 15.0214 16.3379 15.072 16.2503 15.1226C16.1939 15.155 16.1375 15.1873 16.0811 15.2196C16.0309 15.2484 15.9808 15.2771 15.9292 15.3068C15.7211 15.4143 15.7211 15.4143 15.6096 15.4219C15.5027 15.3752 15.5027 15.3752 15.3851 15.301C15.3413 15.2739 15.2976 15.2468 15.2525 15.2188C15.206 15.1891 15.1595 15.1595 15.1115 15.1289C15.0636 15.0991 15.0157 15.0692 14.9664 15.0385C14.8683 14.9774 14.7704 14.916 14.6725 14.8544C14.4711 14.7277 14.2685 14.603 14.0656 14.4785C14.0327 14.4581 13.9999 14.4377 13.966 14.4166C13.5415 14.155 13.1621 13.936 12.6469 14.0356C12.2682 14.1435 11.9627 14.3606 11.7658 14.7041C11.5933 15.0413 11.5628 15.422 11.6605 15.789C11.8255 16.2205 12.0596 16.4333 12.4689 16.6406C12.8501 16.7708 13.2843 16.7147 13.6408 16.5469C13.6408 16.5778 13.6408 16.6088 13.6408 16.6406C13.6067 16.6595 13.5725 16.6783 13.5373 16.6978C13.4066 16.7699 13.2759 16.8422 13.1453 16.9145C13.0871 16.9467 13.0289 16.9789 12.9707 17.011C12.6849 17.169 12.3995 17.3271 12.1203 17.4965C12.084 17.5185 12.0477 17.5405 12.0103 17.5632C11.9446 17.6035 11.8791 17.6442 11.814 17.6856C11.6057 17.8133 11.6057 17.8133 11.4763 17.8096C10.8093 17.4668 10.4071 16.809 10.175 16.1192C9.99515 15.3582 10.1099 14.5339 10.5062 13.8618C10.9818 13.1708 11.6345 12.6964 12.4678 12.5356C13.6696 12.3664 14.5902 13.0011 15.553 13.6214C15.7065 13.7195 15.8614 13.8151 16.0168 13.9102C16.0653 13.9399 16.1138 13.9696 16.1638 14.0003C16.1975 14.0208 16.2311 14.0414 16.2658 14.0625C16.2644 14.0368 16.263 14.0111 16.2615 13.9845C16.2301 13.3925 16.2121 12.8003 16.2081 12.2075C16.2075 12.1383 16.2067 12.069 16.2057 11.9998C16.1935 11.1559 16.4138 10.4204 17.0001 9.79993C17.8057 8.99454 19.1064 8.721 20.1564 9.18752Z" fill="#FED742"/>
<path d="M18.8909 20.25C19.5869 20.25 20.283 20.25 21.0002 20.25C21.0076 21.2092 21.0137 22.1683 21.0172 23.1275C21.0189 23.5729 21.0212 24.0183 21.025 24.4637C21.0283 24.8519 21.0304 25.2402 21.0311 25.6284C21.0315 25.834 21.0325 26.0395 21.0349 26.245C21.0372 26.4386 21.0378 26.6322 21.0373 26.8258C21.0374 26.8967 21.0381 26.9676 21.0393 27.0385C21.0495 27.6399 21.0495 27.6399 20.8415 27.8815C20.7865 27.933 20.7302 27.9832 20.6721 28.0312C20.6112 28.0902 20.6112 28.0902 20.5491 28.1503C20.5123 28.1825 20.4756 28.2148 20.4377 28.248C20.398 28.283 20.3583 28.3179 20.3174 28.3539C20.2798 28.3866 20.2421 28.4194 20.2034 28.4531C20.171 28.482 20.1387 28.5109 20.1054 28.5406C19.9305 28.6952 19.8191 28.7713 19.5852 28.7988C19.3578 28.7765 19.2026 28.6975 19.0315 28.5469C18.8895 28.3546 18.8734 28.2149 18.8739 27.9782C18.8738 27.9451 18.8737 27.912 18.8736 27.8779C18.8733 27.7672 18.8741 27.6565 18.8749 27.5458C18.8749 27.4663 18.8749 27.3868 18.8748 27.3074C18.8748 27.0918 18.8756 26.8763 18.8766 26.6607C18.8775 26.4353 18.8776 26.21 18.8777 25.9847C18.8782 25.558 18.8793 25.1314 18.8807 24.7047C18.8823 24.219 18.8831 23.7332 18.8838 23.2475C18.8852 22.2483 18.8878 21.2492 18.8909 20.25Z" fill="#FDD743"/>
<path d="M31.3273 16.1599C31.4851 16.292 31.583 16.3947 31.605 16.6066C31.6077 16.7324 31.6062 16.8574 31.6027 16.9832C31.6017 17.0487 31.6017 17.0487 31.6008 17.1155C31.5991 17.2228 31.5968 17.33 31.5939 17.4373C31.6476 17.4357 31.7013 17.434 31.7567 17.4323C31.8284 17.431 31.9001 17.4297 31.9718 17.4285C32.0071 17.4273 32.0424 17.4261 32.0787 17.4249C32.3951 17.4208 32.6114 17.4821 32.8537 17.698C33.025 17.8945 33.0131 18.0416 33.0104 18.2953C32.9904 18.5416 32.8521 18.686 32.672 18.8435C32.5369 18.8886 32.4528 18.8959 32.3126 18.895C32.2708 18.8948 32.2289 18.8947 32.1858 18.8945C32.1205 18.8939 32.1205 18.8939 32.0539 18.8933C32.0098 18.8931 31.9657 18.8929 31.9203 18.8927C31.8115 18.8921 31.7027 18.8914 31.5939 18.8904C31.5946 18.9176 31.5954 18.9448 31.5961 18.9728C31.5991 19.0967 31.6009 19.2206 31.6027 19.3445C31.6039 19.3873 31.6051 19.43 31.6063 19.4741C31.6096 19.7794 31.5653 19.9362 31.3595 20.1678C31.1847 20.3208 30.9988 20.3124 30.7771 20.3098C30.5839 20.2887 30.4836 20.2264 30.3283 20.1092C30.1268 19.8472 30.1341 19.5699 30.1379 19.2508C30.1381 19.216 30.1383 19.1813 30.1385 19.1456C30.139 19.0605 30.1399 18.9755 30.1408 18.8904C30.0803 18.8926 30.0198 18.8948 29.9575 18.897C29.877 18.8988 29.7965 18.9005 29.716 18.9021C29.6762 18.9037 29.6365 18.9053 29.5956 18.9069C29.3132 18.9113 29.1534 18.867 28.922 18.7029C28.7732 18.5243 28.7278 18.3235 28.7345 18.0935C28.7754 17.8923 28.8399 17.7547 28.9836 17.6072C29.2484 17.4471 29.4825 17.4244 29.7834 17.4314C29.8351 17.4321 29.8351 17.4321 29.8879 17.4327C29.9722 17.4338 30.0565 17.4355 30.1408 17.4373C30.1383 17.3626 30.1383 17.3626 30.1358 17.2864C30.1199 16.6019 30.1199 16.6019 30.2814 16.3123C30.5856 15.9998 30.9528 15.9621 31.3273 16.1599Z" fill="#DDB348"/>
<path d="M27.0618 17.5634C27.2355 17.7129 27.3129 17.8359 27.3432 18.0655C27.3556 18.3329 27.3266 18.4978 27.1409 18.7031C26.9377 18.8869 26.7719 18.9203 26.5066 18.9087C26.2779 18.8729 26.1246 18.7773 25.9748 18.5976C25.8743 18.3517 25.8455 18.146 25.928 17.8945C26.0249 17.6707 26.1633 17.5718 26.3821 17.4697C26.6389 17.4143 26.828 17.4443 27.0618 17.5634Z" fill="#DDB348"/>
<path d="M29.8742 13.3477C30.045 13.4907 30.1293 13.5821 30.1539 13.8089C30.1618 14.0523 30.1679 14.2466 30.0001 14.4375C29.7631 14.6457 29.6288 14.6862 29.319 14.6818C29.0952 14.6627 28.9959 14.5577 28.84 14.4053C28.7106 14.2395 28.6743 14.0837 28.6876 13.875C28.7294 13.6737 28.7927 13.5365 28.9367 13.3887C29.2631 13.1913 29.5378 13.17 29.8742 13.3477Z" fill="#DDB348"/>
<path d="M21 9.79688C21.5519 10.2568 21.81 10.8707 21.8906 11.5781C21.8994 11.6243 21.9083 11.6706 21.9174 11.7182C21.8906 11.8594 21.8906 11.8594 21.8173 11.9256C21.7134 11.9935 21.6076 12.053 21.498 12.1113C21.4422 12.143 21.4422 12.143 21.3853 12.1752C21.1111 12.3281 21.1111 12.3281 21 12.3281C21 11.4928 21 10.6575 21 9.79688Z" fill="#FEB64B"/>
</g>
<defs>
<clipPath id="clip0_7518_14544">
<rect width="24" height="24" fill="white" transform="translate(9 9)"/>
</clipPath>
</defs>
</svg>
