<svg width="103" height="94" viewBox="0 0 103 94" fill="none" xmlns="http://www.w3.org/2000/svg">
<path d="M19.1837 82.2499H83.8162C90.4254 82.2499 94.5454 75.7091 91.2408 70.4999L58.9245 19.5441C55.6199 14.3349 47.38 14.3349 44.0754 19.5441L11.7591 70.4999C8.45453 75.7091 12.5745 82.2499 19.1837 82.2499ZM51.5 54.8333C49.1395 54.8333 47.2083 53.0708 47.2083 50.9166V43.0833C47.2083 40.9291 49.1395 39.1666 51.5 39.1666C53.8604 39.1666 55.7916 40.9291 55.7916 43.0833V50.9166C55.7916 53.0708 53.8604 54.8333 51.5 54.8333ZM55.7916 70.4999H47.2083V62.6666H55.7916V70.4999Z" fill="url(#paint0_linear_1700_21014)"/>
<defs>
<linearGradient id="paint0_linear_1700_21014" x1="51.5" y1="15.6372" x2="51.5" y2="82.2499" gradientUnits="userSpaceOnUse">
<stop offset="0.125" stop-color="#FFB744"/>
<stop offset="1" stop-color="#FFED50"/>
</linearGradient>
</defs>
</svg>
