<svg width="40" height="40" viewBox="0 0 40 40" fill="none" xmlns="http://www.w3.org/2000/svg">
<rect width="40" height="40" rx="20" fill="url(#paint0_linear_7518_14822)"/>
<g clip-path="url(#clip0_7518_14822)">
<path fill-rule="evenodd" clip-rule="evenodd" d="M16.6553 8.47329C14.3359 9.14893 12.2739 10.508 10.7385 12.373C9.20306 14.2381 8.2654 16.5227 8.04785 18.9287H13.5336C13.8533 15.2674 14.9149 11.7095 16.6536 8.47158M13.5336 21.0716H8.04785C8.26495 23.4777 9.20221 25.7625 10.7373 27.6279C12.2725 29.4933 14.3342 30.8527 16.6536 31.5287C14.9149 28.2908 13.8533 24.7329 13.5336 21.0716ZM19.4033 31.9864C17.3248 28.69 16.0506 24.9512 15.6833 21.0716H24.3147C23.9474 24.9512 22.6731 28.69 20.5947 31.9864C20.1978 32.0062 19.8002 32.0062 19.4033 31.9864ZM23.3461 31.527C25.6652 30.8511 27.7268 29.4919 29.2619 27.6269C30.797 25.7618 31.7344 23.4774 31.9519 21.0716H26.4661C26.1464 24.7329 25.0848 28.2908 23.3461 31.5287M26.4661 18.9304H31.9519C31.7348 16.5243 30.7975 14.2396 29.2624 12.3741C27.7272 10.5087 25.6655 9.14933 23.3461 8.47329C25.0848 11.7112 26.1464 15.2691 26.4661 18.9304ZM19.4033 8.01386C19.8007 7.99408 20.199 7.99408 20.5964 8.01386C22.6743 11.3104 23.9479 15.0493 24.3147 18.9287H15.685C16.057 15.0253 17.3341 11.283 19.4033 8.01386Z" fill="#FEFEFE"/>
</g>
<defs>
<linearGradient id="paint0_linear_7518_14822" x1="31.4884" y1="-9.4" x2="-31.5868" y2="43.3048" gradientUnits="userSpaceOnUse">
<stop stop-color="#2E8789"/>
<stop offset="1" stop-color="#CDE5E6"/>
</linearGradient>
<clipPath id="clip0_7518_14822">
<rect width="24" height="24" fill="white" transform="translate(8 8)"/>
</clipPath>
</defs>
</svg>
