<svg width="42" height="42" viewBox="0 0 42 42" fill="none" xmlns="http://www.w3.org/2000/svg">
<rect width="42" height="42" rx="21" fill="#FFC6AC"/>
<g clip-path="url(#clip0_7518_14510)">
<path d="M23.3905 12.0001C23.4767 12.0141 23.4767 12.0141 23.5647 12.0283C26.6004 12.538 29.4329 13.8456 31.7119 15.9257C31.7906 15.9973 31.87 16.0682 31.9499 16.1385C32.4313 16.5624 32.9514 17.0921 33.0082 17.7711C33.0335 18.7075 33.0335 18.7075 32.8124 19.1251C32.7914 19.1658 32.7704 19.2066 32.7488 19.2485C32.4458 19.7928 31.9755 20.175 31.3788 20.3633C31.1877 20.4095 31.0015 20.4137 30.8055 20.4112C30.7645 20.4108 30.7234 20.4105 30.6811 20.4101C29.9149 20.3902 29.3822 20.0282 28.8628 19.4889C28.6622 19.2869 28.4425 19.113 28.2186 18.9376C28.1735 18.9011 28.1285 18.8646 28.082 18.827C26.4995 17.569 24.5896 16.788 22.5936 16.5001C22.5368 16.4919 22.5368 16.4919 22.4789 16.4835C19.4847 16.0714 16.4424 16.9429 14.0351 18.7336C13.7346 18.9615 13.4547 19.206 13.1805 19.465C12.5015 20.106 11.9193 20.4228 10.975 20.4065C10.441 20.3828 10.0378 20.1415 9.65613 19.7814C9.61063 19.7388 9.61063 19.7388 9.56421 19.6953C9.07044 19.1843 8.97677 18.5812 8.98706 17.9064C8.99753 17.6273 9.05456 17.4026 9.18738 17.1564C9.20961 17.1144 9.23185 17.0724 9.25476 17.0291C9.54285 16.5353 9.97385 16.1628 10.4061 15.797C10.4481 15.7602 10.4901 15.7234 10.5334 15.6855C13.9406 12.7182 18.7562 11.2898 23.3905 12.0001Z" fill="#449C9E"/>
<path d="M20.9649 18.7384C20.9979 18.7383 21.0309 18.7383 21.0649 18.7383C22.5511 18.7405 23.9662 19.0875 25.2793 19.7859C25.3499 19.8231 25.4212 19.859 25.4926 19.8947C26.0534 20.1822 26.5837 20.5674 27.0409 20.9999C27.1354 21.0889 27.2335 21.1701 27.3341 21.252C27.7257 21.5945 28.0888 22.1127 28.1334 22.6461C28.1587 23.5825 28.1587 23.5825 27.9376 24.0001C27.9166 24.0408 27.8957 24.0815 27.8741 24.1235C27.5576 24.6919 27.0872 25.0248 26.474 25.2304C25.8594 25.3972 25.2691 25.2928 24.716 24.9867C24.5276 24.8689 24.3729 24.7341 24.2127 24.5809C23.2925 23.7132 22.0885 23.2534 20.8214 23.2851C19.6778 23.3386 18.5269 23.8088 17.7335 24.6446C17.3467 25.0485 16.7667 25.2838 16.2128 25.3137C15.5268 25.3081 14.9371 25.059 14.4431 24.5804C14.2836 24.4011 14.1676 24.2153 14.0626 24.0001C14.0433 23.9634 14.0239 23.9266 14.004 23.8888C13.7908 23.415 13.7849 22.7545 13.9483 22.2628C14.2467 21.5948 14.7163 21.1632 15.2813 20.7188C15.3473 20.6665 15.3473 20.6665 15.4146 20.6132C17.0017 19.3866 18.9658 18.7401 20.9649 18.7384Z" fill="#2E8789"/>
<path d="M20.9999 11.8592C20.9999 13.3442 20.9999 14.8292 20.9999 16.3592C20.4739 16.4056 19.948 16.452 19.4061 16.4998C17.514 16.8064 15.7512 17.4666 14.203 18.6092C14.1612 18.64 14.1612 18.64 14.1185 18.6714C13.7877 18.9174 13.4801 19.1816 13.1805 19.4647C12.5015 20.1057 11.9193 20.4225 10.975 20.4062C10.441 20.3825 10.0378 20.1412 9.65613 19.7811C9.61063 19.7385 9.61063 19.7385 9.56421 19.695C9.07044 19.184 8.97677 18.581 8.98706 17.9061C8.99753 17.6271 9.05456 17.4023 9.18738 17.1561C9.20961 17.1141 9.23185 17.0721 9.25476 17.0288C9.54285 16.535 9.97385 16.1625 10.4061 15.7967C10.4481 15.7599 10.4901 15.7231 10.5334 15.6852C12.9785 13.5559 16.0792 12.2766 19.2889 11.9119C19.3369 11.9063 19.3848 11.9007 19.4342 11.8949C19.96 11.8417 20.4639 11.8592 20.9999 11.8592Z" fill="#5EC0C2"/>
<path d="M21.0001 18.75C21.0001 20.235 21.0001 21.72 21.0001 23.25C20.6752 23.2964 20.3504 23.3428 20.0157 23.3906C19.1505 23.6183 18.3573 23.9873 17.7335 24.6445C17.3467 25.0484 16.7667 25.2837 16.2128 25.3136C15.5268 25.308 14.9371 25.0589 14.4431 24.5803C14.2836 24.401 14.1676 24.2152 14.0626 24C14.0433 23.9633 14.0239 23.9265 14.004 23.8887C13.7908 23.4149 13.7849 22.7544 13.9483 22.2627C14.2467 21.5947 14.7163 21.1631 15.2813 20.7188C15.3473 20.6665 15.3473 20.6665 15.4146 20.6131C17.0239 19.3693 18.9787 18.75 21.0001 18.75Z" fill="#449C9E"/>
<path d="M22.5559 26.2121C23.003 26.6249 23.2449 27.1906 23.2723 27.7949C23.2817 28.4521 23.0712 29.022 22.6273 29.5084C22.1398 29.9774 21.5677 30.1611 20.9025 30.1579C20.3219 30.1446 19.8255 29.9184 19.3946 29.53C18.9313 29.0448 18.731 28.4668 18.7329 27.8068C18.7509 27.1799 19.0092 26.6219 19.4621 26.1887C20.3965 25.4135 21.6281 25.4696 22.5559 26.2121Z" fill="#449C9E"/>
<path d="M21.0002 25.6406C21.0002 27.1256 21.0002 28.6106 21.0002 30.1406C20.3673 30.1406 19.8686 29.957 19.3946 29.5298C18.9313 29.0445 18.731 28.4666 18.7329 27.8066C18.7509 27.1797 19.0092 26.6217 19.4621 26.1885C19.923 25.8061 20.4101 25.6406 21.0002 25.6406Z" fill="#2E8789"/>
</g>
<defs>
<clipPath id="clip0_7518_14510">
<rect width="24" height="24" fill="white" transform="translate(9 9)"/>
</clipPath>
</defs>
</svg>
